M48
INCH
T33C0.031
%
T33
X006700Y044900
X006700Y044100
X006700Y040900
X006700Y040100
X006700Y036900
X006700Y036100
X006700Y032900
X006700Y032100
X006700Y028900
X006700Y028100
X006700Y024900
X006700Y024100
X006700Y020900
X006700Y020100
X006700Y016900
X006700Y016100
X006700Y012900
X006700Y012100
X006700Y008900
X006700Y008100
X006700Y004900
X006700Y004100
X007200Y044900
X007200Y044100
X007200Y040900
X007200Y040100
X007200Y036900
X007200Y036100
X007200Y032900
X007200Y032100
X007200Y028900
X007200Y028100
X007200Y024900
X007200Y024100
X007200Y020900
X007200Y020100
X007200Y016900
X007200Y016100
X007200Y012900
X007200Y012100
X007200Y008900
X007200Y008100
X007200Y004900
X007200Y004100
X007700Y044900
X007700Y044100
X007700Y040900
X007700Y040100
X007700Y036900
X007700Y036100
X007700Y032900
X007700Y032100
X007700Y028900
X007700Y028100
X007700Y024900
X007700Y024100
X007700Y020900
X007700Y020100
X007700Y016900
X007700Y016100
X007700Y012900
X007700Y012100
X007700Y008900
X007700Y008100
X007700Y004900
X007700Y004100
M30
