G04 start of page 2 for group 0 idx 0 *
G04 Title: (unknown), top *
G04 Creator: pcb 20140316 *
G04 CreationDate: Sun 30 Dec 2018 07:28:16 PM GMT UTC *
G04 For: railfan *
G04 Format: Gerber/RS-274X *
G04 PCB-Dimensions (mil): 1435.00 4900.00 *
G04 PCB-Coordinate-Origin: lower left *
%MOIN*%
%FSLAX25Y25*%
%LNTOP*%
%ADD21C,0.0310*%
%ADD20C,0.0130*%
%ADD19C,0.0300*%
%ADD18R,0.0512X0.0512*%
%ADD17R,0.0472X0.0472*%
%ADD16R,0.0236X0.0236*%
%ADD15R,0.0100X0.0100*%
%ADD14R,0.0120X0.0120*%
%ADD13C,0.0200*%
%ADD12C,0.0100*%
%ADD11C,0.0001*%
G54D11*G36*
X38500Y413500D02*Y418536D01*
X38540Y418702D01*
X38563Y419094D01*
X38540Y419487D01*
X38500Y419653D01*
Y422473D01*
X38540Y422639D01*
X38563Y423031D01*
X38540Y423424D01*
X38500Y423590D01*
Y427500D01*
X44500D01*
Y413500D01*
X38500D01*
G37*
G36*
X56000Y390500D02*Y384500D01*
X38095D01*
X38092Y384505D01*
X37836Y384805D01*
X37537Y385060D01*
X37201Y385266D01*
X36838Y385416D01*
X36455Y385508D01*
X36063Y385539D01*
X35671Y385508D01*
X35288Y385416D01*
X34925Y385266D01*
X34589Y385060D01*
X34290Y384805D01*
X34056Y384532D01*
X34001D01*
X34000Y384535D01*
Y385465D01*
X34005Y385478D01*
X34042Y385631D01*
X34051Y385788D01*
X34042Y388306D01*
X34005Y388459D01*
X34000Y388472D01*
Y389402D01*
X34005Y389415D01*
X34042Y389568D01*
X34051Y389725D01*
X34048Y390500D01*
X56000D01*
G37*
G36*
X38500Y373500D02*Y378536D01*
X38540Y378702D01*
X38563Y379094D01*
X38540Y379487D01*
X38500Y379653D01*
Y382473D01*
X38540Y382639D01*
X38563Y383031D01*
X38540Y383424D01*
X38500Y383590D01*
Y387500D01*
X44500D01*
Y373500D01*
X38500D01*
G37*
G36*
X56000Y397500D02*Y391500D01*
X34045D01*
X34042Y392243D01*
X34005Y392396D01*
X33945Y392542D01*
X33863Y392676D01*
X33760Y392796D01*
X33641Y392898D01*
X33506Y392980D01*
X33361Y393041D01*
X33208Y393077D01*
X33051Y393087D01*
X27000Y393078D01*
Y397500D01*
X56000D01*
G37*
G36*
X11500Y438500D02*X25500D01*
Y428969D01*
X24508D01*
X24474Y428997D01*
X24138Y429203D01*
X23775Y429353D01*
X23392Y429445D01*
X23000Y429476D01*
X22608Y429445D01*
X22225Y429353D01*
X21862Y429203D01*
X21526Y428997D01*
X21227Y428742D01*
X20971Y428442D01*
X20766Y428107D01*
X20615Y427743D01*
X20523Y427361D01*
X20492Y426969D01*
X20523Y426576D01*
X20615Y426194D01*
X20766Y425830D01*
X20971Y425495D01*
X21227Y425195D01*
X21526Y424940D01*
X21862Y424734D01*
X22225Y424584D01*
X22608Y424492D01*
X23000Y424461D01*
X23392Y424492D01*
X23775Y424584D01*
X24138Y424734D01*
X24474Y424940D01*
X24508Y424969D01*
X25500D01*
Y411500D01*
X11500D01*
Y438500D01*
G37*
G36*
Y398500D02*X25500D01*
Y388969D01*
X24508D01*
X24474Y388997D01*
X24138Y389203D01*
X23775Y389353D01*
X23392Y389445D01*
X23000Y389476D01*
X22608Y389445D01*
X22225Y389353D01*
X21862Y389203D01*
X21526Y388997D01*
X21227Y388742D01*
X20971Y388442D01*
X20766Y388107D01*
X20615Y387743D01*
X20523Y387361D01*
X20492Y386969D01*
X20523Y386576D01*
X20615Y386194D01*
X20766Y385830D01*
X20971Y385495D01*
X21227Y385195D01*
X21526Y384940D01*
X21862Y384734D01*
X22225Y384584D01*
X22608Y384492D01*
X23000Y384461D01*
X23392Y384492D01*
X23775Y384584D01*
X24138Y384734D01*
X24474Y384940D01*
X24508Y384969D01*
X25500D01*
Y371500D01*
X11500D01*
Y398500D01*
G37*
G36*
X56000Y350500D02*Y344500D01*
X38095D01*
X38092Y344505D01*
X37836Y344805D01*
X37537Y345060D01*
X37201Y345266D01*
X36838Y345416D01*
X36455Y345508D01*
X36063Y345539D01*
X35671Y345508D01*
X35288Y345416D01*
X34925Y345266D01*
X34589Y345060D01*
X34290Y344805D01*
X34056Y344532D01*
X34001D01*
X34000Y344535D01*
Y345465D01*
X34005Y345478D01*
X34042Y345631D01*
X34051Y345788D01*
X34042Y348306D01*
X34005Y348459D01*
X34000Y348472D01*
Y349402D01*
X34005Y349415D01*
X34042Y349568D01*
X34051Y349725D01*
X34048Y350500D01*
X56000D01*
G37*
G36*
X38500Y333500D02*Y338536D01*
X38540Y338702D01*
X38563Y339094D01*
X38540Y339487D01*
X38500Y339653D01*
Y342473D01*
X38540Y342639D01*
X38563Y343031D01*
X38540Y343424D01*
X38500Y343590D01*
Y347500D01*
X44500D01*
Y333500D01*
X38500D01*
G37*
G36*
X56000Y357500D02*Y351500D01*
X34045D01*
X34042Y352243D01*
X34005Y352396D01*
X33945Y352542D01*
X33863Y352676D01*
X33760Y352796D01*
X33641Y352898D01*
X33506Y352980D01*
X33361Y353041D01*
X33208Y353077D01*
X33051Y353087D01*
X27000Y353078D01*
Y357500D01*
X56000D01*
G37*
G36*
X119000Y453000D02*X111000D01*
Y457000D01*
X119000D01*
Y453000D01*
G37*
G36*
X132000Y478500D02*Y451500D01*
X120500D01*
Y460524D01*
X120892Y460555D01*
X121275Y460647D01*
X121638Y460797D01*
X121974Y461003D01*
X122273Y461258D01*
X122529Y461558D01*
X122734Y461893D01*
X122885Y462257D01*
X122977Y462639D01*
X123000Y463031D01*
X122977Y463424D01*
X122885Y463806D01*
X122734Y464170D01*
X122529Y464505D01*
X122273Y464805D01*
X121974Y465060D01*
X121638Y465266D01*
X121275Y465416D01*
X120892Y465508D01*
X120500Y465539D01*
Y478500D01*
X132000D01*
G37*
G36*
X56000Y470500D02*Y464500D01*
X38095D01*
X38092Y464505D01*
X37836Y464805D01*
X37537Y465060D01*
X37201Y465266D01*
X36838Y465416D01*
X36455Y465508D01*
X36063Y465539D01*
X35671Y465508D01*
X35288Y465416D01*
X34925Y465266D01*
X34589Y465060D01*
X34290Y464805D01*
X34056Y464531D01*
X34001D01*
X34000Y464535D01*
Y465465D01*
X34005Y465478D01*
X34042Y465631D01*
X34051Y465788D01*
X34042Y468306D01*
X34005Y468459D01*
X34000Y468472D01*
Y469402D01*
X34005Y469415D01*
X34042Y469568D01*
X34051Y469725D01*
X34048Y470500D01*
X56000D01*
G37*
G36*
X38500Y453500D02*Y458536D01*
X38540Y458702D01*
X38563Y459094D01*
X38540Y459487D01*
X38500Y459653D01*
Y462473D01*
X38540Y462639D01*
X38563Y463031D01*
X38540Y463424D01*
X38500Y463590D01*
Y467500D01*
X44500D01*
Y453500D01*
X38500D01*
G37*
G36*
X56000Y477500D02*Y471500D01*
X34045D01*
X34042Y472243D01*
X34005Y472396D01*
X33945Y472542D01*
X33863Y472676D01*
X33760Y472796D01*
X33641Y472898D01*
X33506Y472980D01*
X33361Y473041D01*
X33208Y473077D01*
X33051Y473087D01*
X27000Y473078D01*
Y477500D01*
X56000D01*
G37*
G36*
X11500Y478500D02*X25500D01*
Y468969D01*
X24508D01*
X24474Y468997D01*
X24138Y469203D01*
X23775Y469353D01*
X23392Y469445D01*
X23000Y469476D01*
X22608Y469445D01*
X22225Y469353D01*
X21862Y469203D01*
X21526Y468997D01*
X21227Y468742D01*
X20971Y468442D01*
X20766Y468107D01*
X20615Y467743D01*
X20523Y467361D01*
X20492Y466969D01*
X20523Y466576D01*
X20615Y466194D01*
X20766Y465830D01*
X20971Y465495D01*
X21227Y465195D01*
X21526Y464940D01*
X21862Y464734D01*
X22225Y464584D01*
X22608Y464492D01*
X23000Y464461D01*
X23392Y464492D01*
X23775Y464584D01*
X24138Y464734D01*
X24474Y464940D01*
X24508Y464969D01*
X25500D01*
Y451500D01*
X11500D01*
Y478500D01*
G37*
G36*
X56000Y430500D02*Y424500D01*
X38095D01*
X38092Y424505D01*
X37836Y424805D01*
X37537Y425060D01*
X37201Y425266D01*
X36838Y425416D01*
X36455Y425508D01*
X36063Y425539D01*
X35671Y425508D01*
X35288Y425416D01*
X34925Y425266D01*
X34589Y425060D01*
X34290Y424805D01*
X34056Y424531D01*
X34001D01*
X34000Y424535D01*
Y425465D01*
X34005Y425478D01*
X34042Y425631D01*
X34051Y425788D01*
X34042Y428306D01*
X34005Y428459D01*
X34000Y428472D01*
Y429402D01*
X34005Y429415D01*
X34042Y429568D01*
X34051Y429725D01*
X34048Y430500D01*
X56000D01*
G37*
G36*
Y437500D02*Y431500D01*
X34045D01*
X34042Y432243D01*
X34005Y432396D01*
X33945Y432542D01*
X33863Y432676D01*
X33760Y432796D01*
X33641Y432898D01*
X33506Y432980D01*
X33361Y433041D01*
X33208Y433077D01*
X33051Y433087D01*
X27000Y433078D01*
Y437500D01*
X56000D01*
G37*
G36*
X119000Y413000D02*X111000D01*
Y417000D01*
X119000D01*
Y413000D01*
G37*
G36*
Y373000D02*X111000D01*
Y377000D01*
X119000D01*
Y373000D01*
G37*
G36*
X132000Y438500D02*Y411500D01*
X120500D01*
Y420524D01*
X120892Y420555D01*
X121275Y420647D01*
X121638Y420797D01*
X121974Y421003D01*
X122273Y421258D01*
X122529Y421558D01*
X122734Y421893D01*
X122885Y422257D01*
X122977Y422639D01*
X123000Y423031D01*
X122977Y423424D01*
X122885Y423806D01*
X122734Y424170D01*
X122529Y424505D01*
X122273Y424805D01*
X121974Y425060D01*
X121638Y425266D01*
X121275Y425416D01*
X120892Y425508D01*
X120500Y425539D01*
Y438500D01*
X132000D01*
G37*
G36*
Y398500D02*Y371500D01*
X120500D01*
Y380524D01*
X120892Y380555D01*
X121275Y380647D01*
X121638Y380797D01*
X121974Y381003D01*
X122273Y381258D01*
X122529Y381558D01*
X122734Y381893D01*
X122885Y382257D01*
X122977Y382639D01*
X123000Y383031D01*
X122977Y383424D01*
X122885Y383806D01*
X122734Y384170D01*
X122529Y384505D01*
X122273Y384805D01*
X121974Y385060D01*
X121638Y385266D01*
X121275Y385416D01*
X120892Y385508D01*
X120500Y385539D01*
Y398500D01*
X132000D01*
G37*
G36*
X11500Y358500D02*X25500D01*
Y348969D01*
X24508D01*
X24474Y348997D01*
X24138Y349203D01*
X23775Y349353D01*
X23392Y349445D01*
X23000Y349476D01*
X22608Y349445D01*
X22225Y349353D01*
X21862Y349203D01*
X21526Y348997D01*
X21227Y348742D01*
X20971Y348442D01*
X20766Y348107D01*
X20615Y347743D01*
X20523Y347361D01*
X20492Y346969D01*
X20523Y346576D01*
X20615Y346194D01*
X20766Y345830D01*
X20971Y345495D01*
X21227Y345195D01*
X21526Y344940D01*
X21862Y344734D01*
X22225Y344584D01*
X22608Y344492D01*
X23000Y344461D01*
X23392Y344492D01*
X23775Y344584D01*
X24138Y344734D01*
X24474Y344940D01*
X24508Y344969D01*
X25500D01*
Y331500D01*
X11500D01*
Y358500D01*
G37*
G36*
Y318500D02*X25500D01*
Y308969D01*
X24508D01*
X24474Y308997D01*
X24138Y309203D01*
X23775Y309353D01*
X23392Y309445D01*
X23000Y309476D01*
X22608Y309445D01*
X22225Y309353D01*
X21862Y309203D01*
X21526Y308997D01*
X21227Y308742D01*
X20971Y308442D01*
X20766Y308107D01*
X20615Y307743D01*
X20523Y307361D01*
X20492Y306969D01*
X20523Y306576D01*
X20615Y306194D01*
X20766Y305830D01*
X20971Y305495D01*
X21227Y305195D01*
X21526Y304940D01*
X21862Y304734D01*
X22225Y304584D01*
X22608Y304492D01*
X23000Y304461D01*
X23392Y304492D01*
X23775Y304584D01*
X24138Y304734D01*
X24474Y304940D01*
X24508Y304969D01*
X25500D01*
Y291500D01*
X11500D01*
Y318500D01*
G37*
G36*
Y278500D02*X25500D01*
Y268969D01*
X24508D01*
X24474Y268997D01*
X24138Y269203D01*
X23775Y269353D01*
X23392Y269445D01*
X23000Y269476D01*
X22608Y269445D01*
X22225Y269353D01*
X21862Y269203D01*
X21526Y268997D01*
X21227Y268742D01*
X20971Y268442D01*
X20766Y268107D01*
X20615Y267743D01*
X20523Y267361D01*
X20492Y266969D01*
X20523Y266576D01*
X20615Y266194D01*
X20766Y265830D01*
X20971Y265495D01*
X21227Y265195D01*
X21526Y264940D01*
X21862Y264734D01*
X22225Y264584D01*
X22608Y264492D01*
X23000Y264461D01*
X23392Y264492D01*
X23775Y264584D01*
X24138Y264734D01*
X24474Y264940D01*
X24508Y264969D01*
X25500D01*
Y251500D01*
X11500D01*
Y278500D01*
G37*
G36*
X56000Y310500D02*Y304500D01*
X38095D01*
X38092Y304505D01*
X37836Y304805D01*
X37537Y305060D01*
X37201Y305266D01*
X36838Y305416D01*
X36455Y305508D01*
X36063Y305539D01*
X35671Y305508D01*
X35288Y305416D01*
X34925Y305266D01*
X34589Y305060D01*
X34290Y304805D01*
X34056Y304532D01*
X34001D01*
X34000Y304535D01*
Y305465D01*
X34005Y305478D01*
X34042Y305631D01*
X34051Y305788D01*
X34042Y308306D01*
X34005Y308459D01*
X34000Y308472D01*
Y309402D01*
X34005Y309415D01*
X34042Y309568D01*
X34051Y309725D01*
X34048Y310500D01*
X56000D01*
G37*
G36*
Y317500D02*Y311500D01*
X34045D01*
X34042Y312243D01*
X34005Y312396D01*
X33945Y312542D01*
X33863Y312676D01*
X33760Y312796D01*
X33641Y312898D01*
X33506Y312980D01*
X33361Y313041D01*
X33208Y313077D01*
X33051Y313087D01*
X27000Y313078D01*
Y317500D01*
X56000D01*
G37*
G36*
X38500Y293500D02*Y298536D01*
X38540Y298702D01*
X38563Y299094D01*
X38540Y299487D01*
X38500Y299653D01*
Y302473D01*
X38540Y302639D01*
X38563Y303031D01*
X38540Y303424D01*
X38500Y303590D01*
Y307500D01*
X44500D01*
Y293500D01*
X38500D01*
G37*
G36*
X56000Y270500D02*Y264500D01*
X38095D01*
X38092Y264505D01*
X37836Y264805D01*
X37537Y265060D01*
X37201Y265266D01*
X36838Y265416D01*
X36455Y265508D01*
X36063Y265539D01*
X35671Y265508D01*
X35288Y265416D01*
X34925Y265266D01*
X34589Y265060D01*
X34290Y264805D01*
X34056Y264532D01*
X34001D01*
X34000Y264535D01*
Y265465D01*
X34005Y265478D01*
X34042Y265631D01*
X34051Y265788D01*
X34042Y268306D01*
X34005Y268459D01*
X34000Y268472D01*
Y269402D01*
X34005Y269415D01*
X34042Y269568D01*
X34051Y269725D01*
X34048Y270500D01*
X56000D01*
G37*
G36*
X38500Y253500D02*Y258536D01*
X38540Y258702D01*
X38563Y259094D01*
X38540Y259487D01*
X38500Y259653D01*
Y262473D01*
X38540Y262639D01*
X38563Y263031D01*
X38540Y263424D01*
X38500Y263590D01*
Y267500D01*
X44500D01*
Y253500D01*
X38500D01*
G37*
G36*
X56000Y277500D02*Y271500D01*
X34045D01*
X34042Y272243D01*
X34005Y272396D01*
X33945Y272542D01*
X33863Y272676D01*
X33760Y272796D01*
X33641Y272898D01*
X33506Y272980D01*
X33361Y273041D01*
X33208Y273077D01*
X33051Y273087D01*
X27000Y273078D01*
Y277500D01*
X56000D01*
G37*
G36*
Y230500D02*Y224500D01*
X38095D01*
X38092Y224505D01*
X37836Y224805D01*
X37537Y225060D01*
X37201Y225266D01*
X36838Y225416D01*
X36455Y225508D01*
X36063Y225539D01*
X35671Y225508D01*
X35288Y225416D01*
X34925Y225266D01*
X34589Y225060D01*
X34290Y224805D01*
X34056Y224532D01*
X34001D01*
X34000Y224535D01*
Y225465D01*
X34005Y225478D01*
X34042Y225631D01*
X34051Y225788D01*
X34042Y228306D01*
X34005Y228459D01*
X34000Y228472D01*
Y229402D01*
X34005Y229415D01*
X34042Y229568D01*
X34051Y229725D01*
X34048Y230500D01*
X56000D01*
G37*
G36*
X38500Y213500D02*Y218536D01*
X38540Y218702D01*
X38563Y219094D01*
X38540Y219487D01*
X38500Y219653D01*
Y222473D01*
X38540Y222639D01*
X38563Y223031D01*
X38540Y223424D01*
X38500Y223590D01*
Y227500D01*
X44500D01*
Y213500D01*
X38500D01*
G37*
G36*
X56000Y237500D02*Y231500D01*
X34045D01*
X34042Y232243D01*
X34005Y232396D01*
X33945Y232542D01*
X33863Y232676D01*
X33760Y232796D01*
X33641Y232898D01*
X33506Y232980D01*
X33361Y233041D01*
X33208Y233077D01*
X33051Y233087D01*
X27000Y233078D01*
Y237500D01*
X56000D01*
G37*
G36*
X11500Y238500D02*X25500D01*
Y228969D01*
X24508D01*
X24474Y228997D01*
X24138Y229203D01*
X23775Y229353D01*
X23392Y229445D01*
X23000Y229476D01*
X22608Y229445D01*
X22225Y229353D01*
X21862Y229203D01*
X21526Y228997D01*
X21227Y228742D01*
X20971Y228443D01*
X20766Y228107D01*
X20615Y227743D01*
X20523Y227361D01*
X20492Y226969D01*
X20523Y226576D01*
X20615Y226194D01*
X20766Y225830D01*
X20971Y225495D01*
X21227Y225195D01*
X21526Y224940D01*
X21862Y224734D01*
X22225Y224584D01*
X22608Y224492D01*
X23000Y224461D01*
X23392Y224492D01*
X23775Y224584D01*
X24138Y224734D01*
X24474Y224940D01*
X24508Y224969D01*
X25500D01*
Y211500D01*
X11500D01*
Y238500D01*
G37*
G36*
X56000Y190500D02*Y184500D01*
X38095D01*
X38092Y184505D01*
X37836Y184805D01*
X37537Y185060D01*
X37201Y185266D01*
X36838Y185416D01*
X36455Y185508D01*
X36063Y185539D01*
X35671Y185508D01*
X35288Y185416D01*
X34925Y185266D01*
X34589Y185060D01*
X34290Y184805D01*
X34056Y184532D01*
X34001D01*
X34000Y184535D01*
Y185465D01*
X34005Y185478D01*
X34042Y185631D01*
X34051Y185788D01*
X34042Y188306D01*
X34005Y188459D01*
X34000Y188472D01*
Y189402D01*
X34005Y189415D01*
X34042Y189568D01*
X34051Y189725D01*
X34048Y190500D01*
X56000D01*
G37*
G36*
X38500Y173500D02*Y178536D01*
X38540Y178702D01*
X38563Y179094D01*
X38540Y179487D01*
X38500Y179653D01*
Y182473D01*
X38540Y182639D01*
X38563Y183031D01*
X38540Y183424D01*
X38500Y183590D01*
Y187500D01*
X44500D01*
Y173500D01*
X38500D01*
G37*
G36*
X56000Y197500D02*Y191500D01*
X34045D01*
X34042Y192243D01*
X34005Y192396D01*
X33945Y192542D01*
X33863Y192676D01*
X33760Y192796D01*
X33641Y192898D01*
X33506Y192980D01*
X33361Y193041D01*
X33208Y193077D01*
X33051Y193087D01*
X27000Y193078D01*
Y197500D01*
X56000D01*
G37*
G36*
X11500Y198500D02*X25500D01*
Y188969D01*
X24508D01*
X24474Y188997D01*
X24138Y189203D01*
X23775Y189353D01*
X23392Y189445D01*
X23000Y189476D01*
X22608Y189445D01*
X22225Y189353D01*
X21862Y189203D01*
X21526Y188997D01*
X21227Y188742D01*
X20971Y188442D01*
X20766Y188107D01*
X20615Y187743D01*
X20523Y187361D01*
X20492Y186969D01*
X20523Y186576D01*
X20615Y186194D01*
X20766Y185830D01*
X20971Y185495D01*
X21227Y185195D01*
X21526Y184940D01*
X21862Y184734D01*
X22225Y184584D01*
X22608Y184492D01*
X23000Y184461D01*
X23392Y184492D01*
X23775Y184584D01*
X24138Y184734D01*
X24474Y184940D01*
X24508Y184969D01*
X25500D01*
Y171500D01*
X11500D01*
Y198500D01*
G37*
G36*
X119000Y333000D02*X111000D01*
Y337000D01*
X119000D01*
Y333000D01*
G37*
G36*
Y293000D02*X111000D01*
Y297000D01*
X119000D01*
Y293000D01*
G37*
G36*
Y253000D02*X111000D01*
Y257000D01*
X119000D01*
Y253000D01*
G37*
G36*
X132000Y358500D02*Y331500D01*
X120500D01*
Y340524D01*
X120892Y340555D01*
X121275Y340647D01*
X121638Y340797D01*
X121974Y341003D01*
X122273Y341258D01*
X122529Y341558D01*
X122734Y341893D01*
X122885Y342257D01*
X122977Y342639D01*
X123000Y343031D01*
X122977Y343424D01*
X122885Y343806D01*
X122734Y344170D01*
X122529Y344505D01*
X122273Y344805D01*
X121974Y345060D01*
X121638Y345266D01*
X121275Y345416D01*
X120892Y345508D01*
X120500Y345539D01*
Y358500D01*
X132000D01*
G37*
G36*
Y318500D02*Y291500D01*
X120500D01*
Y300524D01*
X120892Y300555D01*
X121275Y300647D01*
X121638Y300797D01*
X121974Y301003D01*
X122273Y301258D01*
X122529Y301558D01*
X122734Y301893D01*
X122885Y302257D01*
X122977Y302639D01*
X123000Y303031D01*
X122977Y303424D01*
X122885Y303806D01*
X122734Y304170D01*
X122529Y304505D01*
X122273Y304805D01*
X121974Y305060D01*
X121638Y305266D01*
X121275Y305416D01*
X120892Y305508D01*
X120500Y305539D01*
Y318500D01*
X132000D01*
G37*
G36*
Y278500D02*Y251500D01*
X120500D01*
Y260524D01*
X120892Y260555D01*
X121275Y260647D01*
X121638Y260797D01*
X121974Y261003D01*
X122273Y261258D01*
X122529Y261557D01*
X122734Y261893D01*
X122885Y262257D01*
X122977Y262639D01*
X123000Y263031D01*
X122977Y263424D01*
X122885Y263806D01*
X122734Y264170D01*
X122529Y264505D01*
X122273Y264805D01*
X121974Y265060D01*
X121638Y265266D01*
X121275Y265416D01*
X120892Y265508D01*
X120500Y265539D01*
Y278500D01*
X132000D01*
G37*
G36*
Y238500D02*Y211500D01*
X120500D01*
Y220524D01*
X120892Y220555D01*
X121275Y220647D01*
X121638Y220797D01*
X121974Y221003D01*
X122273Y221258D01*
X122529Y221557D01*
X122734Y221893D01*
X122885Y222257D01*
X122977Y222639D01*
X123000Y223031D01*
X122977Y223424D01*
X122885Y223806D01*
X122734Y224170D01*
X122529Y224505D01*
X122273Y224805D01*
X121974Y225060D01*
X121638Y225266D01*
X121275Y225416D01*
X120892Y225508D01*
X120500Y225539D01*
Y238500D01*
X132000D01*
G37*
G36*
Y198500D02*Y171500D01*
X120500D01*
Y180524D01*
X120892Y180555D01*
X121275Y180647D01*
X121638Y180797D01*
X121974Y181003D01*
X122273Y181258D01*
X122529Y181558D01*
X122734Y181893D01*
X122885Y182257D01*
X122977Y182639D01*
X123000Y183031D01*
X122977Y183424D01*
X122885Y183806D01*
X122734Y184170D01*
X122529Y184505D01*
X122273Y184805D01*
X121974Y185060D01*
X121638Y185266D01*
X121275Y185416D01*
X120892Y185508D01*
X120500Y185539D01*
Y198500D01*
X132000D01*
G37*
G36*
Y158500D02*Y131500D01*
X120500D01*
Y140524D01*
X120892Y140555D01*
X121275Y140647D01*
X121638Y140797D01*
X121974Y141003D01*
X122273Y141258D01*
X122529Y141558D01*
X122734Y141893D01*
X122885Y142257D01*
X122977Y142639D01*
X123000Y143031D01*
X122977Y143424D01*
X122885Y143806D01*
X122734Y144170D01*
X122529Y144505D01*
X122273Y144805D01*
X121974Y145060D01*
X121638Y145266D01*
X121275Y145416D01*
X120892Y145508D01*
X120500Y145539D01*
Y158500D01*
X132000D01*
G37*
G36*
X119000Y213000D02*X111000D01*
Y217000D01*
X119000D01*
Y213000D01*
G37*
G36*
Y173000D02*X111000D01*
Y177000D01*
X119000D01*
Y173000D01*
G37*
G36*
Y133000D02*X111000D01*
Y137000D01*
X119000D01*
Y133000D01*
G37*
G36*
Y93000D02*X111000D01*
Y97000D01*
X119000D01*
Y93000D01*
G37*
G36*
X132000Y118500D02*Y91500D01*
X120500D01*
Y100524D01*
X120892Y100555D01*
X121275Y100647D01*
X121638Y100797D01*
X121974Y101003D01*
X122273Y101258D01*
X122529Y101558D01*
X122734Y101893D01*
X122885Y102257D01*
X122977Y102639D01*
X123000Y103031D01*
X122977Y103424D01*
X122885Y103806D01*
X122734Y104170D01*
X122529Y104505D01*
X122273Y104805D01*
X121974Y105060D01*
X121638Y105266D01*
X121275Y105416D01*
X120892Y105508D01*
X120500Y105539D01*
Y118500D01*
X132000D01*
G37*
G36*
X119000Y53000D02*X111000D01*
Y57000D01*
X119000D01*
Y53000D01*
G37*
G36*
Y13000D02*X111000D01*
Y17000D01*
X119000D01*
Y13000D01*
G37*
G36*
X132000Y78500D02*Y51500D01*
X120500D01*
Y60524D01*
X120892Y60555D01*
X121275Y60647D01*
X121638Y60797D01*
X121974Y61003D01*
X122273Y61258D01*
X122529Y61558D01*
X122734Y61893D01*
X122885Y62257D01*
X122977Y62639D01*
X123000Y63031D01*
X122977Y63424D01*
X122885Y63806D01*
X122734Y64170D01*
X122529Y64505D01*
X122273Y64805D01*
X121974Y65060D01*
X121638Y65266D01*
X121275Y65416D01*
X120892Y65508D01*
X120500Y65539D01*
Y78500D01*
X132000D01*
G37*
G36*
Y38500D02*Y11500D01*
X120500D01*
Y20524D01*
X120892Y20555D01*
X121275Y20647D01*
X121638Y20797D01*
X121974Y21003D01*
X122273Y21258D01*
X122529Y21558D01*
X122734Y21893D01*
X122885Y22257D01*
X122977Y22639D01*
X123000Y23031D01*
X122977Y23424D01*
X122885Y23806D01*
X122734Y24170D01*
X122529Y24505D01*
X122273Y24805D01*
X121974Y25060D01*
X121638Y25266D01*
X121275Y25416D01*
X120892Y25508D01*
X120500Y25539D01*
Y38500D01*
X132000D01*
G37*
G36*
X56000Y150500D02*Y144500D01*
X38095D01*
X38092Y144505D01*
X37836Y144805D01*
X37537Y145060D01*
X37201Y145266D01*
X36838Y145416D01*
X36455Y145508D01*
X36063Y145539D01*
X35671Y145508D01*
X35288Y145416D01*
X34925Y145266D01*
X34589Y145060D01*
X34290Y144805D01*
X34056Y144532D01*
X34001D01*
X34000Y144535D01*
Y145465D01*
X34005Y145478D01*
X34042Y145631D01*
X34051Y145788D01*
X34042Y148306D01*
X34005Y148459D01*
X34000Y148472D01*
Y149402D01*
X34005Y149415D01*
X34042Y149568D01*
X34051Y149725D01*
X34048Y150500D01*
X56000D01*
G37*
G36*
X38500Y133500D02*Y138536D01*
X38540Y138702D01*
X38563Y139094D01*
X38540Y139487D01*
X38500Y139653D01*
Y142473D01*
X38540Y142639D01*
X38563Y143031D01*
X38540Y143424D01*
X38500Y143590D01*
Y147500D01*
X44500D01*
Y133500D01*
X38500D01*
G37*
G36*
X56000Y157500D02*Y151500D01*
X34045D01*
X34042Y152243D01*
X34005Y152396D01*
X33945Y152542D01*
X33863Y152676D01*
X33760Y152796D01*
X33641Y152898D01*
X33506Y152980D01*
X33361Y153041D01*
X33208Y153077D01*
X33051Y153087D01*
X27000Y153078D01*
Y157500D01*
X56000D01*
G37*
G36*
X11500Y158500D02*X25500D01*
Y148969D01*
X24508D01*
X24474Y148997D01*
X24138Y149203D01*
X23775Y149353D01*
X23392Y149445D01*
X23000Y149476D01*
X22608Y149445D01*
X22225Y149353D01*
X21862Y149203D01*
X21526Y148997D01*
X21227Y148742D01*
X20971Y148442D01*
X20766Y148107D01*
X20615Y147743D01*
X20523Y147361D01*
X20492Y146969D01*
X20523Y146576D01*
X20615Y146194D01*
X20766Y145830D01*
X20971Y145495D01*
X21227Y145195D01*
X21526Y144940D01*
X21862Y144734D01*
X22225Y144584D01*
X22608Y144492D01*
X23000Y144461D01*
X23392Y144492D01*
X23775Y144584D01*
X24138Y144734D01*
X24474Y144940D01*
X24508Y144969D01*
X25500D01*
Y131500D01*
X11500D01*
Y158500D01*
G37*
G36*
X56000Y110500D02*Y104500D01*
X38095D01*
X38092Y104505D01*
X37836Y104805D01*
X37537Y105060D01*
X37201Y105266D01*
X36838Y105416D01*
X36455Y105508D01*
X36063Y105539D01*
X35671Y105508D01*
X35288Y105416D01*
X34925Y105266D01*
X34589Y105060D01*
X34290Y104805D01*
X34056Y104532D01*
X34001D01*
X34000Y104535D01*
Y105465D01*
X34005Y105478D01*
X34042Y105631D01*
X34051Y105788D01*
X34042Y108306D01*
X34005Y108459D01*
X34000Y108472D01*
Y109402D01*
X34005Y109415D01*
X34042Y109568D01*
X34051Y109725D01*
X34048Y110500D01*
X56000D01*
G37*
G36*
X38500Y93500D02*Y98536D01*
X38540Y98702D01*
X38563Y99094D01*
X38540Y99487D01*
X38500Y99653D01*
Y102473D01*
X38540Y102639D01*
X38563Y103031D01*
X38540Y103424D01*
X38500Y103590D01*
Y107500D01*
X44500D01*
Y93500D01*
X38500D01*
G37*
G36*
X56000Y117500D02*Y111500D01*
X34045D01*
X34042Y112243D01*
X34005Y112396D01*
X33945Y112542D01*
X33863Y112676D01*
X33760Y112796D01*
X33641Y112898D01*
X33506Y112980D01*
X33361Y113041D01*
X33208Y113077D01*
X33051Y113087D01*
X27000Y113078D01*
Y117500D01*
X56000D01*
G37*
G36*
X11500Y118500D02*X25500D01*
Y108969D01*
X24508D01*
X24474Y108997D01*
X24138Y109203D01*
X23775Y109353D01*
X23392Y109445D01*
X23000Y109476D01*
X22608Y109445D01*
X22225Y109353D01*
X21862Y109203D01*
X21526Y108997D01*
X21227Y108742D01*
X20971Y108442D01*
X20766Y108107D01*
X20615Y107743D01*
X20523Y107361D01*
X20492Y106969D01*
X20523Y106576D01*
X20615Y106194D01*
X20766Y105830D01*
X20971Y105495D01*
X21227Y105195D01*
X21526Y104940D01*
X21862Y104734D01*
X22225Y104584D01*
X22608Y104492D01*
X23000Y104461D01*
X23392Y104492D01*
X23775Y104584D01*
X24138Y104734D01*
X24474Y104940D01*
X24508Y104969D01*
X25500D01*
Y91500D01*
X11500D01*
Y118500D01*
G37*
G36*
X56000Y70500D02*Y64500D01*
X38095D01*
X38092Y64505D01*
X37836Y64805D01*
X37537Y65060D01*
X37201Y65266D01*
X36838Y65416D01*
X36455Y65508D01*
X36063Y65539D01*
X35671Y65508D01*
X35288Y65416D01*
X34925Y65266D01*
X34589Y65060D01*
X34290Y64805D01*
X34056Y64532D01*
X34001D01*
X34000Y64535D01*
Y65465D01*
X34005Y65478D01*
X34042Y65631D01*
X34051Y65788D01*
X34042Y68306D01*
X34005Y68459D01*
X34000Y68472D01*
Y69402D01*
X34005Y69415D01*
X34042Y69568D01*
X34051Y69725D01*
X34048Y70500D01*
X56000D01*
G37*
G36*
X38500Y53500D02*Y58536D01*
X38540Y58702D01*
X38563Y59094D01*
X38540Y59487D01*
X38500Y59653D01*
Y62473D01*
X38540Y62639D01*
X38563Y63031D01*
X38540Y63424D01*
X38500Y63590D01*
Y67500D01*
X44500D01*
Y53500D01*
X38500D01*
G37*
G36*
X56000Y77500D02*Y71500D01*
X34045D01*
X34042Y72243D01*
X34005Y72396D01*
X33945Y72542D01*
X33863Y72676D01*
X33760Y72796D01*
X33641Y72898D01*
X33506Y72980D01*
X33361Y73041D01*
X33208Y73077D01*
X33051Y73087D01*
X27000Y73078D01*
Y77500D01*
X56000D01*
G37*
G36*
X11500Y78500D02*X25500D01*
Y68969D01*
X24508D01*
X24474Y68997D01*
X24138Y69203D01*
X23775Y69353D01*
X23392Y69445D01*
X23000Y69476D01*
X22608Y69445D01*
X22225Y69353D01*
X21862Y69203D01*
X21526Y68997D01*
X21227Y68742D01*
X20971Y68442D01*
X20766Y68107D01*
X20615Y67743D01*
X20523Y67361D01*
X20492Y66969D01*
X20523Y66576D01*
X20615Y66194D01*
X20766Y65830D01*
X20971Y65495D01*
X21227Y65195D01*
X21526Y64940D01*
X21862Y64734D01*
X22225Y64584D01*
X22608Y64492D01*
X23000Y64461D01*
X23392Y64492D01*
X23775Y64584D01*
X24138Y64734D01*
X24474Y64940D01*
X24508Y64969D01*
X25500D01*
Y51500D01*
X11500D01*
Y78500D01*
G37*
G36*
X56000Y30500D02*Y24500D01*
X38095D01*
X38092Y24505D01*
X37836Y24805D01*
X37537Y25060D01*
X37201Y25266D01*
X36838Y25416D01*
X36455Y25508D01*
X36063Y25539D01*
X35671Y25508D01*
X35288Y25416D01*
X34925Y25266D01*
X34589Y25060D01*
X34290Y24805D01*
X34056Y24532D01*
X34001D01*
X34000Y24535D01*
Y25465D01*
X34005Y25478D01*
X34042Y25631D01*
X34051Y25788D01*
X34042Y28306D01*
X34005Y28459D01*
X34000Y28472D01*
Y29402D01*
X34005Y29415D01*
X34042Y29568D01*
X34051Y29725D01*
X34048Y30500D01*
X56000D01*
G37*
G36*
X38500Y13500D02*Y18536D01*
X38540Y18702D01*
X38563Y19094D01*
X38540Y19487D01*
X38500Y19653D01*
Y22473D01*
X38540Y22639D01*
X38563Y23031D01*
X38540Y23424D01*
X38500Y23590D01*
Y27500D01*
X44500D01*
Y13500D01*
X38500D01*
G37*
G36*
X56000Y37500D02*Y31500D01*
X34045D01*
X34042Y32243D01*
X34005Y32396D01*
X33945Y32542D01*
X33863Y32676D01*
X33760Y32796D01*
X33641Y32898D01*
X33506Y32980D01*
X33361Y33041D01*
X33208Y33077D01*
X33051Y33087D01*
X27000Y33078D01*
Y37500D01*
X56000D01*
G37*
G36*
X11500Y38500D02*X25500D01*
Y28969D01*
X24508D01*
X24474Y28997D01*
X24138Y29203D01*
X23775Y29353D01*
X23392Y29445D01*
X23000Y29476D01*
X22608Y29445D01*
X22225Y29353D01*
X21862Y29203D01*
X21526Y28997D01*
X21227Y28742D01*
X20971Y28442D01*
X20766Y28107D01*
X20615Y27743D01*
X20523Y27361D01*
X20492Y26969D01*
X20523Y26576D01*
X20615Y26194D01*
X20766Y25830D01*
X20971Y25495D01*
X21227Y25195D01*
X21526Y24940D01*
X21862Y24734D01*
X22225Y24584D01*
X22608Y24492D01*
X23000Y24461D01*
X23392Y24492D01*
X23775Y24584D01*
X24138Y24734D01*
X24474Y24940D01*
X24508Y24969D01*
X25500D01*
Y11500D01*
X11500D01*
Y38500D01*
G37*
G54D12*X30000Y379094D02*X36063D01*
X30000Y383031D02*X36063D01*
X30000Y386969D02*X37000D01*
X30000Y390906D02*Y395000D01*
G54D13*X23000Y386969D02*X30000D01*
G54D12*Y346969D02*X37000D01*
X30000Y350906D02*Y355000D01*
G54D13*X23000Y346969D02*X30000D01*
G54D12*X62952Y394937D02*X52500D01*
X62952Y389031D02*X52500D01*
X48543Y376500D02*X56457D01*
X59500Y384500D02*X57457Y382457D01*
Y376500D01*
X64543D02*X69000D01*
X70500Y379500D02*X91000D01*
X90500Y390500D02*X108500D01*
X89000Y388500D02*X107500D01*
X108500Y390500D02*X108906Y390906D01*
X107500Y393500D02*X102543D01*
X108906Y390906D02*X113500D01*
X107500Y388500D02*X109031Y386969D01*
X113500D01*
X111031Y383031D02*X113500D01*
G54D13*X120500D01*
G54D12*X95457Y384000D02*Y375000D01*
X102543D02*X107500D01*
X102543Y384000D02*X107500D01*
X95457Y379457D02*X107457D01*
X111031Y383031D01*
X115000Y375000D02*Y379094D01*
X89000Y388500D02*X86500Y391000D01*
X80048D01*
X90500Y390500D02*X88031Y392969D01*
X80048D01*
X71062Y397000D02*X95457D01*
X80000Y394937D02*X72937D01*
X71500Y393500D01*
X80000Y389031D02*X76031D01*
X75000Y388000D01*
X63000Y387063D02*Y389031D01*
Y391000D02*X65500D01*
Y384500D02*X59500D01*
X63000Y392969D02*X67031D01*
X68500Y391500D01*
X65500Y391000D02*X66500Y390000D01*
Y385500D01*
X65500Y384500D01*
X67031Y392969D02*X71062Y397000D01*
X68500Y391500D02*Y381500D01*
X70500Y379500D01*
X71500Y393500D02*Y382500D01*
X75000Y388000D02*Y384000D01*
X62952Y354937D02*X52500D01*
X62952Y349031D02*X52500D01*
X63000Y351000D02*X65500D01*
X66500Y350000D01*
X63000Y352969D02*X67031D01*
X68500Y351500D01*
X67031Y352969D02*X71062Y357000D01*
X63000Y347063D02*Y349031D01*
X66500Y350000D02*Y345500D01*
X65500Y344500D01*
X48543Y336500D02*X56457D01*
X64543D02*X69000D01*
X65500Y344500D02*X59500D01*
X57457Y342457D01*
Y336500D01*
X68500Y351500D02*Y341500D01*
X70500Y339500D01*
X91000D01*
X89000Y348500D02*X86500Y351000D01*
X80048D01*
X90500Y350500D02*X88031Y352969D01*
X80048D01*
X80000Y349031D02*X76031D01*
X75000Y348000D01*
X71062Y357000D02*X95457D01*
X80000Y354937D02*X72937D01*
X71500Y353500D01*
Y342500D01*
X75000Y348000D02*Y344000D01*
X90500Y350500D02*X108500D01*
X108906Y350906D01*
X107500Y348500D02*X109031Y346969D01*
X107500Y353500D02*X102543D01*
X108906Y350906D02*X113500D01*
X109031Y346969D02*X113500D01*
X89000Y348500D02*X107500D01*
X95457Y344000D02*Y335000D01*
X102543D02*X107500D01*
X102543Y344000D02*X107500D01*
X95457Y339457D02*X107457D01*
X111031Y343031D01*
X115000Y335000D02*Y339094D01*
X111031Y343031D02*X113500D01*
G54D13*X120500D01*
G54D12*X89000Y308500D02*X86500Y311000D01*
X90500Y310500D02*X88031Y312969D01*
X86500Y311000D02*X80048D01*
X88031Y312969D02*X80048D01*
X80000Y309031D02*X76031D01*
X75000Y308000D01*
X90500Y310500D02*X108500D01*
X108906Y310906D01*
X113500D01*
X89000Y308500D02*X107500D01*
X109031Y306969D01*
X113500D01*
X71062Y317000D02*X95457D01*
X107500Y313500D02*X102543D01*
X80000Y314937D02*X72937D01*
X71500Y313500D01*
X48543Y416500D02*X56457D01*
X30000Y419094D02*X36063D01*
X30000Y423031D02*X36063D01*
X30000Y426969D02*X37000D01*
X30000Y430906D02*Y435000D01*
G54D13*X23000Y426969D02*X30000D01*
G54D12*X62952Y434937D02*X52500D01*
X62952Y429031D02*X52500D01*
X63000Y427063D02*Y429031D01*
X59500Y424500D02*X57457Y422457D01*
Y416500D01*
X89000Y428500D02*X86500Y431000D01*
X80048D01*
X90500Y430500D02*X88031Y432969D01*
X80048D01*
X71062Y437000D02*X95457D01*
X80000Y434937D02*X72937D01*
X71500Y433500D01*
X80000Y429031D02*X76031D01*
X75000Y428000D01*
X63000Y432969D02*X67031D01*
X68500Y431500D01*
X63000Y431000D02*X65500D01*
X66500Y430000D01*
X65500Y424500D02*X59500D01*
X67031Y432969D02*X71062Y437000D01*
X66500Y430000D02*Y425500D01*
X65500Y424500D01*
X68500Y431500D02*Y421500D01*
X71500Y433500D02*Y422500D01*
X75000Y428000D02*Y424000D01*
X63000Y471000D02*X65500D01*
X63000Y472969D02*X67031D01*
X68500Y471500D01*
X65500Y471000D02*X66500Y470000D01*
X80000Y469031D02*X76031D01*
X75000Y468000D01*
X66500Y470000D02*Y465500D01*
X64543Y456500D02*X69000D01*
X68500Y471500D02*Y461500D01*
X70500Y459500D01*
X71500Y473500D02*Y462500D01*
X75000Y468000D02*Y464000D01*
X66500Y465500D02*X65500Y464500D01*
X59500D01*
X57457Y462457D01*
X70500Y459500D02*X91000D01*
X67031Y472969D02*X71062Y477000D01*
X72937Y474937D02*X71500Y473500D01*
X71062Y477000D02*X95457D01*
X80000Y474937D02*X72937D01*
X48543Y456500D02*X56457D01*
X30000Y459094D02*X36063D01*
X30000Y463031D02*X36063D01*
X30000Y466969D02*X37000D01*
X57457Y462457D02*Y456500D01*
X62952Y474937D02*X52500D01*
X62952Y469031D02*X52500D01*
X63000Y467063D02*Y469031D01*
X30000Y470906D02*Y475000D01*
G54D13*X23000Y466969D02*X30000D01*
G54D12*X95457Y464000D02*Y455000D01*
X102543D02*X107500D01*
X102543Y464000D02*X107500D01*
X95457Y459457D02*X107457D01*
X111031Y463031D01*
X115000Y455000D02*Y459094D01*
X89000Y468500D02*X86500Y471000D01*
X80048D01*
X90500Y470500D02*X88031Y472969D01*
X80048D01*
X90500Y470500D02*X108500D01*
X108906Y470906D01*
X113500D01*
X107500Y473500D02*X102543D01*
X89000Y468500D02*X107500D01*
X109031Y466969D01*
X113500D01*
X111031Y463031D02*X113500D01*
G54D13*X120500D01*
G54D12*X64543Y416500D02*X69000D01*
X68500Y421500D02*X70500Y419500D01*
X91000D01*
X90500Y430500D02*X108500D01*
X89000Y428500D02*X107500D01*
X108500Y430500D02*X108906Y430906D01*
X107500Y433500D02*X102543D01*
X108906Y430906D02*X113500D01*
X107500Y428500D02*X109031Y426969D01*
X113500D01*
X111031Y423031D02*X113500D01*
G54D13*X120500D01*
G54D12*X95457Y424000D02*Y415000D01*
X102543D02*X107500D01*
X102543Y424000D02*X107500D01*
X95457Y419457D02*X107457D01*
X111031Y423031D01*
X115000Y415000D02*Y419094D01*
X62952Y314937D02*X52500D01*
X62952Y309031D02*X52500D01*
X63000Y307063D02*Y309031D01*
Y311000D02*X65500D01*
X66500Y310000D01*
Y305500D01*
X63000Y312969D02*X67031D01*
X68500Y311500D01*
Y301500D01*
X67031Y312969D02*X71062Y317000D01*
X71500Y313500D02*Y302500D01*
X75000Y308000D02*Y304000D01*
X48543Y296500D02*X56457D01*
X66500Y305500D02*X65500Y304500D01*
X59500D01*
X57457Y302457D02*Y296500D01*
X64543D02*X69000D01*
X68500Y301500D02*X70500Y299500D01*
X91000D01*
X95457Y304000D02*Y295000D01*
X102543D02*X107500D01*
X102543Y304000D02*X107500D01*
X95457Y299457D02*X107457D01*
X111031Y303031D01*
X113500D01*
G54D13*X120500D01*
G54D12*X115000Y295000D02*Y299094D01*
X70500Y259500D02*X91000D01*
X89000Y268500D02*X86500Y271000D01*
X80048D01*
X90500Y270500D02*X88031Y272969D01*
X80048D01*
X67031D02*X71062Y277000D01*
X95457D01*
X80000Y274937D02*X72937D01*
X71500Y273500D01*
Y262500D01*
X80000Y269031D02*X76031D01*
X75000Y268000D01*
Y264000D01*
X95457D02*Y255000D01*
X102543Y264000D02*X107500D01*
X95457Y259457D02*X107457D01*
X90500Y270500D02*X108500D01*
X89000Y268500D02*X107500D01*
X108500Y270500D02*X108906Y270906D01*
X107500Y268500D02*X109031Y266969D01*
X107500Y273500D02*X102543D01*
X108906Y270906D02*X113500D01*
X109031Y266969D02*X113500D01*
G54D13*Y263031D02*X120500D01*
G54D12*X102543Y255000D02*X107500D01*
X107457Y259457D02*X111031Y263031D01*
X113500D01*
X115000Y255000D02*Y259094D01*
X30000Y339094D02*X36063D01*
X30000Y299094D02*X36063D01*
X30000Y303031D02*X36063D01*
X30000Y306969D02*X37000D01*
X30000Y310906D02*Y315000D01*
G54D13*X23000Y306969D02*X30000D01*
G54D12*Y343031D02*X36063D01*
X59500Y304500D02*X57457Y302457D01*
X62952Y274937D02*X52500D01*
X62952Y269031D02*X52500D01*
X48543Y256500D02*X56457D01*
X59500Y264500D02*X57457Y262457D01*
Y256500D01*
X68500Y261500D02*X70500Y259500D01*
X63000Y267063D02*Y269031D01*
X66500Y270000D02*Y265500D01*
X65500Y264500D01*
X59500D01*
X63000Y271000D02*X65500D01*
X66500Y270000D01*
X63000Y272969D02*X67031D01*
X68500Y271500D01*
Y261500D01*
X64543Y256500D02*X69000D01*
X67031Y232969D02*X71062Y237000D01*
X62952Y234937D02*X52500D01*
X62952Y229031D02*X52500D01*
X63000Y227063D02*Y229031D01*
Y231000D02*X65500D01*
X66500Y230000D01*
Y225500D01*
X63000Y232969D02*X67031D01*
X68500Y231500D01*
Y221500D01*
X71500Y233500D02*Y222500D01*
X75000Y228000D02*Y224000D01*
X48543Y216500D02*X56457D01*
X64543D02*X69000D01*
X66500Y225500D02*X65500Y224500D01*
X59500D01*
X57457Y222457D01*
Y216500D01*
X89000Y228500D02*X86500Y231000D01*
X90500Y230500D02*X88031Y232969D01*
X86500Y231000D02*X80048D01*
X88031Y232969D02*X80048D01*
X80000Y229031D02*X76031D01*
X75000Y228000D01*
X90500Y230500D02*X108500D01*
X108906Y230906D01*
X113500D01*
X89000Y228500D02*X107500D01*
X109031Y226969D01*
X113500D01*
X71062Y237000D02*X95457D01*
X107500Y233500D02*X102543D01*
X80000Y234937D02*X72937D01*
X71500Y233500D01*
X68500Y221500D02*X70500Y219500D01*
X91000D01*
X95457Y224000D02*Y215000D01*
X102543D02*X107500D01*
X102543Y224000D02*X107500D01*
X95457Y219457D02*X107457D01*
X111031Y223031D01*
X113500D01*
G54D13*X120500D01*
G54D12*X115000Y215000D02*Y219094D01*
X30000Y259094D02*X36063D01*
X30000Y219094D02*X36063D01*
X30000Y223031D02*X36063D01*
X30000Y226969D02*X37000D01*
X30000Y230906D02*Y235000D01*
G54D13*X23000Y226969D02*X30000D01*
G54D12*Y263031D02*X36063D01*
X30000Y266969D02*X37000D01*
G54D13*X23000D02*X30000D01*
G54D12*Y270906D02*Y275000D01*
X70500Y179500D02*X91000D01*
X89000Y188500D02*X86500Y191000D01*
X80048D01*
X90500Y190500D02*X88031Y192969D01*
X80048D01*
X71062Y197000D02*X95457D01*
X80000Y194937D02*X72937D01*
X71500Y193500D01*
Y182500D01*
X80000Y189031D02*X76031D01*
X75000Y188000D01*
Y184000D01*
X95457D02*Y175000D01*
X102543D02*X107500D01*
X95457Y179457D02*X107457D01*
X115000Y175000D02*Y179094D01*
X90500Y190500D02*X108500D01*
X108906Y190906D01*
X107500Y188500D02*X109031Y186969D01*
X107500Y193500D02*X102543D01*
X108906Y190906D02*X113500D01*
X109031Y186969D02*X113500D01*
X89000Y188500D02*X107500D01*
X102543Y184000D02*X107500D01*
X107457Y179457D02*X111031Y183031D01*
X113500D01*
G54D13*X120500D01*
G54D12*X70500Y139500D02*X91000D01*
X89000Y148500D02*X86500Y151000D01*
X80048D01*
X80000Y149031D02*X76031D01*
X75000Y148000D01*
Y144000D01*
X90500Y150500D02*X88031Y152969D01*
X80048D01*
X71062Y157000D02*X95457D01*
X80000Y154937D02*X72937D01*
X71500Y153500D01*
Y142500D01*
X90500Y150500D02*X108500D01*
X95457Y144000D02*Y135000D01*
X102543Y144000D02*X107500D01*
X89000Y148500D02*X107500D01*
X95457Y139457D02*X107457D01*
X108500Y150500D02*X108906Y150906D01*
X107500Y153500D02*X102543D01*
X108906Y150906D02*X113500D01*
X107500Y148500D02*X109031Y146969D01*
X113500D01*
X111031Y143031D02*X113500D01*
G54D13*X120500D01*
G54D12*X102543Y135000D02*X107500D01*
X107457Y139457D02*X111031Y143031D01*
X115000Y135000D02*Y139094D01*
X62952Y194937D02*X52500D01*
X62952Y189031D02*X52500D01*
X63000Y187063D02*Y189031D01*
Y191000D02*X65500D01*
X66500Y190000D01*
Y185500D01*
X63000Y192969D02*X67031D01*
X68500Y191500D01*
Y181500D01*
X67031Y192969D02*X71062Y197000D01*
X48543Y176500D02*X56457D01*
X64543D02*X69000D01*
X66500Y185500D02*X65500Y184500D01*
X59500D01*
X57457Y182457D01*
Y176500D01*
X68500Y181500D02*X70500Y179500D01*
X30000Y179094D02*X36063D01*
X30000Y139094D02*X36063D01*
X30000Y143031D02*X36063D01*
X30000Y146969D02*X37000D01*
X30000Y150906D02*Y155000D01*
G54D13*X23000Y146969D02*X30000D01*
G54D12*Y183031D02*X36063D01*
X30000Y186969D02*X37000D01*
X30000Y190906D02*Y195000D01*
G54D13*X23000Y186969D02*X30000D01*
G54D12*Y99094D02*X36063D01*
X30000Y59094D02*X36063D01*
X30000Y63031D02*X36063D01*
X30000Y66969D02*X37000D01*
X30000Y70906D02*Y75000D01*
G54D13*X23000Y66969D02*X30000D01*
G54D12*Y103031D02*X36063D01*
X30000Y106969D02*X37000D01*
G54D13*X23000D02*X30000D01*
G54D12*Y110906D02*Y115000D01*
X62952Y154937D02*X52500D01*
X62952Y149031D02*X52500D01*
X63000Y147063D02*Y149031D01*
Y151000D02*X65500D01*
X66500Y150000D01*
Y145500D01*
X63000Y152969D02*X67031D01*
X68500Y151500D01*
Y141500D01*
X67031Y152969D02*X71062Y157000D01*
X48543Y136500D02*X56457D01*
X64543D02*X69000D01*
X66500Y145500D02*X65500Y144500D01*
X59500D01*
X57457Y142457D01*
Y136500D01*
X68500Y141500D02*X70500Y139500D01*
X62952Y114937D02*X52500D01*
X62952Y109031D02*X52500D01*
X63000Y107063D02*Y109031D01*
Y111000D02*X65500D01*
X66500Y110000D01*
Y105500D01*
X63000Y112969D02*X67031D01*
X71500Y113500D02*Y102500D01*
X75000Y108000D02*Y104000D01*
X48543Y96500D02*X56457D01*
X64543D02*X69000D01*
X66500Y105500D02*X65500Y104500D01*
X59500D01*
X57457Y102457D01*
Y96500D01*
X89000Y108500D02*X86500Y111000D01*
X80048D01*
X89000Y108500D02*X107500D01*
X80000Y109031D02*X76031D01*
X75000Y108000D01*
X90500Y110500D02*X88031Y112969D01*
X80048D01*
X90500Y110500D02*X108500D01*
X108906Y110906D01*
X113500D01*
X107500Y108500D02*X109031Y106969D01*
X113500D01*
X107500Y113500D02*X102543D01*
X71062Y117000D02*X95457D01*
X80000Y114937D02*X72937D01*
X71500Y113500D01*
X70500Y99500D02*X91000D01*
X95457Y104000D02*Y95000D01*
X102543D02*X107500D01*
X102543Y104000D02*X107500D01*
X95457Y99457D02*X107457D01*
X111031Y103031D01*
X113500D01*
G54D13*X120500D01*
G54D12*X115000Y95000D02*Y99094D01*
X95457Y64000D02*Y55000D01*
X102543D02*X107500D01*
X95457Y59457D02*X107457D01*
X108500Y70500D02*X108906Y70906D01*
X113500D01*
X107500Y68500D02*X109031Y66969D01*
X113500D01*
X107457Y59457D02*X111031Y63031D01*
X115000Y55000D02*Y59094D01*
X111031Y63031D02*X113500D01*
G54D13*X120500D01*
G54D12*X70500Y59500D02*X91000D01*
X102543Y64000D02*X107500D01*
X90500Y70500D02*X108500D01*
X89000Y68500D02*X107500D01*
Y73500D02*X102543D01*
X89000Y68500D02*X86500Y71000D01*
X80048D01*
X90500Y70500D02*X88031Y72969D01*
X80048D01*
X71062Y77000D02*X95457D01*
X80000Y74937D02*X72937D01*
X71500Y73500D01*
Y62500D01*
X80000Y69031D02*X76031D01*
X75000Y68000D01*
Y64000D01*
X67031Y112969D02*X68500Y111500D01*
Y101500D01*
X70500Y99500D01*
X67031Y112969D02*X71062Y117000D01*
X62952Y74937D02*X52500D01*
X62952Y69031D02*X52500D01*
X63000Y67063D02*Y69031D01*
X48543Y56500D02*X56457D01*
X64543D02*X69000D01*
X63000Y71000D02*X65500D01*
X63000Y72969D02*X67031D01*
X68500Y71500D01*
X65500Y71000D02*X66500Y70000D01*
Y65500D01*
X65500Y64500D01*
X68500Y71500D02*Y61500D01*
X70500Y59500D01*
X67031Y72969D02*X71062Y77000D01*
X65500Y64500D02*X59500D01*
X57457Y62457D01*
Y56500D01*
X62952Y34937D02*X52500D01*
X62952Y29031D02*X52500D01*
X63000Y31000D02*X65500D01*
X66500Y30000D01*
Y25500D01*
X65500Y24500D01*
X63000Y32969D02*X67031D01*
X68500Y31500D01*
X67031Y32969D02*X71062Y37000D01*
X68500Y31500D02*Y21500D01*
X30000Y19094D02*X36063D01*
X30000Y23031D02*X36063D01*
X30000Y26969D02*X37000D01*
X30000Y30906D02*Y35000D01*
G54D13*X23000Y26969D02*X30000D01*
G54D12*X63000Y27063D02*Y29031D01*
X48543Y16500D02*X56457D01*
X65500Y24500D02*X59500D01*
X57457Y22457D01*
Y16500D01*
X64543D02*X69000D01*
X68500Y21500D02*X70500Y19500D01*
X91000D01*
X89000Y28500D02*X86500Y31000D01*
X80048D01*
X80000Y29031D02*X76031D01*
X75000Y28000D01*
Y24000D01*
X90500Y30500D02*X88031Y32969D01*
X80048D01*
X71062Y37000D02*X95457D01*
X80000Y34937D02*X72937D01*
X71500Y33500D01*
Y22500D01*
X95457Y24000D02*Y15000D01*
X90500Y30500D02*X108500D01*
X89000Y28500D02*X107500D01*
X108500Y30500D02*X108906Y30906D01*
X107500Y33500D02*X102543D01*
X108906Y30906D02*X113500D01*
X109031Y26969D02*X113500D01*
X102543Y15000D02*X107500D01*
X102543Y24000D02*X107500D01*
Y28500D02*X109031Y26969D01*
X95457Y19457D02*X107457D01*
X111031Y23031D01*
X115000Y15000D02*Y19094D01*
X111031Y23031D02*X113500D01*
G54D13*X120500D01*
G54D14*X78898Y427063D02*X81197D01*
G54D15*X79500D02*X80500D01*
G54D14*X78898Y429031D02*X81197D01*
X78898Y431000D02*X81197D01*
G54D15*X79500Y429031D02*X80500D01*
X79500Y431000D02*X80500D01*
G54D14*X78898Y432969D02*X81197D01*
X78898Y434937D02*X81197D01*
G54D15*X79500Y432969D02*X80500D01*
X79500Y434937D02*X80500D01*
G54D14*X78898Y391000D02*X81197D01*
X78898Y392969D02*X81197D01*
X78898Y394937D02*X81197D01*
G54D15*X79500Y391000D02*X80500D01*
X79500Y392969D02*X80500D01*
X79500Y394937D02*X80500D01*
G54D16*X111630Y419094D02*X115370D01*
X111630Y423031D02*X115370D01*
X111630Y426969D02*X115370D01*
X111630Y430906D02*X115370D01*
G54D17*X127575Y413976D02*X129937D01*
X127575Y436024D02*X129937D01*
G54D18*X95457Y435393D02*Y434607D01*
X102543Y435393D02*Y434607D01*
X95457Y424393D02*Y423607D01*
X102543Y424393D02*Y423607D01*
X95457Y415393D02*Y414607D01*
X102543Y415393D02*Y414607D01*
X95457Y395393D02*Y394607D01*
X102543Y395393D02*Y394607D01*
X95457Y384393D02*Y383607D01*
Y375393D02*Y374607D01*
X102543Y384393D02*Y383607D01*
Y375393D02*Y374607D01*
G54D16*X111630Y379094D02*X115370D01*
X111630Y383031D02*X115370D01*
X111630Y386969D02*X115370D01*
X111630Y390906D02*X115370D01*
G54D17*X127575Y373976D02*X129937D01*
X127575Y356024D02*X129937D01*
X127575Y396024D02*X129937D01*
G54D14*X78898Y387063D02*X81197D01*
G54D15*X79500D02*X80500D01*
G54D14*X78898Y389031D02*X81197D01*
G54D15*X79500D02*X80500D01*
G54D14*X78898Y351000D02*X81197D01*
X78898Y352969D02*X81197D01*
X78898Y354937D02*X81197D01*
G54D15*X79500Y351000D02*X80500D01*
X79500Y352969D02*X80500D01*
X79500Y354937D02*X80500D01*
G54D18*X95457Y355393D02*Y354607D01*
X102543Y355393D02*Y354607D01*
X95457Y344393D02*Y343607D01*
Y335393D02*Y334607D01*
X102543Y344393D02*Y343607D01*
Y335393D02*Y334607D01*
G54D14*X61803Y394937D02*X64102D01*
G54D15*X62500D02*X63500D01*
G54D14*X61803Y392969D02*X64102D01*
G54D15*X62500D02*X63500D01*
G54D14*X61803Y391000D02*X64102D01*
X61803Y389031D02*X64102D01*
X61803Y387063D02*X64102D01*
G54D15*X62500Y391000D02*X63500D01*
X62500Y389031D02*X63500D01*
X62500Y387063D02*X63500D01*
G54D18*X52107Y394543D02*X52893D01*
X52107Y387457D02*X52893D01*
X57457Y376893D02*Y376107D01*
X64543Y376893D02*Y376107D01*
X41457Y376893D02*Y376107D01*
X48543Y376893D02*Y376107D01*
G54D16*X28130Y470906D02*X31870D01*
X28130Y466969D02*X31870D01*
X28130Y463031D02*X31870D01*
X28130Y459094D02*X31870D01*
G54D17*X13563Y476024D02*X15925D01*
X13563Y453976D02*X15925D01*
X13563Y436024D02*X15925D01*
X13563Y413976D02*X15925D01*
G54D16*X28130Y430906D02*X31870D01*
X28130Y426969D02*X31870D01*
X28130Y423031D02*X31870D01*
X28130Y419094D02*X31870D01*
X28130Y390906D02*X31870D01*
X28130Y386969D02*X31870D01*
X28130Y383031D02*X31870D01*
X28130Y379094D02*X31870D01*
X111630Y459094D02*X115370D01*
X111630Y463031D02*X115370D01*
G54D17*X127575Y453976D02*X129937D01*
G54D16*X111630Y466969D02*X115370D01*
X111630Y470906D02*X115370D01*
G54D17*X127575Y476024D02*X129937D01*
G54D18*X95457Y475393D02*Y474607D01*
X102543Y475393D02*Y474607D01*
Y464393D02*Y463607D01*
X95457Y464393D02*Y463607D01*
G54D14*X78898Y467063D02*X81197D01*
G54D15*X79500D02*X80500D01*
G54D14*X78898Y469031D02*X81197D01*
G54D15*X79500D02*X80500D01*
G54D14*X78898Y471000D02*X81197D01*
G54D15*X79500D02*X80500D01*
G54D14*X78898Y472969D02*X81197D01*
X78898Y474937D02*X81197D01*
G54D15*X79500Y472969D02*X80500D01*
X79500Y474937D02*X80500D01*
G54D18*X102543Y455393D02*Y454607D01*
X95457Y455393D02*Y454607D01*
G54D14*X61803Y474937D02*X64102D01*
X61803Y472969D02*X64102D01*
G54D15*X62500Y474937D02*X63500D01*
X62500Y472969D02*X63500D01*
G54D14*X61803Y471000D02*X64102D01*
X61803Y469031D02*X64102D01*
X61803Y467063D02*X64102D01*
G54D15*X62500Y471000D02*X63500D01*
X62500Y469031D02*X63500D01*
X62500Y467063D02*X63500D01*
G54D18*X52107Y467457D02*X52893D01*
X52107Y474543D02*X52893D01*
X57457Y456893D02*Y456107D01*
X41457Y456893D02*Y456107D01*
X48543Y456893D02*Y456107D01*
X64543Y456893D02*Y456107D01*
G54D14*X61803Y434937D02*X64102D01*
X61803Y432969D02*X64102D01*
G54D15*X62500Y434937D02*X63500D01*
X62500Y432969D02*X63500D01*
G54D14*X61803Y427063D02*X64102D01*
G54D15*X62500D02*X63500D01*
G54D14*X61803Y431000D02*X64102D01*
X61803Y429031D02*X64102D01*
G54D15*X62500Y431000D02*X63500D01*
X62500Y429031D02*X63500D01*
G54D18*X52107Y427457D02*X52893D01*
X52107Y434543D02*X52893D01*
X57457Y416893D02*Y416107D01*
X64543Y416893D02*Y416107D01*
X41457Y416893D02*Y416107D01*
X48543Y416893D02*Y416107D01*
G54D14*X61803Y354937D02*X64102D01*
G54D15*X62500D02*X63500D01*
G54D14*X61803Y352969D02*X64102D01*
X61803Y351000D02*X64102D01*
G54D15*X62500Y352969D02*X63500D01*
X62500Y351000D02*X63500D01*
G54D14*X61803Y349031D02*X64102D01*
X61803Y347063D02*X64102D01*
G54D15*X62500Y349031D02*X63500D01*
X62500Y347063D02*X63500D01*
G54D18*X52107Y354543D02*X52893D01*
X52107Y347457D02*X52893D01*
X57457Y336893D02*Y336107D01*
X64543Y336893D02*Y336107D01*
X41457Y336893D02*Y336107D01*
X48543Y336893D02*Y336107D01*
G54D14*X61803Y314937D02*X64102D01*
G54D15*X62500D02*X63500D01*
G54D14*X61803Y312969D02*X64102D01*
X61803Y311000D02*X64102D01*
G54D15*X62500Y312969D02*X63500D01*
X62500Y311000D02*X63500D01*
G54D14*X61803Y309031D02*X64102D01*
X61803Y307063D02*X64102D01*
G54D15*X62500Y309031D02*X63500D01*
G54D16*X111630Y339094D02*X115370D01*
G54D17*X127575Y333976D02*X129937D01*
G54D16*X111630Y343031D02*X115370D01*
X111630Y346969D02*X115370D01*
X111630Y350906D02*X115370D01*
X111630Y299094D02*X115370D01*
X111630Y303031D02*X115370D01*
X111630Y306969D02*X115370D01*
X111630Y310906D02*X115370D01*
G54D17*X127575Y316024D02*X129937D01*
G54D14*X78898Y347063D02*X81197D01*
X78898Y349031D02*X81197D01*
G54D15*X79500Y347063D02*X80500D01*
X79500Y349031D02*X80500D01*
G54D14*X78898Y307063D02*X81197D01*
G54D15*X79500D02*X80500D01*
G54D14*X78898Y309031D02*X81197D01*
X78898Y311000D02*X81197D01*
G54D15*X79500Y309031D02*X80500D01*
X79500Y311000D02*X80500D01*
G54D14*X78898Y312969D02*X81197D01*
X78898Y314937D02*X81197D01*
G54D15*X79500Y312969D02*X80500D01*
X79500Y314937D02*X80500D01*
G54D18*X95457Y315393D02*Y314607D01*
X102543Y315393D02*Y314607D01*
X95457Y304393D02*Y303607D01*
Y295393D02*Y294607D01*
X102543Y304393D02*Y303607D01*
Y295393D02*Y294607D01*
G54D15*X62500Y307063D02*X63500D01*
G54D18*X52107Y307457D02*X52893D01*
X52107Y314543D02*X52893D01*
X57457Y296893D02*Y296107D01*
X64543Y296893D02*Y296107D01*
X41457Y296893D02*Y296107D01*
X48543Y296893D02*Y296107D01*
G54D16*X28130Y350906D02*X31870D01*
X28130Y346969D02*X31870D01*
X28130Y343031D02*X31870D01*
X28130Y339094D02*X31870D01*
G54D17*X13563Y396024D02*X15925D01*
X13563Y373976D02*X15925D01*
X13563Y356024D02*X15925D01*
X13563Y333976D02*X15925D01*
X13563Y316024D02*X15925D01*
X13563Y293976D02*X15925D01*
X13563Y276024D02*X15925D01*
X13563Y253976D02*X15925D01*
G54D14*X61803Y274937D02*X64102D01*
X61803Y272969D02*X64102D01*
G54D15*X62500Y274937D02*X63500D01*
X62500Y272969D02*X63500D01*
G54D14*X61803Y271000D02*X64102D01*
X61803Y269031D02*X64102D01*
X61803Y267063D02*X64102D01*
G54D15*X62500Y271000D02*X63500D01*
X62500Y269031D02*X63500D01*
X62500Y267063D02*X63500D01*
G54D18*X52107Y267457D02*X52893D01*
X52107Y274543D02*X52893D01*
X57457Y256893D02*Y256107D01*
X41457Y256893D02*Y256107D01*
X48543Y256893D02*Y256107D01*
X64543Y256893D02*Y256107D01*
G54D14*X61803Y234937D02*X64102D01*
X61803Y232969D02*X64102D01*
G54D15*X62500Y234937D02*X63500D01*
X62500Y232969D02*X63500D01*
G54D14*X61803Y227063D02*X64102D01*
G54D15*X62500D02*X63500D01*
G54D14*X61803Y231000D02*X64102D01*
X61803Y229031D02*X64102D01*
G54D15*X62500Y231000D02*X63500D01*
X62500Y229031D02*X63500D01*
G54D18*X52107Y227457D02*X52893D01*
X52107Y234543D02*X52893D01*
X57457Y216893D02*Y216107D01*
X64543Y216893D02*Y216107D01*
X41457Y216893D02*Y216107D01*
X48543Y216893D02*Y216107D01*
G54D14*X78898Y267063D02*X81197D01*
G54D15*X79500D02*X80500D01*
G54D14*X78898Y269031D02*X81197D01*
X78898Y271000D02*X81197D01*
G54D15*X79500Y269031D02*X80500D01*
X79500Y271000D02*X80500D01*
G54D14*X78898Y272969D02*X81197D01*
X78898Y274937D02*X81197D01*
G54D15*X79500Y272969D02*X80500D01*
X79500Y274937D02*X80500D01*
G54D14*X78898Y231000D02*X81197D01*
X78898Y232969D02*X81197D01*
X78898Y234937D02*X81197D01*
G54D15*X79500Y231000D02*X80500D01*
X79500Y232969D02*X80500D01*
X79500Y234937D02*X80500D01*
G54D18*X95457Y275393D02*Y274607D01*
X102543Y275393D02*Y274607D01*
X95457Y264393D02*Y263607D01*
Y255393D02*Y254607D01*
X102543Y264393D02*Y263607D01*
Y255393D02*Y254607D01*
G54D17*X127575Y293976D02*X129937D01*
X127575Y253976D02*X129937D01*
X127575Y276024D02*X129937D01*
G54D16*X111630Y259094D02*X115370D01*
X111630Y263031D02*X115370D01*
X111630Y266969D02*X115370D01*
X111630Y270906D02*X115370D01*
G54D17*X127575Y236024D02*X129937D01*
G54D16*X28130Y310906D02*X31870D01*
X28130Y306969D02*X31870D01*
X28130Y303031D02*X31870D01*
X28130Y299094D02*X31870D01*
X28130Y270906D02*X31870D01*
X28130Y266969D02*X31870D01*
X28130Y263031D02*X31870D01*
X28130Y259094D02*X31870D01*
G54D18*X95457Y235393D02*Y234607D01*
X102543Y235393D02*Y234607D01*
X95457Y224393D02*Y223607D01*
Y215393D02*Y214607D01*
X102543Y224393D02*Y223607D01*
Y215393D02*Y214607D01*
G54D16*X111630Y219094D02*X115370D01*
X111630Y223031D02*X115370D01*
X111630Y226969D02*X115370D01*
X111630Y230906D02*X115370D01*
G54D17*X127575Y213976D02*X129937D01*
X127575Y196024D02*X129937D01*
G54D14*X78898Y227063D02*X81197D01*
G54D15*X79500D02*X80500D01*
G54D14*X78898Y229031D02*X81197D01*
G54D15*X79500D02*X80500D01*
G54D14*X78898Y191000D02*X81197D01*
X78898Y192969D02*X81197D01*
X78898Y194937D02*X81197D01*
G54D15*X79500Y191000D02*X80500D01*
X79500Y192969D02*X80500D01*
X79500Y194937D02*X80500D01*
G54D18*X95457Y195393D02*Y194607D01*
X102543Y195393D02*Y194607D01*
X95457Y184393D02*Y183607D01*
Y175393D02*Y174607D01*
X102543Y184393D02*Y183607D01*
Y175393D02*Y174607D01*
G54D16*X111630Y179094D02*X115370D01*
X111630Y183031D02*X115370D01*
X111630Y186969D02*X115370D01*
X111630Y190906D02*X115370D01*
G54D17*X127575Y173976D02*X129937D01*
G54D16*X111630Y150906D02*X115370D01*
G54D17*X127575Y156024D02*X129937D01*
G54D14*X78898Y187063D02*X81197D01*
X78898Y189031D02*X81197D01*
G54D15*X79500Y187063D02*X80500D01*
X79500Y189031D02*X80500D01*
G54D14*X78898Y147063D02*X81197D01*
G54D15*X79500D02*X80500D01*
G54D14*X78898Y149031D02*X81197D01*
X78898Y151000D02*X81197D01*
G54D15*X79500Y149031D02*X80500D01*
X79500Y151000D02*X80500D01*
G54D14*X78898Y152969D02*X81197D01*
X78898Y154937D02*X81197D01*
G54D15*X79500Y152969D02*X80500D01*
X79500Y154937D02*X80500D01*
G54D18*X95457Y155393D02*Y154607D01*
X102543Y155393D02*Y154607D01*
X95457Y144393D02*Y143607D01*
Y135393D02*Y134607D01*
X102543Y144393D02*Y143607D01*
Y135393D02*Y134607D01*
G54D16*X111630Y139094D02*X115370D01*
X111630Y143031D02*X115370D01*
X111630Y146969D02*X115370D01*
G54D17*X127575Y133976D02*X129937D01*
G54D16*X111630Y99094D02*X115370D01*
X111630Y103031D02*X115370D01*
X111630Y106969D02*X115370D01*
X111630Y110906D02*X115370D01*
G54D17*X127575Y116024D02*X129937D01*
G54D14*X78898Y107063D02*X81197D01*
G54D15*X79500D02*X80500D01*
G54D14*X78898Y109031D02*X81197D01*
X78898Y111000D02*X81197D01*
G54D15*X79500Y109031D02*X80500D01*
X79500Y111000D02*X80500D01*
G54D14*X78898Y112969D02*X81197D01*
X78898Y114937D02*X81197D01*
G54D15*X79500Y112969D02*X80500D01*
X79500Y114937D02*X80500D01*
G54D14*X78898Y27063D02*X81197D01*
G54D15*X79500D02*X80500D01*
G54D14*X78898Y29031D02*X81197D01*
G54D15*X79500D02*X80500D01*
G54D14*X78898Y31000D02*X81197D01*
X78898Y32969D02*X81197D01*
X78898Y34937D02*X81197D01*
G54D15*X79500Y31000D02*X80500D01*
X79500Y32969D02*X80500D01*
X79500Y34937D02*X80500D01*
G54D18*X95457Y115393D02*Y114607D01*
X102543Y115393D02*Y114607D01*
X95457Y104393D02*Y103607D01*
Y95393D02*Y94607D01*
X102543Y104393D02*Y103607D01*
Y95393D02*Y94607D01*
G54D17*X127575Y93976D02*X129937D01*
X127575Y53976D02*X129937D01*
X127575Y76024D02*X129937D01*
G54D16*X111630Y59094D02*X115370D01*
X111630Y63031D02*X115370D01*
X111630Y66969D02*X115370D01*
X111630Y70906D02*X115370D01*
X111630Y19094D02*X115370D01*
X111630Y23031D02*X115370D01*
X111630Y26969D02*X115370D01*
X111630Y30906D02*X115370D01*
G54D17*X127575Y13976D02*X129937D01*
X127575Y36024D02*X129937D01*
G54D18*X102543Y55393D02*Y54607D01*
X95457Y55393D02*Y54607D01*
Y24393D02*Y23607D01*
X102543Y35393D02*Y34607D01*
Y24393D02*Y23607D01*
Y15393D02*Y14607D01*
X95457Y15393D02*Y14607D01*
X41457Y136893D02*Y136107D01*
X48543Y136893D02*Y136107D01*
G54D17*X13563Y236024D02*X15925D01*
X13563Y213976D02*X15925D01*
X13563Y196024D02*X15925D01*
X13563Y173976D02*X15925D01*
X13563Y156024D02*X15925D01*
X13563Y133976D02*X15925D01*
X13563Y116024D02*X15925D01*
X13563Y93976D02*X15925D01*
X13563Y76024D02*X15925D01*
X13563Y53976D02*X15925D01*
X13563Y36024D02*X15925D01*
X13563Y13976D02*X15925D01*
G54D14*X61803Y114937D02*X64102D01*
X61803Y112969D02*X64102D01*
G54D15*X62500Y114937D02*X63500D01*
X62500Y112969D02*X63500D01*
G54D14*X61803Y107063D02*X64102D01*
G54D15*X62500D02*X63500D01*
G54D18*X64543Y96893D02*Y96107D01*
G54D14*X61803Y111000D02*X64102D01*
X61803Y109031D02*X64102D01*
G54D15*X62500Y111000D02*X63500D01*
X62500Y109031D02*X63500D01*
G54D18*X52107Y107457D02*X52893D01*
X57457Y96893D02*Y96107D01*
X41457Y96893D02*Y96107D01*
X48543Y96893D02*Y96107D01*
X52107Y114543D02*X52893D01*
X41457Y16893D02*Y16107D01*
X48543Y16893D02*Y16107D01*
G54D14*X61803Y194937D02*X64102D01*
X61803Y192969D02*X64102D01*
G54D15*X62500Y194937D02*X63500D01*
X62500Y192969D02*X63500D01*
G54D14*X61803Y191000D02*X64102D01*
X61803Y189031D02*X64102D01*
X61803Y187063D02*X64102D01*
G54D15*X62500Y191000D02*X63500D01*
X62500Y189031D02*X63500D01*
X62500Y187063D02*X63500D01*
G54D18*X52107Y187457D02*X52893D01*
X52107Y194543D02*X52893D01*
X57457Y176893D02*Y176107D01*
X41457Y176893D02*Y176107D01*
X48543Y176893D02*Y176107D01*
X64543Y176893D02*Y176107D01*
G54D14*X61803Y154937D02*X64102D01*
X61803Y152969D02*X64102D01*
G54D15*X62500Y154937D02*X63500D01*
X62500Y152969D02*X63500D01*
G54D14*X61803Y147063D02*X64102D01*
G54D15*X62500D02*X63500D01*
G54D14*X61803Y151000D02*X64102D01*
X61803Y149031D02*X64102D01*
G54D15*X62500Y151000D02*X63500D01*
X62500Y149031D02*X63500D01*
G54D18*X52107Y147457D02*X52893D01*
X52107Y154543D02*X52893D01*
X57457Y136893D02*Y136107D01*
X64543Y136893D02*Y136107D01*
G54D16*X28130Y230906D02*X31870D01*
X28130Y226969D02*X31870D01*
X28130Y223031D02*X31870D01*
X28130Y219094D02*X31870D01*
X28130Y190906D02*X31870D01*
X28130Y186969D02*X31870D01*
X28130Y183031D02*X31870D01*
X28130Y179094D02*X31870D01*
X28130Y150906D02*X31870D01*
X28130Y146969D02*X31870D01*
X28130Y143031D02*X31870D01*
X28130Y139094D02*X31870D01*
X28130Y110906D02*X31870D01*
X28130Y106969D02*X31870D01*
X28130Y103031D02*X31870D01*
X28130Y99094D02*X31870D01*
X28130Y70906D02*X31870D01*
X28130Y66969D02*X31870D01*
X28130Y63031D02*X31870D01*
X28130Y59094D02*X31870D01*
G54D18*X95457Y75393D02*Y74607D01*
X102543Y75393D02*Y74607D01*
G54D14*X78898Y71000D02*X81197D01*
G54D15*X79500D02*X80500D01*
G54D14*X78898Y72969D02*X81197D01*
G54D15*X79500D02*X80500D01*
G54D14*X78898Y74937D02*X81197D01*
G54D15*X79500D02*X80500D01*
G54D14*X78898Y67063D02*X81197D01*
X78898Y69031D02*X81197D01*
G54D15*X79500Y67063D02*X80500D01*
X79500Y69031D02*X80500D01*
G54D18*X95457Y64393D02*Y63607D01*
X102543Y64393D02*Y63607D01*
G54D15*X62500Y71000D02*X63500D01*
X62500Y69031D02*X63500D01*
X62500Y67063D02*X63500D01*
G54D18*X52107Y67457D02*X52893D01*
X52107Y74543D02*X52893D01*
X95457Y35393D02*Y34607D01*
G54D14*X61803Y74937D02*X64102D01*
X61803Y72969D02*X64102D01*
G54D15*X62500Y74937D02*X63500D01*
X62500Y72969D02*X63500D01*
G54D14*X61803Y71000D02*X64102D01*
X61803Y69031D02*X64102D01*
X61803Y67063D02*X64102D01*
G54D18*X64543Y56893D02*Y56107D01*
G54D16*X28130Y30906D02*X31870D01*
X28130Y26969D02*X31870D01*
X28130Y23031D02*X31870D01*
X28130Y19094D02*X31870D01*
G54D18*X57457Y56893D02*Y56107D01*
X41457Y56893D02*Y56107D01*
X48543Y56893D02*Y56107D01*
G54D14*X61803Y34937D02*X64102D01*
X61803Y32969D02*X64102D01*
G54D15*X62500Y34937D02*X63500D01*
X62500Y32969D02*X63500D01*
G54D14*X61803Y31000D02*X64102D01*
X61803Y29031D02*X64102D01*
X61803Y27063D02*X64102D01*
G54D15*X62500Y31000D02*X63500D01*
X62500Y29031D02*X63500D01*
X62500Y27063D02*X63500D01*
G54D18*X52107Y27457D02*X52893D01*
X57457Y16893D02*Y16107D01*
X52107Y34543D02*X52893D01*
X64543Y16893D02*Y16107D01*
G54D19*X53000Y416500D03*
Y376500D03*
X69000D03*
X107500Y384000D03*
X120500Y383031D03*
X107500Y375000D03*
Y393500D03*
X113000Y375000D03*
X117000D03*
X91000Y379500D03*
X71500Y382500D03*
X75000Y384000D03*
X36063Y419094D03*
Y379094D03*
Y383031D03*
Y423031D03*
X35500Y433500D03*
X39500D03*
X43500D03*
X47500D03*
X23000Y426969D03*
X35500Y393500D03*
X23000Y386969D03*
Y346969D03*
X39500Y393500D03*
Y353500D03*
X43500D03*
X47500D03*
X43500Y393500D03*
X47500D03*
X23000Y306969D03*
X91000Y339500D03*
X75000Y344000D03*
X71500Y342500D03*
X107500Y464000D03*
Y455000D03*
X120500Y463031D03*
X113000Y455000D03*
X117000D03*
X69000Y416500D03*
X91000Y419500D03*
X71500Y422500D03*
X75000Y424000D03*
X107500D03*
Y415000D03*
X120500Y423031D03*
X107500Y433500D03*
X113000Y415000D03*
X117000D03*
X69000Y456500D03*
X91000Y459500D03*
X71500Y462500D03*
X75000Y464000D03*
X53000Y456500D03*
X36063Y459094D03*
Y463031D03*
X35500Y473500D03*
X23000Y466969D03*
X39500Y473500D03*
X43500D03*
X47500D03*
X107500D03*
Y344000D03*
Y335000D03*
X120500Y343031D03*
X113000Y335000D03*
X117000D03*
X107500Y353500D03*
Y313500D03*
Y273500D03*
Y224000D03*
Y184000D03*
Y175000D03*
Y193500D03*
X113000Y175000D03*
X117000D03*
X107500Y215000D03*
X113000D03*
X117000D03*
X120500Y223031D03*
Y183031D03*
X107500Y233500D03*
X36063Y339094D03*
Y343031D03*
X35500Y353500D03*
Y313500D03*
X39500D03*
X43500D03*
X53000Y336500D03*
X69000D03*
X47500Y313500D03*
X53000Y256500D03*
X47500Y273500D03*
X36063Y299094D03*
Y303031D03*
X53000Y296500D03*
X69000D03*
Y256500D03*
X107500Y304000D03*
Y295000D03*
X120500Y303031D03*
X113000Y295000D03*
X117000D03*
X91000Y299500D03*
X71500Y302500D03*
X75000Y304000D03*
X107500Y264000D03*
Y255000D03*
X120500Y263031D03*
X113000Y255000D03*
X117000D03*
X91000Y259500D03*
X71500Y262500D03*
X75000Y264000D03*
X36063Y259094D03*
Y263031D03*
X35500Y273500D03*
X39500D03*
X43500D03*
X23000Y266969D03*
Y226969D03*
Y186969D03*
X53000Y216500D03*
X36063Y219094D03*
Y223031D03*
X69000Y216500D03*
X35500Y233500D03*
X39500D03*
X35500Y193500D03*
X39500D03*
X43500Y233500D03*
Y193500D03*
X91000Y219500D03*
X71500Y222500D03*
X75000Y224000D03*
X91000Y179500D03*
X71500Y182500D03*
X75000Y184000D03*
X47500Y233500D03*
Y193500D03*
X36063Y179094D03*
Y183031D03*
X35500Y153500D03*
X23000Y146969D03*
X39500Y153500D03*
X43500D03*
Y113500D03*
X47500D03*
X36063Y139094D03*
Y143031D03*
X35500Y113500D03*
X39500D03*
X23000Y106969D03*
X36063Y99094D03*
Y103031D03*
X35500Y73500D03*
X39500D03*
X43500D03*
X47500D03*
X23000Y66969D03*
X36063Y59094D03*
Y63031D03*
Y19094D03*
Y23031D03*
X35500Y33500D03*
X39500D03*
X23000Y26969D03*
X43500Y33500D03*
X69000Y96500D03*
X53000Y56500D03*
Y16500D03*
X47500Y33500D03*
X53000Y96500D03*
X69000Y56500D03*
Y16500D03*
X107500Y144000D03*
Y135000D03*
X113000D03*
X117000D03*
X91000Y139500D03*
X71500Y142500D03*
X75000Y144000D03*
X107500Y153500D03*
X120500Y143031D03*
Y103031D03*
X107500Y104000D03*
Y95000D03*
Y113500D03*
X113000Y95000D03*
X117000D03*
X91000Y99500D03*
X71500Y102500D03*
X75000Y104000D03*
X107500Y64000D03*
X91000Y59500D03*
X120500Y63031D03*
X107500Y55000D03*
Y73500D03*
X113000Y55000D03*
X117000D03*
X71500Y62500D03*
X75000Y64000D03*
X53000Y176500D03*
X69000D03*
X47500Y153500D03*
X53000Y136500D03*
X69000D03*
X107500Y24000D03*
Y15000D03*
X91000Y19500D03*
X71500Y22500D03*
X75000Y24000D03*
X120500Y23031D03*
X107500Y33500D03*
X113000Y15000D03*
X117000D03*
G54D20*G54D21*G54D20*G54D21*G54D20*G54D21*G54D20*G54D21*G54D20*G54D21*G54D20*G54D21*G54D20*G54D21*G54D20*G54D21*G54D20*G54D21*G54D20*G54D21*G54D20*G54D21*G54D20*G54D21*G54D20*G54D21*M02*
