G04 start of page 11 for group -4015 idx -4015 *
G04 Title: (unknown), toppaste *
G04 Creator: pcb 20140316 *
G04 CreationDate: Sun 30 Dec 2018 07:28:16 PM GMT UTC *
G04 For: railfan *
G04 Format: Gerber/RS-274X *
G04 PCB-Dimensions (mil): 1435.00 4900.00 *
G04 PCB-Coordinate-Origin: lower left *
%MOIN*%
%FSLAX25Y25*%
%LNTOPPASTE*%
%ADD46R,0.0100X0.0100*%
%ADD45R,0.0512X0.0512*%
%ADD44R,0.0472X0.0472*%
%ADD43R,0.0236X0.0236*%
G54D43*X111630Y459094D02*X115370D01*
X111630Y463031D02*X115370D01*
X111630Y466969D02*X115370D01*
X111630Y470906D02*X115370D01*
G54D44*X127575Y453976D02*X129937D01*
X127575Y476024D02*X129937D01*
G54D43*X28130Y470906D02*X31870D01*
X28130Y466969D02*X31870D01*
X28130Y463031D02*X31870D01*
X28130Y459094D02*X31870D01*
G54D44*X13563Y476024D02*X15925D01*
X13563Y453976D02*X15925D01*
G54D45*X95457Y475393D02*Y474607D01*
X102543Y475393D02*Y474607D01*
G54D46*X62500Y474937D02*X63500D01*
X62500Y472969D02*X63500D01*
X62500Y471000D02*X63500D01*
X62500Y469031D02*X63500D01*
X62500Y467063D02*X63500D01*
X79500D02*X80500D01*
X79500Y469031D02*X80500D01*
X79500Y471000D02*X80500D01*
X79500Y472969D02*X80500D01*
X79500Y474937D02*X80500D01*
G54D45*X52107Y467457D02*X52893D01*
X52107Y474543D02*X52893D01*
X57457Y456893D02*Y456107D01*
X64543Y456893D02*Y456107D01*
X41457Y456893D02*Y456107D01*
X48543Y456893D02*Y456107D01*
X95457Y464393D02*Y463607D01*
X102543Y464393D02*Y463607D01*
X95457Y455393D02*Y454607D01*
X102543Y455393D02*Y454607D01*
G54D43*X111630Y419094D02*X115370D01*
X111630Y423031D02*X115370D01*
X111630Y426969D02*X115370D01*
X111630Y430906D02*X115370D01*
G54D44*X127575Y413976D02*X129937D01*
X127575Y436024D02*X129937D01*
G54D43*X28130Y430906D02*X31870D01*
X28130Y426969D02*X31870D01*
X28130Y423031D02*X31870D01*
X28130Y419094D02*X31870D01*
G54D44*X13563Y436024D02*X15925D01*
X13563Y413976D02*X15925D01*
G54D45*X95457Y435393D02*Y434607D01*
X102543Y435393D02*Y434607D01*
G54D46*X62500Y434937D02*X63500D01*
X62500Y432969D02*X63500D01*
X62500Y431000D02*X63500D01*
X62500Y429031D02*X63500D01*
X62500Y427063D02*X63500D01*
X79500D02*X80500D01*
X79500Y429031D02*X80500D01*
X79500Y431000D02*X80500D01*
X79500Y432969D02*X80500D01*
X79500Y434937D02*X80500D01*
G54D45*X52107Y427457D02*X52893D01*
X52107Y434543D02*X52893D01*
X57457Y416893D02*Y416107D01*
X64543Y416893D02*Y416107D01*
X41457Y416893D02*Y416107D01*
X48543Y416893D02*Y416107D01*
X95457Y424393D02*Y423607D01*
X102543Y424393D02*Y423607D01*
X95457Y415393D02*Y414607D01*
X102543Y415393D02*Y414607D01*
G54D43*X111630Y379094D02*X115370D01*
X111630Y383031D02*X115370D01*
X111630Y386969D02*X115370D01*
X111630Y390906D02*X115370D01*
G54D44*X127575Y373976D02*X129937D01*
X127575Y396024D02*X129937D01*
G54D43*X28130Y390906D02*X31870D01*
X28130Y386969D02*X31870D01*
X28130Y383031D02*X31870D01*
X28130Y379094D02*X31870D01*
G54D44*X13563Y396024D02*X15925D01*
X13563Y373976D02*X15925D01*
G54D45*X95457Y395393D02*Y394607D01*
X102543Y395393D02*Y394607D01*
G54D46*X62500Y394937D02*X63500D01*
X62500Y392969D02*X63500D01*
X62500Y391000D02*X63500D01*
X62500Y389031D02*X63500D01*
X62500Y387063D02*X63500D01*
X79500D02*X80500D01*
X79500Y389031D02*X80500D01*
X79500Y391000D02*X80500D01*
X79500Y392969D02*X80500D01*
X79500Y394937D02*X80500D01*
G54D45*X52107Y387457D02*X52893D01*
X52107Y394543D02*X52893D01*
X57457Y376893D02*Y376107D01*
X64543Y376893D02*Y376107D01*
X41457Y376893D02*Y376107D01*
X48543Y376893D02*Y376107D01*
X95457Y384393D02*Y383607D01*
X102543Y384393D02*Y383607D01*
X95457Y375393D02*Y374607D01*
X102543Y375393D02*Y374607D01*
G54D43*X111630Y339094D02*X115370D01*
X111630Y343031D02*X115370D01*
X111630Y346969D02*X115370D01*
X111630Y350906D02*X115370D01*
G54D44*X127575Y333976D02*X129937D01*
X127575Y356024D02*X129937D01*
G54D43*X28130Y350906D02*X31870D01*
X28130Y346969D02*X31870D01*
X28130Y343031D02*X31870D01*
X28130Y339094D02*X31870D01*
G54D44*X13563Y356024D02*X15925D01*
X13563Y333976D02*X15925D01*
G54D45*X95457Y355393D02*Y354607D01*
X102543Y355393D02*Y354607D01*
G54D46*X62500Y354937D02*X63500D01*
X62500Y352969D02*X63500D01*
X62500Y351000D02*X63500D01*
X62500Y349031D02*X63500D01*
X62500Y347063D02*X63500D01*
X79500D02*X80500D01*
X79500Y349031D02*X80500D01*
X79500Y351000D02*X80500D01*
X79500Y352969D02*X80500D01*
X79500Y354937D02*X80500D01*
G54D45*X52107Y347457D02*X52893D01*
X52107Y354543D02*X52893D01*
X57457Y336893D02*Y336107D01*
X64543Y336893D02*Y336107D01*
X41457Y336893D02*Y336107D01*
X48543Y336893D02*Y336107D01*
X95457Y344393D02*Y343607D01*
X102543Y344393D02*Y343607D01*
X95457Y335393D02*Y334607D01*
X102543Y335393D02*Y334607D01*
G54D43*X111630Y299094D02*X115370D01*
X111630Y303031D02*X115370D01*
X111630Y306969D02*X115370D01*
X111630Y310906D02*X115370D01*
G54D44*X127575Y293976D02*X129937D01*
X127575Y316024D02*X129937D01*
G54D43*X28130Y310906D02*X31870D01*
X28130Y306969D02*X31870D01*
X28130Y303031D02*X31870D01*
X28130Y299094D02*X31870D01*
G54D44*X13563Y316024D02*X15925D01*
X13563Y293976D02*X15925D01*
G54D45*X95457Y315393D02*Y314607D01*
X102543Y315393D02*Y314607D01*
G54D46*X62500Y314937D02*X63500D01*
X62500Y312969D02*X63500D01*
X62500Y311000D02*X63500D01*
X62500Y309031D02*X63500D01*
X62500Y307063D02*X63500D01*
X79500D02*X80500D01*
X79500Y309031D02*X80500D01*
X79500Y311000D02*X80500D01*
X79500Y312969D02*X80500D01*
X79500Y314937D02*X80500D01*
G54D45*X52107Y307457D02*X52893D01*
X52107Y314543D02*X52893D01*
X57457Y296893D02*Y296107D01*
X64543Y296893D02*Y296107D01*
X41457Y296893D02*Y296107D01*
X48543Y296893D02*Y296107D01*
X95457Y304393D02*Y303607D01*
X102543Y304393D02*Y303607D01*
X95457Y295393D02*Y294607D01*
X102543Y295393D02*Y294607D01*
G54D43*X111630Y259094D02*X115370D01*
X111630Y263031D02*X115370D01*
X111630Y266969D02*X115370D01*
X111630Y270906D02*X115370D01*
G54D44*X127575Y253976D02*X129937D01*
X127575Y276024D02*X129937D01*
G54D43*X28130Y270906D02*X31870D01*
X28130Y266969D02*X31870D01*
X28130Y263031D02*X31870D01*
X28130Y259094D02*X31870D01*
G54D44*X13563Y276024D02*X15925D01*
X13563Y253976D02*X15925D01*
G54D45*X95457Y275393D02*Y274607D01*
X102543Y275393D02*Y274607D01*
G54D46*X62500Y274937D02*X63500D01*
X62500Y272969D02*X63500D01*
X62500Y271000D02*X63500D01*
X62500Y269031D02*X63500D01*
X62500Y267063D02*X63500D01*
X79500D02*X80500D01*
X79500Y269031D02*X80500D01*
X79500Y271000D02*X80500D01*
X79500Y272969D02*X80500D01*
X79500Y274937D02*X80500D01*
G54D45*X52107Y267457D02*X52893D01*
X52107Y274543D02*X52893D01*
X57457Y256893D02*Y256107D01*
X64543Y256893D02*Y256107D01*
X41457Y256893D02*Y256107D01*
X48543Y256893D02*Y256107D01*
X95457Y264393D02*Y263607D01*
X102543Y264393D02*Y263607D01*
X95457Y255393D02*Y254607D01*
X102543Y255393D02*Y254607D01*
G54D43*X111630Y219094D02*X115370D01*
X111630Y223031D02*X115370D01*
X111630Y226969D02*X115370D01*
X111630Y230906D02*X115370D01*
G54D44*X127575Y213976D02*X129937D01*
X127575Y236024D02*X129937D01*
G54D43*X28130Y230906D02*X31870D01*
X28130Y226969D02*X31870D01*
X28130Y223031D02*X31870D01*
X28130Y219094D02*X31870D01*
G54D44*X13563Y236024D02*X15925D01*
X13563Y213976D02*X15925D01*
G54D45*X95457Y235393D02*Y234607D01*
X102543Y235393D02*Y234607D01*
G54D46*X62500Y234937D02*X63500D01*
X62500Y232969D02*X63500D01*
X62500Y231000D02*X63500D01*
X62500Y229031D02*X63500D01*
X62500Y227063D02*X63500D01*
X79500D02*X80500D01*
X79500Y229031D02*X80500D01*
X79500Y231000D02*X80500D01*
X79500Y232969D02*X80500D01*
X79500Y234937D02*X80500D01*
G54D45*X52107Y227457D02*X52893D01*
X52107Y234543D02*X52893D01*
X57457Y216893D02*Y216107D01*
X64543Y216893D02*Y216107D01*
X41457Y216893D02*Y216107D01*
X48543Y216893D02*Y216107D01*
X95457Y224393D02*Y223607D01*
X102543Y224393D02*Y223607D01*
X95457Y215393D02*Y214607D01*
X102543Y215393D02*Y214607D01*
G54D43*X111630Y179094D02*X115370D01*
X111630Y183031D02*X115370D01*
X111630Y186969D02*X115370D01*
X111630Y190906D02*X115370D01*
G54D44*X127575Y173976D02*X129937D01*
X127575Y196024D02*X129937D01*
G54D43*X28130Y190906D02*X31870D01*
X28130Y186969D02*X31870D01*
X28130Y183031D02*X31870D01*
X28130Y179094D02*X31870D01*
G54D44*X13563Y196024D02*X15925D01*
X13563Y173976D02*X15925D01*
G54D45*X95457Y195393D02*Y194607D01*
X102543Y195393D02*Y194607D01*
G54D46*X62500Y194937D02*X63500D01*
X62500Y192969D02*X63500D01*
X62500Y191000D02*X63500D01*
X62500Y189031D02*X63500D01*
X62500Y187063D02*X63500D01*
X79500D02*X80500D01*
X79500Y189031D02*X80500D01*
X79500Y191000D02*X80500D01*
X79500Y192969D02*X80500D01*
X79500Y194937D02*X80500D01*
G54D45*X52107Y187457D02*X52893D01*
X52107Y194543D02*X52893D01*
X57457Y176893D02*Y176107D01*
X64543Y176893D02*Y176107D01*
X41457Y176893D02*Y176107D01*
X48543Y176893D02*Y176107D01*
X95457Y184393D02*Y183607D01*
X102543Y184393D02*Y183607D01*
X95457Y175393D02*Y174607D01*
X102543Y175393D02*Y174607D01*
G54D43*X111630Y139094D02*X115370D01*
X111630Y143031D02*X115370D01*
X111630Y146969D02*X115370D01*
X111630Y150906D02*X115370D01*
G54D44*X127575Y133976D02*X129937D01*
X127575Y156024D02*X129937D01*
G54D43*X28130Y150906D02*X31870D01*
X28130Y146969D02*X31870D01*
X28130Y143031D02*X31870D01*
X28130Y139094D02*X31870D01*
G54D44*X13563Y156024D02*X15925D01*
X13563Y133976D02*X15925D01*
G54D45*X95457Y155393D02*Y154607D01*
X102543Y155393D02*Y154607D01*
G54D46*X62500Y154937D02*X63500D01*
X62500Y152969D02*X63500D01*
X62500Y151000D02*X63500D01*
X62500Y149031D02*X63500D01*
X62500Y147063D02*X63500D01*
X79500D02*X80500D01*
X79500Y149031D02*X80500D01*
X79500Y151000D02*X80500D01*
X79500Y152969D02*X80500D01*
X79500Y154937D02*X80500D01*
G54D45*X52107Y147457D02*X52893D01*
X52107Y154543D02*X52893D01*
X57457Y136893D02*Y136107D01*
X64543Y136893D02*Y136107D01*
X41457Y136893D02*Y136107D01*
X48543Y136893D02*Y136107D01*
X95457Y144393D02*Y143607D01*
X102543Y144393D02*Y143607D01*
X95457Y135393D02*Y134607D01*
X102543Y135393D02*Y134607D01*
G54D43*X111630Y99094D02*X115370D01*
X111630Y103031D02*X115370D01*
X111630Y106969D02*X115370D01*
X111630Y110906D02*X115370D01*
G54D44*X127575Y93976D02*X129937D01*
X127575Y116024D02*X129937D01*
G54D43*X28130Y110906D02*X31870D01*
X28130Y106969D02*X31870D01*
X28130Y103031D02*X31870D01*
X28130Y99094D02*X31870D01*
G54D44*X13563Y116024D02*X15925D01*
X13563Y93976D02*X15925D01*
G54D45*X95457Y115393D02*Y114607D01*
X102543Y115393D02*Y114607D01*
G54D46*X62500Y114937D02*X63500D01*
X62500Y112969D02*X63500D01*
X62500Y111000D02*X63500D01*
X62500Y109031D02*X63500D01*
X62500Y107063D02*X63500D01*
X79500D02*X80500D01*
X79500Y109031D02*X80500D01*
X79500Y111000D02*X80500D01*
X79500Y112969D02*X80500D01*
X79500Y114937D02*X80500D01*
G54D45*X52107Y107457D02*X52893D01*
X52107Y114543D02*X52893D01*
X57457Y96893D02*Y96107D01*
X64543Y96893D02*Y96107D01*
X41457Y96893D02*Y96107D01*
X48543Y96893D02*Y96107D01*
X95457Y104393D02*Y103607D01*
X102543Y104393D02*Y103607D01*
X95457Y95393D02*Y94607D01*
X102543Y95393D02*Y94607D01*
G54D43*X111630Y59094D02*X115370D01*
X111630Y63031D02*X115370D01*
X111630Y66969D02*X115370D01*
X111630Y70906D02*X115370D01*
G54D44*X127575Y53976D02*X129937D01*
X127575Y76024D02*X129937D01*
G54D43*X28130Y70906D02*X31870D01*
X28130Y66969D02*X31870D01*
X28130Y63031D02*X31870D01*
X28130Y59094D02*X31870D01*
G54D44*X13563Y76024D02*X15925D01*
X13563Y53976D02*X15925D01*
G54D45*X95457Y75393D02*Y74607D01*
X102543Y75393D02*Y74607D01*
G54D46*X62500Y74937D02*X63500D01*
X62500Y72969D02*X63500D01*
X62500Y71000D02*X63500D01*
X62500Y69031D02*X63500D01*
X62500Y67063D02*X63500D01*
X79500D02*X80500D01*
X79500Y69031D02*X80500D01*
X79500Y71000D02*X80500D01*
X79500Y72969D02*X80500D01*
X79500Y74937D02*X80500D01*
G54D45*X52107Y67457D02*X52893D01*
X52107Y74543D02*X52893D01*
X57457Y56893D02*Y56107D01*
X64543Y56893D02*Y56107D01*
X41457Y56893D02*Y56107D01*
X48543Y56893D02*Y56107D01*
X95457Y64393D02*Y63607D01*
X102543Y64393D02*Y63607D01*
X95457Y55393D02*Y54607D01*
X102543Y55393D02*Y54607D01*
G54D43*X111630Y19094D02*X115370D01*
X111630Y23031D02*X115370D01*
X111630Y26969D02*X115370D01*
X111630Y30906D02*X115370D01*
G54D44*X127575Y13976D02*X129937D01*
X127575Y36024D02*X129937D01*
G54D43*X28130Y30906D02*X31870D01*
X28130Y26969D02*X31870D01*
X28130Y23031D02*X31870D01*
X28130Y19094D02*X31870D01*
G54D44*X13563Y36024D02*X15925D01*
X13563Y13976D02*X15925D01*
G54D45*X95457Y35393D02*Y34607D01*
X102543Y35393D02*Y34607D01*
G54D46*X62500Y34937D02*X63500D01*
X62500Y32969D02*X63500D01*
X62500Y31000D02*X63500D01*
X62500Y29031D02*X63500D01*
X62500Y27063D02*X63500D01*
X79500D02*X80500D01*
X79500Y29031D02*X80500D01*
X79500Y31000D02*X80500D01*
X79500Y32969D02*X80500D01*
X79500Y34937D02*X80500D01*
G54D45*X52107Y27457D02*X52893D01*
X52107Y34543D02*X52893D01*
X57457Y16893D02*Y16107D01*
X64543Y16893D02*Y16107D01*
X41457Y16893D02*Y16107D01*
X48543Y16893D02*Y16107D01*
X95457Y24393D02*Y23607D01*
X102543Y24393D02*Y23607D01*
X95457Y15393D02*Y14607D01*
X102543Y15393D02*Y14607D01*
M02*
