M48
INCH
T32C0.013
%
T32
X002300Y046697
X002300Y042697
X002300Y038697
X002300Y034697
X002300Y030697
X002300Y026697
X002300Y022697
X002300Y018697
X002300Y014697
X002300Y010697
X002300Y006697
X002300Y002697
X003550Y047350
X003550Y043350
X003550Y039350
X003550Y035350
X003550Y031350
X003550Y027350
X003550Y023350
X003550Y019350
X003550Y015350
X003550Y011350
X003550Y007350
X003550Y003350
X003606Y046303
X003606Y045909
X003606Y042303
X003606Y041909
X003606Y038303
X003606Y037909
X003606Y034303
X003606Y033909
X003606Y030303
X003606Y029909
X003606Y026303
X003606Y025909
X003606Y022303
X003606Y021909
X003606Y018303
X003606Y017909
X003606Y014303
X003606Y013909
X003606Y010303
X003606Y009909
X003606Y006303
X003606Y005909
X003606Y002303
X003606Y001909
X003950Y047350
X003950Y043350
X003950Y039350
X003950Y035350
X003950Y031350
X003950Y027350
X003950Y023350
X003950Y019350
X003950Y015350
X003950Y011350
X003950Y007350
X003950Y003350
X004350Y047350
X004350Y043350
X004350Y039350
X004350Y035350
X004350Y031350
X004350Y027350
X004350Y023350
X004350Y019350
X004350Y015350
X004350Y011350
X004350Y007350
X004350Y003350
X004750Y047350
X004750Y043350
X004750Y039350
X004750Y035350
X004750Y031350
X004750Y027350
X004750Y023350
X004750Y019350
X004750Y015350
X004750Y011350
X004750Y007350
X004750Y003350
X005300Y045650
X005300Y041650
X005300Y037650
X005300Y033650
X005300Y029650
X005300Y025650
X005300Y021650
X005300Y017650
X005300Y013650
X005300Y009650
X005300Y005650
X005300Y001650
X006900Y045650
X006900Y041650
X006900Y037650
X006900Y033650
X006900Y029650
X006900Y025650
X006900Y021650
X006900Y017650
X006900Y013650
X006900Y009650
X006900Y005650
X006900Y001650
X007150Y046250
X007150Y042250
X007150Y038250
X007150Y034250
X007150Y030250
X007150Y026250
X007150Y022250
X007150Y018250
X007150Y014250
X007150Y010250
X007150Y006250
X007150Y002250
X007500Y046400
X007500Y042400
X007500Y038400
X007500Y034400
X007500Y030400
X007500Y026400
X007500Y022400
X007500Y018400
X007500Y014400
X007500Y010400
X007500Y006400
X007500Y002400
X009100Y045950
X009100Y041950
X009100Y037950
X009100Y033950
X009100Y029950
X009100Y025950
X009100Y021950
X009100Y017950
X009100Y013950
X009100Y009950
X009100Y005950
X009100Y001950
X010750Y047350
X010750Y046400
X010750Y045500
X010750Y043350
X010750Y042400
X010750Y041500
X010750Y039350
X010750Y038400
X010750Y037500
X010750Y035350
X010750Y034400
X010750Y033500
X010750Y031350
X010750Y030400
X010750Y029500
X010750Y027350
X010750Y026400
X010750Y025500
X010750Y023350
X010750Y022400
X010750Y021500
X010750Y019350
X010750Y018400
X010750Y017500
X010750Y015350
X010750Y014400
X010750Y013500
X010750Y011350
X010750Y010400
X010750Y009500
X010750Y007350
X010750Y006400
X010750Y005500
X010750Y003350
X010750Y002400
X010750Y001500
X011300Y045500
X011300Y041500
X011300Y037500
X011300Y033500
X011300Y029500
X011300Y025500
X011300Y021500
X011300Y017500
X011300Y013500
X011300Y009500
X011300Y005500
X011300Y001500
X011700Y045500
X011700Y041500
X011700Y037500
X011700Y033500
X011700Y029500
X011700Y025500
X011700Y021500
X011700Y017500
X011700Y013500
X011700Y009500
X011700Y005500
X011700Y001500
X012050Y046303
X012050Y042303
X012050Y038303
X012050Y034303
X012050Y030303
X012050Y026303
X012050Y022303
X012050Y018303
X012050Y014303
X012050Y010303
X012050Y006303
X012050Y002303
M30
