G04 start of page 2 for group 0 idx 0 *
G04 Title: (unknown), top *
G04 Creator: pcb 20140316 *
G04 CreationDate: Fri 27 Apr 2018 02:10:38 AM GMT UTC *
G04 For: petersen *
G04 Format: Gerber/RS-274X *
G04 PCB-Dimensions (mil): 1235.00 300.00 *
G04 PCB-Coordinate-Origin: lower left *
%MOIN*%
%FSLAX25Y25*%
%LNTOP*%
%ADD20C,0.0130*%
%ADD19C,0.0300*%
%ADD18R,0.0100X0.0100*%
%ADD17R,0.0120X0.0120*%
%ADD16R,0.0512X0.0512*%
%ADD15R,0.0472X0.0472*%
%ADD14R,0.0236X0.0236*%
%ADD13C,0.0200*%
%ADD12C,0.0100*%
%ADD11C,0.0001*%
G54D11*G36*
X46000Y20500D02*Y14500D01*
X28095D01*
X28092Y14505D01*
X27836Y14805D01*
X27537Y15060D01*
X27201Y15266D01*
X26838Y15416D01*
X26455Y15508D01*
X26063Y15539D01*
X25671Y15508D01*
X25288Y15416D01*
X24925Y15266D01*
X24589Y15060D01*
X24290Y14805D01*
X24056Y14532D01*
X24001D01*
X24000Y14535D01*
Y15465D01*
X24005Y15478D01*
X24042Y15631D01*
X24051Y15788D01*
X24042Y18306D01*
X24005Y18459D01*
X24000Y18472D01*
Y19402D01*
X24005Y19415D01*
X24042Y19568D01*
X24051Y19725D01*
X24048Y20500D01*
X46000D01*
G37*
G36*
X28500Y3500D02*Y8536D01*
X28540Y8702D01*
X28563Y9094D01*
X28540Y9487D01*
X28500Y9653D01*
Y12473D01*
X28540Y12639D01*
X28563Y13031D01*
X28540Y13424D01*
X28500Y13590D01*
Y17500D01*
X34500D01*
Y3500D01*
X28500D01*
G37*
G36*
X46000Y27500D02*Y21500D01*
X24045D01*
X24042Y22243D01*
X24005Y22396D01*
X23945Y22542D01*
X23863Y22676D01*
X23760Y22796D01*
X23641Y22898D01*
X23506Y22980D01*
X23361Y23041D01*
X23208Y23077D01*
X23051Y23087D01*
X17000Y23078D01*
Y27500D01*
X46000D01*
G37*
G36*
X109000Y3000D02*X101000D01*
Y7000D01*
X109000D01*
Y3000D01*
G37*
G36*
X1500Y28500D02*X15500D01*
Y18969D01*
X14508D01*
X14474Y18997D01*
X14138Y19203D01*
X13775Y19353D01*
X13392Y19445D01*
X13000Y19476D01*
X12608Y19445D01*
X12225Y19353D01*
X11862Y19203D01*
X11526Y18997D01*
X11227Y18742D01*
X10971Y18442D01*
X10766Y18107D01*
X10615Y17743D01*
X10523Y17361D01*
X10492Y16969D01*
X10523Y16576D01*
X10615Y16194D01*
X10766Y15830D01*
X10971Y15495D01*
X11227Y15195D01*
X11526Y14940D01*
X11862Y14734D01*
X12225Y14584D01*
X12608Y14492D01*
X13000Y14461D01*
X13392Y14492D01*
X13775Y14584D01*
X14138Y14734D01*
X14474Y14940D01*
X14508Y14969D01*
X15500D01*
Y1500D01*
X1500D01*
Y28500D01*
G37*
G36*
X122000D02*Y1500D01*
X110500D01*
Y10524D01*
X110892Y10555D01*
X111275Y10647D01*
X111638Y10797D01*
X111974Y11003D01*
X112273Y11258D01*
X112529Y11558D01*
X112734Y11893D01*
X112885Y12257D01*
X112977Y12639D01*
X113000Y13031D01*
X112977Y13424D01*
X112885Y13806D01*
X112734Y14170D01*
X112529Y14505D01*
X112273Y14805D01*
X111974Y15060D01*
X111638Y15266D01*
X111275Y15416D01*
X110892Y15508D01*
X110500Y15539D01*
Y28500D01*
X122000D01*
G37*
G54D12*X53000Y21000D02*X55500D01*
X53000Y22969D02*X57031D01*
X58500Y21500D01*
X55500Y21000D02*X56500Y20000D01*
X70000Y19031D02*X66031D01*
X65000Y18000D01*
X56500Y20000D02*Y15500D01*
X54543Y6500D02*X59000D01*
X58500Y21500D02*Y11500D01*
X60500Y9500D01*
X61500Y23500D02*Y12500D01*
X65000Y18000D02*Y14000D01*
X56500Y15500D02*X55500Y14500D01*
X49500D01*
X47457Y12457D01*
X60500Y9500D02*X81000D01*
X57031Y22969D02*X61062Y27000D01*
X62937Y24937D02*X61500Y23500D01*
X61062Y27000D02*X85457D01*
X70000Y24937D02*X62937D01*
X38543Y6500D02*X46457D01*
X20000Y9094D02*X26063D01*
X20000Y13031D02*X26063D01*
X20000Y16969D02*X27000D01*
X47457Y12457D02*Y6500D01*
X52952Y24937D02*X42500D01*
X52952Y19031D02*X42500D01*
X53000Y17063D02*Y19031D01*
X20000Y20906D02*Y25000D01*
G54D13*X13000Y16969D02*X20000D01*
G54D12*X85457Y14000D02*Y5000D01*
X92543D02*X97500D01*
X92543Y14000D02*X97500D01*
X85457Y9457D02*X97457D01*
X101031Y13031D01*
X105000Y5000D02*Y9094D01*
X79000Y18500D02*X76500Y21000D01*
X70048D01*
X80500Y20500D02*X78031Y22969D01*
X70048D01*
X80500Y20500D02*X98500D01*
X98906Y20906D01*
X103500D01*
X97500Y23500D02*X92543D01*
X79000Y18500D02*X97500D01*
X99031Y16969D01*
X103500D01*
X101031Y13031D02*X103500D01*
G54D13*X110500D01*
G54D14*X101630Y9094D02*X105370D01*
X101630Y13031D02*X105370D01*
G54D15*X117575Y3976D02*X119937D01*
G54D14*X101630Y16969D02*X105370D01*
X101630Y20906D02*X105370D01*
G54D15*X117575Y26024D02*X119937D01*
G54D16*X85457Y25393D02*Y24607D01*
X92543Y25393D02*Y24607D01*
Y14393D02*Y13607D01*
X85457Y14393D02*Y13607D01*
X92543Y5393D02*Y4607D01*
X85457Y5393D02*Y4607D01*
G54D14*X18130Y20906D02*X21870D01*
X18130Y16969D02*X21870D01*
X18130Y13031D02*X21870D01*
X18130Y9094D02*X21870D01*
G54D15*X3563Y26024D02*X5925D01*
X3563Y3976D02*X5925D01*
G54D17*X68898Y17063D02*X71197D01*
G54D18*X69500D02*X70500D01*
G54D17*X68898Y19031D02*X71197D01*
G54D18*X69500D02*X70500D01*
G54D17*X68898Y21000D02*X71197D01*
G54D18*X69500D02*X70500D01*
G54D17*X68898Y22969D02*X71197D01*
X68898Y24937D02*X71197D01*
G54D18*X69500Y22969D02*X70500D01*
X69500Y24937D02*X70500D01*
G54D17*X51803D02*X54102D01*
X51803Y22969D02*X54102D01*
G54D18*X52500Y24937D02*X53500D01*
X52500Y22969D02*X53500D01*
G54D17*X51803Y21000D02*X54102D01*
X51803Y19031D02*X54102D01*
X51803Y17063D02*X54102D01*
G54D18*X52500Y21000D02*X53500D01*
X52500Y19031D02*X53500D01*
X52500Y17063D02*X53500D01*
G54D16*X42107Y17457D02*X42893D01*
X42107Y24543D02*X42893D01*
X47457Y6893D02*Y6107D01*
X31457Y6893D02*Y6107D01*
X38543Y6893D02*Y6107D01*
X54543Y6893D02*Y6107D01*
G54D19*X97500Y14000D03*
Y5000D03*
X110500Y13031D03*
X103000Y5000D03*
X107000D03*
X59000Y6500D03*
X81000Y9500D03*
X61500Y12500D03*
X65000Y14000D03*
X43000Y6500D03*
X26063Y9094D03*
Y13031D03*
X25500Y23500D03*
X13000Y16969D03*
X29500Y23500D03*
X33500D03*
X37500D03*
X97500D03*
G54D20*M02*
