G04 start of page 6 for group -4063 idx -4063 *
G04 Title: (unknown), componentmask *
G04 Creator: pcb 20140316 *
G04 CreationDate: Fri 27 Apr 2018 02:10:38 AM GMT UTC *
G04 For: petersen *
G04 Format: Gerber/RS-274X *
G04 PCB-Dimensions (mil): 1235.00 300.00 *
G04 PCB-Coordinate-Origin: lower left *
%MOIN*%
%FSLAX25Y25*%
%LNTOPMASK*%
%ADD34R,0.0180X0.0180*%
%ADD33R,0.0572X0.0572*%
%ADD32R,0.0532X0.0532*%
%ADD31R,0.0296X0.0296*%
G54D31*X101630Y9094D02*X105370D01*
X101630Y13031D02*X105370D01*
G54D32*X117575Y3976D02*X119937D01*
G54D31*X101630Y16969D02*X105370D01*
X101630Y20906D02*X105370D01*
G54D32*X117575Y26024D02*X119937D01*
G54D33*X85457Y25393D02*Y24607D01*
X92543Y25393D02*Y24607D01*
Y14393D02*Y13607D01*
X85457Y14393D02*Y13607D01*
X92543Y5393D02*Y4607D01*
X85457Y5393D02*Y4607D01*
G54D31*X18130Y20906D02*X21870D01*
X18130Y16969D02*X21870D01*
X18130Y13031D02*X21870D01*
X18130Y9094D02*X21870D01*
G54D32*X3563Y26024D02*X5925D01*
X3563Y3976D02*X5925D01*
G54D34*X68898Y17063D02*X71197D01*
X69500D02*X70500D01*
X68898Y19031D02*X71197D01*
X69500D02*X70500D01*
X68898Y21000D02*X71197D01*
X69500D02*X70500D01*
X68898Y22969D02*X71197D01*
X68898Y24937D02*X71197D01*
X69500Y22969D02*X70500D01*
X69500Y24937D02*X70500D01*
X51803D02*X54102D01*
X51803Y22969D02*X54102D01*
X52500Y24937D02*X53500D01*
X52500Y22969D02*X53500D01*
X51803Y21000D02*X54102D01*
X51803Y19031D02*X54102D01*
X51803Y17063D02*X54102D01*
X52500Y21000D02*X53500D01*
X52500Y19031D02*X53500D01*
X52500Y17063D02*X53500D01*
G54D33*X42107Y17457D02*X42893D01*
X42107Y24543D02*X42893D01*
X47457Y6893D02*Y6107D01*
X31457Y6893D02*Y6107D01*
X38543Y6893D02*Y6107D01*
X54543Y6893D02*Y6107D01*
M02*
