G04 start of page 9 for group -4079 idx -4079 *
G04 Title: (unknown), topsilk *
G04 Creator: pcb 20140316 *
G04 CreationDate: Tue 26 Feb 2019 03:12:25 PM GMT UTC *
G04 For: railfan *
G04 Format: Gerber/RS-274X *
G04 PCB-Dimensions (mil): 1580.00 4900.00 *
G04 PCB-Coordinate-Origin: lower left *
%MOIN*%
%FSLAX25Y25*%
%LNTOPSILK*%
%ADD43C,0.0080*%
%ADD42C,0.0100*%
G54D42*X98607Y417755D02*X99393D01*
X98607Y412245D02*X99393D01*
X98607Y397755D02*X99393D01*
X98607Y392245D02*X99393D01*
X98607Y357755D02*X99393D01*
X98607Y352245D02*X99393D01*
X59689Y396906D02*X83311D01*
Y385094D01*
X59689D01*
Y396906D01*
X57689Y398406D02*G75*G03X57689Y398406I500J0D01*G01*
X49745Y391393D02*Y390607D01*
X55255Y391393D02*Y390607D01*
X60607Y379255D02*X61393D01*
X60607Y373745D02*X61393D01*
X110201Y353741D02*X122799D01*
Y346259D01*
X110201D01*
Y353741D01*
X59689Y356906D02*X83311D01*
Y345094D01*
X59689D01*
Y356906D01*
X57689Y358406D02*G75*G03X57689Y358406I500J0D01*G01*
X60607Y339255D02*X61393D01*
X60607Y333745D02*X61393D01*
X98607Y346755D02*X99393D01*
X98607Y341245D02*X99393D01*
X98607Y337755D02*X99393D01*
X98607Y332245D02*X99393D01*
X98607Y317755D02*X99393D01*
X98607Y312245D02*X99393D01*
X98607Y306755D02*X99393D01*
X98607Y301245D02*X99393D01*
X98607Y297755D02*X99393D01*
X98607Y292245D02*X99393D01*
X110201Y313741D02*X122799D01*
Y306259D01*
X110201D01*
Y313741D01*
X59689Y316906D02*X83311D01*
Y305094D01*
X59689D01*
Y316906D01*
X57689Y318406D02*G75*G03X57689Y318406I500J0D01*G01*
X60607Y299255D02*X61393D01*
X60607Y293745D02*X61393D01*
X59689Y276906D02*X83311D01*
Y265094D01*
X59689D01*
Y276906D01*
X57689Y278406D02*G75*G03X57689Y278406I500J0D01*G01*
X60607Y259255D02*X61393D01*
X60607Y253745D02*X61393D01*
X98607Y277755D02*X99393D01*
X98607Y272245D02*X99393D01*
X98607Y266755D02*X99393D01*
X98607Y261245D02*X99393D01*
X110201Y273741D02*X122799D01*
Y266259D01*
X110201D01*
Y273741D01*
X44607Y459255D02*X45393D01*
X44607Y453745D02*X45393D01*
X49745Y431393D02*Y430607D01*
X55255Y431393D02*Y430607D01*
X44607Y419255D02*X45393D01*
X44607Y413745D02*X45393D01*
X44607Y379255D02*X45393D01*
X44607Y373745D02*X45393D01*
X98607Y477755D02*X99393D01*
X98607Y472245D02*X99393D01*
X59689Y476906D02*X83311D01*
Y465094D01*
X59689D01*
Y476906D01*
X57689Y478406D02*G75*G03X57689Y478406I500J0D01*G01*
X49745Y471393D02*Y470607D01*
X55255Y471393D02*Y470607D01*
X60607Y459255D02*X61393D01*
X60607Y453745D02*X61393D01*
X98607Y466755D02*X99393D01*
X98607Y461245D02*X99393D01*
X98607Y457755D02*X99393D01*
X98607Y452245D02*X99393D01*
X110201Y473741D02*X122799D01*
Y466259D01*
X110201D01*
Y473741D01*
X98607Y437755D02*X99393D01*
X98607Y432245D02*X99393D01*
X59689Y436906D02*X83311D01*
Y425094D01*
X59689D01*
Y436906D01*
X57689Y438406D02*G75*G03X57689Y438406I500J0D01*G01*
X60607Y419255D02*X61393D01*
X60607Y413745D02*X61393D01*
X98607Y426755D02*X99393D01*
X98607Y421245D02*X99393D01*
X110201Y433741D02*X122799D01*
Y426259D01*
X110201D01*
Y433741D01*
X98607Y386755D02*X99393D01*
X98607Y381245D02*X99393D01*
X98607Y377755D02*X99393D01*
X98607Y372245D02*X99393D01*
X110201Y393741D02*X122799D01*
Y386259D01*
X110201D01*
Y393741D01*
X49745Y351393D02*Y350607D01*
X55255Y351393D02*Y350607D01*
X49745Y311393D02*Y310607D01*
X55255Y311393D02*Y310607D01*
X49745Y271393D02*Y270607D01*
X55255Y271393D02*Y270607D01*
X49745Y231393D02*Y230607D01*
X55255Y231393D02*Y230607D01*
X49745Y191393D02*Y190607D01*
X55255Y191393D02*Y190607D01*
X49745Y151393D02*Y150607D01*
X55255Y151393D02*Y150607D01*
X44607Y339255D02*X45393D01*
X44607Y333745D02*X45393D01*
X44607Y299255D02*X45393D01*
X44607Y293745D02*X45393D01*
X44607Y259255D02*X45393D01*
X44607Y253745D02*X45393D01*
X44607Y219255D02*X45393D01*
X44607Y213745D02*X45393D01*
X44607Y179255D02*X45393D01*
X44607Y173745D02*X45393D01*
X44607Y139255D02*X45393D01*
X44607Y133745D02*X45393D01*
X49745Y111393D02*Y110607D01*
X55255Y111393D02*Y110607D01*
X49745Y71393D02*Y70607D01*
X55255Y71393D02*Y70607D01*
X49745Y31393D02*Y30607D01*
X55255Y31393D02*Y30607D01*
X44607Y99255D02*X45393D01*
X44607Y93745D02*X45393D01*
X44607Y59255D02*X45393D01*
X44607Y53745D02*X45393D01*
X44607Y19255D02*X45393D01*
X44607Y13745D02*X45393D01*
X110201Y113741D02*X122799D01*
Y106259D01*
X110201D01*
Y113741D01*
Y73741D02*X122799D01*
Y66259D01*
X110201D01*
Y73741D01*
Y33741D02*X122799D01*
Y26259D01*
X110201D01*
Y33741D01*
X59689Y116906D02*X83311D01*
Y105094D01*
X59689D01*
Y116906D01*
X57689Y118406D02*G75*G03X57689Y118406I500J0D01*G01*
X60607Y99255D02*X61393D01*
X60607Y93745D02*X61393D01*
X98607Y117755D02*X99393D01*
X98607Y112245D02*X99393D01*
X98607Y106755D02*X99393D01*
X98607Y101245D02*X99393D01*
X98607Y97755D02*X99393D01*
X98607Y92245D02*X99393D01*
X59689Y76906D02*X83311D01*
Y65094D01*
X59689D01*
Y76906D01*
X57689Y78406D02*G75*G03X57689Y78406I500J0D01*G01*
X60607Y59255D02*X61393D01*
X60607Y53745D02*X61393D01*
X98607Y77755D02*X99393D01*
X98607Y72245D02*X99393D01*
X98607Y66755D02*X99393D01*
X98607Y61245D02*X99393D01*
X98607Y57755D02*X99393D01*
X98607Y52245D02*X99393D01*
X98607Y37755D02*X99393D01*
X98607Y32245D02*X99393D01*
X98607Y26755D02*X99393D01*
X98607Y21245D02*X99393D01*
X98607Y17755D02*X99393D01*
X98607Y12245D02*X99393D01*
X59689Y36906D02*X83311D01*
Y25094D01*
X59689D01*
Y36906D01*
X57689Y38406D02*G75*G03X57689Y38406I500J0D01*G01*
X60607Y19255D02*X61393D01*
X60607Y13745D02*X61393D01*
X98607Y257755D02*X99393D01*
X98607Y252245D02*X99393D01*
X110201Y233741D02*X122799D01*
Y226259D01*
X110201D01*
Y233741D01*
X98607Y237755D02*X99393D01*
X98607Y232245D02*X99393D01*
X59689Y236906D02*X83311D01*
Y225094D01*
X59689D01*
Y236906D01*
X57689Y238406D02*G75*G03X57689Y238406I500J0D01*G01*
X60607Y219255D02*X61393D01*
X60607Y213745D02*X61393D01*
X98607Y226755D02*X99393D01*
X98607Y221245D02*X99393D01*
X98607Y217755D02*X99393D01*
X98607Y212245D02*X99393D01*
X98607Y197755D02*X99393D01*
X98607Y192245D02*X99393D01*
X59689Y196906D02*X83311D01*
Y185094D01*
X59689D01*
Y196906D01*
X57689Y198406D02*G75*G03X57689Y198406I500J0D01*G01*
X60607Y179255D02*X61393D01*
X60607Y173745D02*X61393D01*
X98607Y186755D02*X99393D01*
X98607Y181245D02*X99393D01*
X59689Y156906D02*X83311D01*
Y145094D01*
X59689D01*
Y156906D01*
X57689Y158406D02*G75*G03X57689Y158406I500J0D01*G01*
X60607Y139255D02*X61393D01*
X60607Y133745D02*X61393D01*
X98607Y177755D02*X99393D01*
X98607Y172245D02*X99393D01*
X110201Y193741D02*X122799D01*
Y186259D01*
X110201D01*
Y193741D01*
X98607Y137755D02*X99393D01*
X98607Y132245D02*X99393D01*
X98607Y157755D02*X99393D01*
X98607Y152245D02*X99393D01*
X98607Y146755D02*X99393D01*
X98607Y141245D02*X99393D01*
X110201Y153741D02*X122799D01*
Y146259D01*
X110201D01*
Y153741D01*
G54D43*X17000Y426300D02*Y425500D01*
X13500D02*X17000D01*
X13000Y426000D02*X13500Y425500D01*
X13000Y426500D02*Y426000D01*
X13500Y427000D02*X13000Y426500D01*
X13500Y427000D02*X14000D01*
X16200Y424300D02*X17000Y423500D01*
X13000D02*X17000D01*
X13000Y424300D02*Y422800D01*
X44136Y427650D02*X45436D01*
X43436Y428350D02*X44136Y427650D01*
X43436Y430950D02*Y428350D01*
Y430950D02*X44136Y431650D01*
X45436D01*
X46636Y430850D02*X47436Y431650D01*
Y427650D01*
X46636D02*X48136D01*
X41436Y424650D02*X43436D01*
X43936Y424150D01*
Y423150D01*
X43436Y422650D02*X43936Y423150D01*
X41936Y422650D02*X43436D01*
X41936Y424650D02*Y420650D01*
X42736Y422650D02*X43936Y420650D01*
X45136Y423850D02*X45936Y424650D01*
Y420650D01*
X45136D02*X46636D01*
X17000Y386300D02*Y385500D01*
X13500D02*X17000D01*
X13000Y386000D02*X13500Y385500D01*
X13000Y386500D02*Y386000D01*
X13500Y387000D02*X13000Y386500D01*
X13500Y387000D02*X14000D01*
X16200Y384300D02*X17000Y383500D01*
X13000D02*X17000D01*
X13000Y384300D02*Y382800D01*
X44136Y387650D02*X45436D01*
X43436Y388350D02*X44136Y387650D01*
X43436Y390950D02*Y388350D01*
Y390950D02*X44136Y391650D01*
X45436D01*
X46636Y390850D02*X47436Y391650D01*
Y387650D01*
X46636D02*X48136D01*
X41436Y384650D02*X43436D01*
X43936Y384150D01*
Y383150D01*
X43436Y382650D02*X43936Y383150D01*
X41936Y382650D02*X43436D01*
X41936Y384650D02*Y380650D01*
X42736Y382650D02*X43936Y380650D01*
X45136Y383850D02*X45936Y384650D01*
Y380650D01*
X45136D02*X46636D01*
X17000Y346300D02*Y345500D01*
X13500D02*X17000D01*
X13000Y346000D02*X13500Y345500D01*
X13000Y346500D02*Y346000D01*
X13500Y347000D02*X13000Y346500D01*
X13500Y347000D02*X14000D01*
X16200Y344300D02*X17000Y343500D01*
X13000D02*X17000D01*
X13000Y344300D02*Y342800D01*
X44136Y347650D02*X45436D01*
X43436Y348350D02*X44136Y347650D01*
X43436Y350950D02*Y348350D01*
Y350950D02*X44136Y351650D01*
X45436D01*
X46636Y350850D02*X47436Y351650D01*
Y347650D01*
X46636D02*X48136D01*
X41436Y344650D02*X43436D01*
X43936Y344150D01*
Y343150D01*
X43436Y342650D02*X43936Y343150D01*
X41936Y342650D02*X43436D01*
X41936Y344650D02*Y340650D01*
X42736Y342650D02*X43936Y340650D01*
X45136Y343850D02*X45936Y344650D01*
Y340650D01*
X45136D02*X46636D01*
X85350Y397150D02*X87350D01*
X87850Y396650D01*
Y395650D01*
X87350Y395150D02*X87850Y395650D01*
X85850Y395150D02*X87350D01*
X85850Y397150D02*Y393150D01*
X86650Y395150D02*X87850Y393150D01*
X89050Y397150D02*X91050D01*
X89050D02*Y395150D01*
X89550Y395650D01*
X90550D01*
X91050Y395150D01*
Y393650D01*
X90550Y393150D02*X91050Y393650D01*
X89550Y393150D02*X90550D01*
X89050Y393650D02*X89550Y393150D01*
X85350Y386150D02*X87350D01*
X87850Y385650D01*
Y384650D01*
X87350Y384150D02*X87850Y384650D01*
X85850Y384150D02*X87350D01*
X85850Y386150D02*Y382150D01*
X86650Y384150D02*X87850Y382150D01*
X89050Y385650D02*X89550Y386150D01*
X90550D01*
X91050Y385650D01*
X90550Y382150D02*X91050Y382650D01*
X89550Y382150D02*X90550D01*
X89050Y382650D02*X89550Y382150D01*
Y384350D02*X90550D01*
X91050Y385650D02*Y384850D01*
Y383850D02*Y382650D01*
Y383850D02*X90550Y384350D01*
X91050Y384850D02*X90550Y384350D01*
X85350Y377150D02*X87350D01*
X87850Y376650D01*
Y375650D01*
X87350Y375150D02*X87850Y375650D01*
X85850Y375150D02*X87350D01*
X85850Y377150D02*Y373150D01*
X86650Y375150D02*X87850Y373150D01*
X89050Y374650D02*X91050Y377150D01*
X89050Y374650D02*X91550D01*
X91050Y377150D02*Y373150D01*
X78500Y383730D02*Y381035D01*
X78885Y380650D01*
X79655D01*
X80040Y381035D01*
Y383730D02*Y381035D01*
X80964Y383114D02*X81580Y383730D01*
Y380650D01*
X80964D02*X82119D01*
X70436Y378650D02*X72436D01*
X72936Y378150D01*
Y377150D01*
X72436Y376650D02*X72936Y377150D01*
X70936Y376650D02*X72436D01*
X70936Y378650D02*Y374650D01*
X71736Y376650D02*X72936Y374650D01*
X74136Y378150D02*X74636Y378650D01*
X76136D01*
X76636Y378150D01*
Y377150D01*
X74136Y374650D02*X76636Y377150D01*
X74136Y374650D02*X76636D01*
X111500Y384500D02*X113500D01*
X114000Y384000D01*
Y383000D01*
X113500Y382500D02*X114000Y383000D01*
X112000Y382500D02*X113500D01*
X112000Y384500D02*Y380500D01*
X112800Y382500D02*X114000Y380500D01*
X116700Y384500D02*X117200Y384000D01*
X115700Y384500D02*X116700D01*
X115200Y384000D02*X115700Y384500D01*
X115200Y384000D02*Y381000D01*
X115700Y380500D01*
X116700Y382700D02*X117200Y382200D01*
X115200Y382700D02*X116700D01*
X115700Y380500D02*X116700D01*
X117200Y381000D01*
Y382200D02*Y381000D01*
X141000Y383500D02*Y382700D01*
Y383500D02*X144500D01*
X145000Y383000D02*X144500Y383500D01*
X145000Y383000D02*Y382500D01*
X144500Y382000D02*X145000Y382500D01*
X144000Y382000D02*X144500D01*
X141500Y384700D02*X141000Y385200D01*
Y386700D02*Y385200D01*
Y386700D02*X141500Y387200D01*
X142500D01*
X145000Y384700D02*X142500Y387200D01*
X145000D02*Y384700D01*
X111500Y344500D02*X113500D01*
X114000Y344000D01*
Y343000D01*
X113500Y342500D02*X114000Y343000D01*
X112000Y342500D02*X113500D01*
X112000Y344500D02*Y340500D01*
X112800Y342500D02*X114000Y340500D01*
X116700Y344500D02*X117200Y344000D01*
X115700Y344500D02*X116700D01*
X115200Y344000D02*X115700Y344500D01*
X115200Y344000D02*Y341000D01*
X115700Y340500D01*
X116700Y342700D02*X117200Y342200D01*
X115200Y342700D02*X116700D01*
X115700Y340500D02*X116700D01*
X117200Y341000D01*
Y342200D02*Y341000D01*
X141000Y343500D02*Y342700D01*
Y343500D02*X144500D01*
X145000Y343000D02*X144500Y343500D01*
X145000Y343000D02*Y342500D01*
X144500Y342000D02*X145000Y342500D01*
X144000Y342000D02*X144500D01*
X141500Y344700D02*X141000Y345200D01*
Y346700D02*Y345200D01*
Y346700D02*X141500Y347200D01*
X142500D01*
X145000Y344700D02*X142500Y347200D01*
X145000D02*Y344700D01*
X85350Y357150D02*X87350D01*
X87850Y356650D01*
Y355650D01*
X87350Y355150D02*X87850Y355650D01*
X85850Y355150D02*X87350D01*
X85850Y357150D02*Y353150D01*
X86650Y355150D02*X87850Y353150D01*
X89050Y357150D02*X91050D01*
X89050D02*Y355150D01*
X89550Y355650D01*
X90550D01*
X91050Y355150D01*
Y353650D01*
X90550Y353150D02*X91050Y353650D01*
X89550Y353150D02*X90550D01*
X89050Y353650D02*X89550Y353150D01*
X85350Y346150D02*X87350D01*
X87850Y345650D01*
Y344650D01*
X87350Y344150D02*X87850Y344650D01*
X85850Y344150D02*X87350D01*
X85850Y346150D02*Y342150D01*
X86650Y344150D02*X87850Y342150D01*
X89050Y345650D02*X89550Y346150D01*
X90550D01*
X91050Y345650D01*
X90550Y342150D02*X91050Y342650D01*
X89550Y342150D02*X90550D01*
X89050Y342650D02*X89550Y342150D01*
Y344350D02*X90550D01*
X91050Y345650D02*Y344850D01*
Y343850D02*Y342650D01*
Y343850D02*X90550Y344350D01*
X91050Y344850D02*X90550Y344350D01*
X78500Y343730D02*Y341035D01*
X78885Y340650D01*
X79655D01*
X80040Y341035D01*
Y343730D02*Y341035D01*
X80964Y343114D02*X81580Y343730D01*
Y340650D01*
X80964D02*X82119D01*
X70436Y338650D02*X72436D01*
X72936Y338150D01*
Y337150D01*
X72436Y336650D02*X72936Y337150D01*
X70936Y336650D02*X72436D01*
X70936Y338650D02*Y334650D01*
X71736Y336650D02*X72936Y334650D01*
X74136Y338150D02*X74636Y338650D01*
X76136D01*
X76636Y338150D01*
Y337150D01*
X74136Y334650D02*X76636Y337150D01*
X74136Y334650D02*X76636D01*
X85350Y337150D02*X87350D01*
X87850Y336650D01*
Y335650D01*
X87350Y335150D02*X87850Y335650D01*
X85850Y335150D02*X87350D01*
X85850Y337150D02*Y333150D01*
X86650Y335150D02*X87850Y333150D01*
X89050Y334650D02*X91050Y337150D01*
X89050Y334650D02*X91550D01*
X91050Y337150D02*Y333150D01*
X17000Y466300D02*Y465500D01*
X13500D02*X17000D01*
X13000Y466000D02*X13500Y465500D01*
X13000Y466500D02*Y466000D01*
X13500Y467000D02*X13000Y466500D01*
X13500Y467000D02*X14000D01*
X16200Y464300D02*X17000Y463500D01*
X13000D02*X17000D01*
X13000Y464300D02*Y462800D01*
X44136Y467650D02*X45436D01*
X43436Y468350D02*X44136Y467650D01*
X43436Y470950D02*Y468350D01*
Y470950D02*X44136Y471650D01*
X45436D01*
X46636Y470850D02*X47436Y471650D01*
Y467650D01*
X46636D02*X48136D01*
X41436Y464650D02*X43436D01*
X43936Y464150D01*
Y463150D01*
X43436Y462650D02*X43936Y463150D01*
X41936Y462650D02*X43436D01*
X41936Y464650D02*Y460650D01*
X42736Y462650D02*X43936Y460650D01*
X45136Y463850D02*X45936Y464650D01*
Y460650D01*
X45136D02*X46636D01*
X111500Y424500D02*X113500D01*
X114000Y424000D01*
Y423000D01*
X113500Y422500D02*X114000Y423000D01*
X112000Y422500D02*X113500D01*
X112000Y424500D02*Y420500D01*
X112800Y422500D02*X114000Y420500D01*
X116700Y424500D02*X117200Y424000D01*
X115700Y424500D02*X116700D01*
X115200Y424000D02*X115700Y424500D01*
X115200Y424000D02*Y421000D01*
X115700Y420500D01*
X116700Y422700D02*X117200Y422200D01*
X115200Y422700D02*X116700D01*
X115700Y420500D02*X116700D01*
X117200Y421000D01*
Y422200D02*Y421000D01*
X141000Y423500D02*Y422700D01*
Y423500D02*X144500D01*
X145000Y423000D02*X144500Y423500D01*
X145000Y423000D02*Y422500D01*
X144500Y422000D02*X145000Y422500D01*
X144000Y422000D02*X144500D01*
X141500Y424700D02*X141000Y425200D01*
Y426700D02*Y425200D01*
Y426700D02*X141500Y427200D01*
X142500D01*
X145000Y424700D02*X142500Y427200D01*
X145000D02*Y424700D01*
X85350Y477150D02*X87350D01*
X87850Y476650D01*
Y475650D01*
X87350Y475150D02*X87850Y475650D01*
X85850Y475150D02*X87350D01*
X85850Y477150D02*Y473150D01*
X86650Y475150D02*X87850Y473150D01*
X89050Y477150D02*X91050D01*
X89050D02*Y475150D01*
X89550Y475650D01*
X90550D01*
X91050Y475150D01*
Y473650D01*
X90550Y473150D02*X91050Y473650D01*
X89550Y473150D02*X90550D01*
X89050Y473650D02*X89550Y473150D01*
X78500Y463730D02*Y461035D01*
X78885Y460650D01*
X79655D01*
X80040Y461035D01*
Y463730D02*Y461035D01*
X80964Y463114D02*X81580Y463730D01*
Y460650D01*
X80964D02*X82119D01*
X70436Y458650D02*X72436D01*
X72936Y458150D01*
Y457150D01*
X72436Y456650D02*X72936Y457150D01*
X70936Y456650D02*X72436D01*
X70936Y458650D02*Y454650D01*
X71736Y456650D02*X72936Y454650D01*
X74136Y458150D02*X74636Y458650D01*
X76136D01*
X76636Y458150D01*
Y457150D01*
X74136Y454650D02*X76636Y457150D01*
X74136Y454650D02*X76636D01*
X85350Y466150D02*X87350D01*
X87850Y465650D01*
Y464650D01*
X87350Y464150D02*X87850Y464650D01*
X85850Y464150D02*X87350D01*
X85850Y466150D02*Y462150D01*
X86650Y464150D02*X87850Y462150D01*
X89050Y465650D02*X89550Y466150D01*
X90550D01*
X91050Y465650D01*
X90550Y462150D02*X91050Y462650D01*
X89550Y462150D02*X90550D01*
X89050Y462650D02*X89550Y462150D01*
Y464350D02*X90550D01*
X91050Y465650D02*Y464850D01*
Y463850D02*Y462650D01*
Y463850D02*X90550Y464350D01*
X91050Y464850D02*X90550Y464350D01*
X85350Y457150D02*X87350D01*
X87850Y456650D01*
Y455650D01*
X87350Y455150D02*X87850Y455650D01*
X85850Y455150D02*X87350D01*
X85850Y457150D02*Y453150D01*
X86650Y455150D02*X87850Y453150D01*
X89050Y454650D02*X91050Y457150D01*
X89050Y454650D02*X91550D01*
X91050Y457150D02*Y453150D01*
X111500Y464500D02*X113500D01*
X114000Y464000D01*
Y463000D01*
X113500Y462500D02*X114000Y463000D01*
X112000Y462500D02*X113500D01*
X112000Y464500D02*Y460500D01*
X112800Y462500D02*X114000Y460500D01*
X116700Y464500D02*X117200Y464000D01*
X115700Y464500D02*X116700D01*
X115200Y464000D02*X115700Y464500D01*
X115200Y464000D02*Y461000D01*
X115700Y460500D01*
X116700Y462700D02*X117200Y462200D01*
X115200Y462700D02*X116700D01*
X115700Y460500D02*X116700D01*
X117200Y461000D01*
Y462200D02*Y461000D01*
X141000Y463500D02*Y462700D01*
Y463500D02*X144500D01*
X145000Y463000D02*X144500Y463500D01*
X145000Y463000D02*Y462500D01*
X144500Y462000D02*X145000Y462500D01*
X144000Y462000D02*X144500D01*
X141500Y464700D02*X141000Y465200D01*
Y466700D02*Y465200D01*
Y466700D02*X141500Y467200D01*
X142500D01*
X145000Y464700D02*X142500Y467200D01*
X145000D02*Y464700D01*
X85350Y437150D02*X87350D01*
X87850Y436650D01*
Y435650D01*
X87350Y435150D02*X87850Y435650D01*
X85850Y435150D02*X87350D01*
X85850Y437150D02*Y433150D01*
X86650Y435150D02*X87850Y433150D01*
X89050Y437150D02*X91050D01*
X89050D02*Y435150D01*
X89550Y435650D01*
X90550D01*
X91050Y435150D01*
Y433650D01*
X90550Y433150D02*X91050Y433650D01*
X89550Y433150D02*X90550D01*
X89050Y433650D02*X89550Y433150D01*
X78500Y423730D02*Y421035D01*
X78885Y420650D01*
X79655D01*
X80040Y421035D01*
Y423730D02*Y421035D01*
X80964Y423114D02*X81580Y423730D01*
Y420650D01*
X80964D02*X82119D01*
X70436Y418650D02*X72436D01*
X72936Y418150D01*
Y417150D01*
X72436Y416650D02*X72936Y417150D01*
X70936Y416650D02*X72436D01*
X70936Y418650D02*Y414650D01*
X71736Y416650D02*X72936Y414650D01*
X74136Y418150D02*X74636Y418650D01*
X76136D01*
X76636Y418150D01*
Y417150D01*
X74136Y414650D02*X76636Y417150D01*
X74136Y414650D02*X76636D01*
X85350Y426150D02*X87350D01*
X87850Y425650D01*
Y424650D01*
X87350Y424150D02*X87850Y424650D01*
X85850Y424150D02*X87350D01*
X85850Y426150D02*Y422150D01*
X86650Y424150D02*X87850Y422150D01*
X89050Y425650D02*X89550Y426150D01*
X90550D01*
X91050Y425650D01*
X90550Y422150D02*X91050Y422650D01*
X89550Y422150D02*X90550D01*
X89050Y422650D02*X89550Y422150D01*
Y424350D02*X90550D01*
X91050Y425650D02*Y424850D01*
Y423850D02*Y422650D01*
Y423850D02*X90550Y424350D01*
X91050Y424850D02*X90550Y424350D01*
X85350Y417150D02*X87350D01*
X87850Y416650D01*
Y415650D01*
X87350Y415150D02*X87850Y415650D01*
X85850Y415150D02*X87350D01*
X85850Y417150D02*Y413150D01*
X86650Y415150D02*X87850Y413150D01*
X89050Y414650D02*X91050Y417150D01*
X89050Y414650D02*X91550D01*
X91050Y417150D02*Y413150D01*
X85350Y317150D02*X87350D01*
X87850Y316650D01*
Y315650D01*
X87350Y315150D02*X87850Y315650D01*
X85850Y315150D02*X87350D01*
X85850Y317150D02*Y313150D01*
X86650Y315150D02*X87850Y313150D01*
X89050Y317150D02*X91050D01*
X89050D02*Y315150D01*
X89550Y315650D01*
X90550D01*
X91050Y315150D01*
Y313650D01*
X90550Y313150D02*X91050Y313650D01*
X89550Y313150D02*X90550D01*
X89050Y313650D02*X89550Y313150D01*
X78500Y303730D02*Y301035D01*
X78885Y300650D01*
X79655D01*
X80040Y301035D01*
Y303730D02*Y301035D01*
X80964Y303114D02*X81580Y303730D01*
Y300650D01*
X80964D02*X82119D01*
X70436Y298650D02*X72436D01*
X72936Y298150D01*
Y297150D01*
X72436Y296650D02*X72936Y297150D01*
X70936Y296650D02*X72436D01*
X70936Y298650D02*Y294650D01*
X71736Y296650D02*X72936Y294650D01*
X74136Y298150D02*X74636Y298650D01*
X76136D01*
X76636Y298150D01*
Y297150D01*
X74136Y294650D02*X76636Y297150D01*
X74136Y294650D02*X76636D01*
X85350Y306150D02*X87350D01*
X87850Y305650D01*
Y304650D01*
X87350Y304150D02*X87850Y304650D01*
X85850Y304150D02*X87350D01*
X85850Y306150D02*Y302150D01*
X86650Y304150D02*X87850Y302150D01*
X89050Y305650D02*X89550Y306150D01*
X90550D01*
X91050Y305650D01*
X90550Y302150D02*X91050Y302650D01*
X89550Y302150D02*X90550D01*
X89050Y302650D02*X89550Y302150D01*
Y304350D02*X90550D01*
X91050Y305650D02*Y304850D01*
Y303850D02*Y302650D01*
Y303850D02*X90550Y304350D01*
X91050Y304850D02*X90550Y304350D01*
X85350Y297150D02*X87350D01*
X87850Y296650D01*
Y295650D01*
X87350Y295150D02*X87850Y295650D01*
X85850Y295150D02*X87350D01*
X85850Y297150D02*Y293150D01*
X86650Y295150D02*X87850Y293150D01*
X89050Y294650D02*X91050Y297150D01*
X89050Y294650D02*X91550D01*
X91050Y297150D02*Y293150D01*
X111500Y304500D02*X113500D01*
X114000Y304000D01*
Y303000D01*
X113500Y302500D02*X114000Y303000D01*
X112000Y302500D02*X113500D01*
X112000Y304500D02*Y300500D01*
X112800Y302500D02*X114000Y300500D01*
X116700Y304500D02*X117200Y304000D01*
X115700Y304500D02*X116700D01*
X115200Y304000D02*X115700Y304500D01*
X115200Y304000D02*Y301000D01*
X115700Y300500D01*
X116700Y302700D02*X117200Y302200D01*
X115200Y302700D02*X116700D01*
X115700Y300500D02*X116700D01*
X117200Y301000D01*
Y302200D02*Y301000D01*
X141000Y303500D02*Y302700D01*
Y303500D02*X144500D01*
X145000Y303000D02*X144500Y303500D01*
X145000Y303000D02*Y302500D01*
X144500Y302000D02*X145000Y302500D01*
X144000Y302000D02*X144500D01*
X141500Y304700D02*X141000Y305200D01*
Y306700D02*Y305200D01*
Y306700D02*X141500Y307200D01*
X142500D01*
X145000Y304700D02*X142500Y307200D01*
X145000D02*Y304700D01*
X85350Y277150D02*X87350D01*
X87850Y276650D01*
Y275650D01*
X87350Y275150D02*X87850Y275650D01*
X85850Y275150D02*X87350D01*
X85850Y277150D02*Y273150D01*
X86650Y275150D02*X87850Y273150D01*
X89050Y277150D02*X91050D01*
X89050D02*Y275150D01*
X89550Y275650D01*
X90550D01*
X91050Y275150D01*
Y273650D01*
X90550Y273150D02*X91050Y273650D01*
X89550Y273150D02*X90550D01*
X89050Y273650D02*X89550Y273150D01*
X78500Y263730D02*Y261035D01*
X78885Y260650D01*
X79655D01*
X80040Y261035D01*
Y263730D02*Y261035D01*
X80964Y263114D02*X81580Y263730D01*
Y260650D01*
X80964D02*X82119D01*
X70436Y258650D02*X72436D01*
X72936Y258150D01*
Y257150D01*
X72436Y256650D02*X72936Y257150D01*
X70936Y256650D02*X72436D01*
X70936Y258650D02*Y254650D01*
X71736Y256650D02*X72936Y254650D01*
X74136Y258150D02*X74636Y258650D01*
X76136D01*
X76636Y258150D01*
Y257150D01*
X74136Y254650D02*X76636Y257150D01*
X74136Y254650D02*X76636D01*
X85350Y266150D02*X87350D01*
X87850Y265650D01*
Y264650D01*
X87350Y264150D02*X87850Y264650D01*
X85850Y264150D02*X87350D01*
X85850Y266150D02*Y262150D01*
X86650Y264150D02*X87850Y262150D01*
X89050Y265650D02*X89550Y266150D01*
X90550D01*
X91050Y265650D01*
X90550Y262150D02*X91050Y262650D01*
X89550Y262150D02*X90550D01*
X89050Y262650D02*X89550Y262150D01*
Y264350D02*X90550D01*
X91050Y265650D02*Y264850D01*
Y263850D02*Y262650D01*
Y263850D02*X90550Y264350D01*
X91050Y264850D02*X90550Y264350D01*
X85350Y257150D02*X87350D01*
X87850Y256650D01*
Y255650D01*
X87350Y255150D02*X87850Y255650D01*
X85850Y255150D02*X87350D01*
X85850Y257150D02*Y253150D01*
X86650Y255150D02*X87850Y253150D01*
X89050Y254650D02*X91050Y257150D01*
X89050Y254650D02*X91550D01*
X91050Y257150D02*Y253150D01*
X111500Y264500D02*X113500D01*
X114000Y264000D01*
Y263000D01*
X113500Y262500D02*X114000Y263000D01*
X112000Y262500D02*X113500D01*
X112000Y264500D02*Y260500D01*
X112800Y262500D02*X114000Y260500D01*
X116700Y264500D02*X117200Y264000D01*
X115700Y264500D02*X116700D01*
X115200Y264000D02*X115700Y264500D01*
X115200Y264000D02*Y261000D01*
X115700Y260500D01*
X116700Y262700D02*X117200Y262200D01*
X115200Y262700D02*X116700D01*
X115700Y260500D02*X116700D01*
X117200Y261000D01*
Y262200D02*Y261000D01*
X141000Y263500D02*Y262700D01*
Y263500D02*X144500D01*
X145000Y263000D02*X144500Y263500D01*
X145000Y263000D02*Y262500D01*
X144500Y262000D02*X145000Y262500D01*
X144000Y262000D02*X144500D01*
X141500Y264700D02*X141000Y265200D01*
Y266700D02*Y265200D01*
Y266700D02*X141500Y267200D01*
X142500D01*
X145000Y264700D02*X142500Y267200D01*
X145000D02*Y264700D01*
X85350Y237150D02*X87350D01*
X87850Y236650D01*
Y235650D01*
X87350Y235150D02*X87850Y235650D01*
X85850Y235150D02*X87350D01*
X85850Y237150D02*Y233150D01*
X86650Y235150D02*X87850Y233150D01*
X89050Y237150D02*X91050D01*
X89050D02*Y235150D01*
X89550Y235650D01*
X90550D01*
X91050Y235150D01*
Y233650D01*
X90550Y233150D02*X91050Y233650D01*
X89550Y233150D02*X90550D01*
X89050Y233650D02*X89550Y233150D01*
X78500Y223730D02*Y221035D01*
X78885Y220650D01*
X79655D01*
X80040Y221035D01*
Y223730D02*Y221035D01*
X80964Y223114D02*X81580Y223730D01*
Y220650D01*
X80964D02*X82119D01*
X70436Y218650D02*X72436D01*
X72936Y218150D01*
Y217150D01*
X72436Y216650D02*X72936Y217150D01*
X70936Y216650D02*X72436D01*
X70936Y218650D02*Y214650D01*
X71736Y216650D02*X72936Y214650D01*
X74136Y218150D02*X74636Y218650D01*
X76136D01*
X76636Y218150D01*
Y217150D01*
X74136Y214650D02*X76636Y217150D01*
X74136Y214650D02*X76636D01*
X85350Y226150D02*X87350D01*
X87850Y225650D01*
Y224650D01*
X87350Y224150D02*X87850Y224650D01*
X85850Y224150D02*X87350D01*
X85850Y226150D02*Y222150D01*
X86650Y224150D02*X87850Y222150D01*
X89050Y225650D02*X89550Y226150D01*
X90550D01*
X91050Y225650D01*
X90550Y222150D02*X91050Y222650D01*
X89550Y222150D02*X90550D01*
X89050Y222650D02*X89550Y222150D01*
Y224350D02*X90550D01*
X91050Y225650D02*Y224850D01*
Y223850D02*Y222650D01*
Y223850D02*X90550Y224350D01*
X91050Y224850D02*X90550Y224350D01*
X85350Y217150D02*X87350D01*
X87850Y216650D01*
Y215650D01*
X87350Y215150D02*X87850Y215650D01*
X85850Y215150D02*X87350D01*
X85850Y217150D02*Y213150D01*
X86650Y215150D02*X87850Y213150D01*
X89050Y214650D02*X91050Y217150D01*
X89050Y214650D02*X91550D01*
X91050Y217150D02*Y213150D01*
X111500Y224500D02*X113500D01*
X114000Y224000D01*
Y223000D01*
X113500Y222500D02*X114000Y223000D01*
X112000Y222500D02*X113500D01*
X112000Y224500D02*Y220500D01*
X112800Y222500D02*X114000Y220500D01*
X116700Y224500D02*X117200Y224000D01*
X115700Y224500D02*X116700D01*
X115200Y224000D02*X115700Y224500D01*
X115200Y224000D02*Y221000D01*
X115700Y220500D01*
X116700Y222700D02*X117200Y222200D01*
X115200Y222700D02*X116700D01*
X115700Y220500D02*X116700D01*
X117200Y221000D01*
Y222200D02*Y221000D01*
X141000Y223500D02*Y222700D01*
Y223500D02*X144500D01*
X145000Y223000D02*X144500Y223500D01*
X145000Y223000D02*Y222500D01*
X144500Y222000D02*X145000Y222500D01*
X144000Y222000D02*X144500D01*
X141500Y224700D02*X141000Y225200D01*
Y226700D02*Y225200D01*
Y226700D02*X141500Y227200D01*
X142500D01*
X145000Y224700D02*X142500Y227200D01*
X145000D02*Y224700D01*
X17000Y306300D02*Y305500D01*
X13500D02*X17000D01*
X13000Y306000D02*X13500Y305500D01*
X13000Y306500D02*Y306000D01*
X13500Y307000D02*X13000Y306500D01*
X13500Y307000D02*X14000D01*
X16200Y304300D02*X17000Y303500D01*
X13000D02*X17000D01*
X13000Y304300D02*Y302800D01*
X17000Y266300D02*Y265500D01*
X13500D02*X17000D01*
X13000Y266000D02*X13500Y265500D01*
X13000Y266500D02*Y266000D01*
X13500Y267000D02*X13000Y266500D01*
X13500Y267000D02*X14000D01*
X16200Y264300D02*X17000Y263500D01*
X13000D02*X17000D01*
X13000Y264300D02*Y262800D01*
X17000Y226300D02*Y225500D01*
X13500D02*X17000D01*
X13000Y226000D02*X13500Y225500D01*
X13000Y226500D02*Y226000D01*
X13500Y227000D02*X13000Y226500D01*
X13500Y227000D02*X14000D01*
X16200Y224300D02*X17000Y223500D01*
X13000D02*X17000D01*
X13000Y224300D02*Y222800D01*
X17000Y186300D02*Y185500D01*
X13500D02*X17000D01*
X13000Y186000D02*X13500Y185500D01*
X13000Y186500D02*Y186000D01*
X13500Y187000D02*X13000Y186500D01*
X13500Y187000D02*X14000D01*
X16200Y184300D02*X17000Y183500D01*
X13000D02*X17000D01*
X13000Y184300D02*Y182800D01*
X44136Y307650D02*X45436D01*
X43436Y308350D02*X44136Y307650D01*
X43436Y310950D02*Y308350D01*
Y310950D02*X44136Y311650D01*
X45436D01*
X46636Y310850D02*X47436Y311650D01*
Y307650D01*
X46636D02*X48136D01*
X44136Y267650D02*X45436D01*
X43436Y268350D02*X44136Y267650D01*
X43436Y270950D02*Y268350D01*
Y270950D02*X44136Y271650D01*
X45436D01*
X46636Y270850D02*X47436Y271650D01*
Y267650D01*
X46636D02*X48136D01*
X41436Y264650D02*X43436D01*
X43936Y264150D01*
Y263150D01*
X43436Y262650D02*X43936Y263150D01*
X41936Y262650D02*X43436D01*
X41936Y264650D02*Y260650D01*
X42736Y262650D02*X43936Y260650D01*
X45136Y263850D02*X45936Y264650D01*
Y260650D01*
X45136D02*X46636D01*
X41436Y304650D02*X43436D01*
X43936Y304150D01*
Y303150D01*
X43436Y302650D02*X43936Y303150D01*
X41936Y302650D02*X43436D01*
X41936Y304650D02*Y300650D01*
X42736Y302650D02*X43936Y300650D01*
X45136Y303850D02*X45936Y304650D01*
Y300650D01*
X45136D02*X46636D01*
X44136Y227650D02*X45436D01*
X43436Y228350D02*X44136Y227650D01*
X43436Y230950D02*Y228350D01*
Y230950D02*X44136Y231650D01*
X45436D01*
X46636Y230850D02*X47436Y231650D01*
Y227650D01*
X46636D02*X48136D01*
X41436Y224650D02*X43436D01*
X43936Y224150D01*
Y223150D01*
X43436Y222650D02*X43936Y223150D01*
X41936Y222650D02*X43436D01*
X41936Y224650D02*Y220650D01*
X42736Y222650D02*X43936Y220650D01*
X45136Y223850D02*X45936Y224650D01*
Y220650D01*
X45136D02*X46636D01*
X44136Y187650D02*X45436D01*
X43436Y188350D02*X44136Y187650D01*
X43436Y190950D02*Y188350D01*
Y190950D02*X44136Y191650D01*
X45436D01*
X46636Y190850D02*X47436Y191650D01*
Y187650D01*
X46636D02*X48136D01*
X41436Y184650D02*X43436D01*
X43936Y184150D01*
Y183150D01*
X43436Y182650D02*X43936Y183150D01*
X41936Y182650D02*X43436D01*
X41936Y184650D02*Y180650D01*
X42736Y182650D02*X43936Y180650D01*
X45136Y183850D02*X45936Y184650D01*
Y180650D01*
X45136D02*X46636D01*
X85350Y197150D02*X87350D01*
X87850Y196650D01*
Y195650D01*
X87350Y195150D02*X87850Y195650D01*
X85850Y195150D02*X87350D01*
X85850Y197150D02*Y193150D01*
X86650Y195150D02*X87850Y193150D01*
X89050Y197150D02*X91050D01*
X89050D02*Y195150D01*
X89550Y195650D01*
X90550D01*
X91050Y195150D01*
Y193650D01*
X90550Y193150D02*X91050Y193650D01*
X89550Y193150D02*X90550D01*
X89050Y193650D02*X89550Y193150D01*
X78500Y183730D02*Y181035D01*
X78885Y180650D01*
X79655D01*
X80040Y181035D01*
Y183730D02*Y181035D01*
X80964Y183114D02*X81580Y183730D01*
Y180650D01*
X80964D02*X82119D01*
X70436Y178650D02*X72436D01*
X72936Y178150D01*
Y177150D01*
X72436Y176650D02*X72936Y177150D01*
X70936Y176650D02*X72436D01*
X70936Y178650D02*Y174650D01*
X71736Y176650D02*X72936Y174650D01*
X74136Y178150D02*X74636Y178650D01*
X76136D01*
X76636Y178150D01*
Y177150D01*
X74136Y174650D02*X76636Y177150D01*
X74136Y174650D02*X76636D01*
X85350Y186150D02*X87350D01*
X87850Y185650D01*
Y184650D01*
X87350Y184150D02*X87850Y184650D01*
X85850Y184150D02*X87350D01*
X85850Y186150D02*Y182150D01*
X86650Y184150D02*X87850Y182150D01*
X89050Y185650D02*X89550Y186150D01*
X90550D01*
X91050Y185650D01*
X90550Y182150D02*X91050Y182650D01*
X89550Y182150D02*X90550D01*
X89050Y182650D02*X89550Y182150D01*
Y184350D02*X90550D01*
X91050Y185650D02*Y184850D01*
Y183850D02*Y182650D01*
Y183850D02*X90550Y184350D01*
X91050Y184850D02*X90550Y184350D01*
X85350Y177150D02*X87350D01*
X87850Y176650D01*
Y175650D01*
X87350Y175150D02*X87850Y175650D01*
X85850Y175150D02*X87350D01*
X85850Y177150D02*Y173150D01*
X86650Y175150D02*X87850Y173150D01*
X89050Y174650D02*X91050Y177150D01*
X89050Y174650D02*X91550D01*
X91050Y177150D02*Y173150D01*
X111500Y184500D02*X113500D01*
X114000Y184000D01*
Y183000D01*
X113500Y182500D02*X114000Y183000D01*
X112000Y182500D02*X113500D01*
X112000Y184500D02*Y180500D01*
X112800Y182500D02*X114000Y180500D01*
X116700Y184500D02*X117200Y184000D01*
X115700Y184500D02*X116700D01*
X115200Y184000D02*X115700Y184500D01*
X115200Y184000D02*Y181000D01*
X115700Y180500D01*
X116700Y182700D02*X117200Y182200D01*
X115200Y182700D02*X116700D01*
X115700Y180500D02*X116700D01*
X117200Y181000D01*
Y182200D02*Y181000D01*
X141000Y183500D02*Y182700D01*
Y183500D02*X144500D01*
X145000Y183000D02*X144500Y183500D01*
X145000Y183000D02*Y182500D01*
X144500Y182000D02*X145000Y182500D01*
X144000Y182000D02*X144500D01*
X141500Y184700D02*X141000Y185200D01*
Y186700D02*Y185200D01*
Y186700D02*X141500Y187200D01*
X142500D01*
X145000Y184700D02*X142500Y187200D01*
X145000D02*Y184700D01*
X85350Y157150D02*X87350D01*
X87850Y156650D01*
Y155650D01*
X87350Y155150D02*X87850Y155650D01*
X85850Y155150D02*X87350D01*
X85850Y157150D02*Y153150D01*
X86650Y155150D02*X87850Y153150D01*
X89050Y157150D02*X91050D01*
X89050D02*Y155150D01*
X89550Y155650D01*
X90550D01*
X91050Y155150D01*
Y153650D01*
X90550Y153150D02*X91050Y153650D01*
X89550Y153150D02*X90550D01*
X89050Y153650D02*X89550Y153150D01*
X78500Y143730D02*Y141035D01*
X78885Y140650D01*
X79655D01*
X80040Y141035D01*
Y143730D02*Y141035D01*
X80964Y143114D02*X81580Y143730D01*
Y140650D01*
X80964D02*X82119D01*
X70436Y138650D02*X72436D01*
X72936Y138150D01*
Y137150D01*
X72436Y136650D02*X72936Y137150D01*
X70936Y136650D02*X72436D01*
X70936Y138650D02*Y134650D01*
X71736Y136650D02*X72936Y134650D01*
X74136Y138150D02*X74636Y138650D01*
X76136D01*
X76636Y138150D01*
Y137150D01*
X74136Y134650D02*X76636Y137150D01*
X74136Y134650D02*X76636D01*
X85350Y146150D02*X87350D01*
X87850Y145650D01*
Y144650D01*
X87350Y144150D02*X87850Y144650D01*
X85850Y144150D02*X87350D01*
X85850Y146150D02*Y142150D01*
X86650Y144150D02*X87850Y142150D01*
X89050Y145650D02*X89550Y146150D01*
X90550D01*
X91050Y145650D01*
X90550Y142150D02*X91050Y142650D01*
X89550Y142150D02*X90550D01*
X89050Y142650D02*X89550Y142150D01*
Y144350D02*X90550D01*
X91050Y145650D02*Y144850D01*
Y143850D02*Y142650D01*
Y143850D02*X90550Y144350D01*
X91050Y144850D02*X90550Y144350D01*
X85350Y137150D02*X87350D01*
X87850Y136650D01*
Y135650D01*
X87350Y135150D02*X87850Y135650D01*
X85850Y135150D02*X87350D01*
X85850Y137150D02*Y133150D01*
X86650Y135150D02*X87850Y133150D01*
X89050Y134650D02*X91050Y137150D01*
X89050Y134650D02*X91550D01*
X91050Y137150D02*Y133150D01*
X111500Y144500D02*X113500D01*
X114000Y144000D01*
Y143000D01*
X113500Y142500D02*X114000Y143000D01*
X112000Y142500D02*X113500D01*
X112000Y144500D02*Y140500D01*
X112800Y142500D02*X114000Y140500D01*
X116700Y144500D02*X117200Y144000D01*
X115700Y144500D02*X116700D01*
X115200Y144000D02*X115700Y144500D01*
X115200Y144000D02*Y141000D01*
X115700Y140500D01*
X116700Y142700D02*X117200Y142200D01*
X115200Y142700D02*X116700D01*
X115700Y140500D02*X116700D01*
X117200Y141000D01*
Y142200D02*Y141000D01*
X141000Y143500D02*Y142700D01*
Y143500D02*X144500D01*
X145000Y143000D02*X144500Y143500D01*
X145000Y143000D02*Y142500D01*
X144500Y142000D02*X145000Y142500D01*
X144000Y142000D02*X144500D01*
X141500Y144700D02*X141000Y145200D01*
Y146700D02*Y145200D01*
Y146700D02*X141500Y147200D01*
X142500D01*
X145000Y144700D02*X142500Y147200D01*
X145000D02*Y144700D01*
X85350Y117150D02*X87350D01*
X87850Y116650D01*
Y115650D01*
X87350Y115150D02*X87850Y115650D01*
X85850Y115150D02*X87350D01*
X85850Y117150D02*Y113150D01*
X86650Y115150D02*X87850Y113150D01*
X89050Y117150D02*X91050D01*
X89050D02*Y115150D01*
X89550Y115650D01*
X90550D01*
X91050Y115150D01*
Y113650D01*
X90550Y113150D02*X91050Y113650D01*
X89550Y113150D02*X90550D01*
X89050Y113650D02*X89550Y113150D01*
X78500Y103730D02*Y101035D01*
X78885Y100650D01*
X79655D01*
X80040Y101035D01*
Y103730D02*Y101035D01*
X80964Y103114D02*X81580Y103730D01*
Y100650D01*
X80964D02*X82119D01*
X70436Y98650D02*X72436D01*
X72936Y98150D01*
Y97150D01*
X72436Y96650D02*X72936Y97150D01*
X70936Y96650D02*X72436D01*
X70936Y98650D02*Y94650D01*
X71736Y96650D02*X72936Y94650D01*
X74136Y98150D02*X74636Y98650D01*
X76136D01*
X76636Y98150D01*
Y97150D01*
X74136Y94650D02*X76636Y97150D01*
X74136Y94650D02*X76636D01*
X85350Y106150D02*X87350D01*
X87850Y105650D01*
Y104650D01*
X87350Y104150D02*X87850Y104650D01*
X85850Y104150D02*X87350D01*
X85850Y106150D02*Y102150D01*
X86650Y104150D02*X87850Y102150D01*
X89050Y105650D02*X89550Y106150D01*
X90550D01*
X91050Y105650D01*
X90550Y102150D02*X91050Y102650D01*
X89550Y102150D02*X90550D01*
X89050Y102650D02*X89550Y102150D01*
Y104350D02*X90550D01*
X91050Y105650D02*Y104850D01*
Y103850D02*Y102650D01*
Y103850D02*X90550Y104350D01*
X91050Y104850D02*X90550Y104350D01*
X85350Y97150D02*X87350D01*
X87850Y96650D01*
Y95650D01*
X87350Y95150D02*X87850Y95650D01*
X85850Y95150D02*X87350D01*
X85850Y97150D02*Y93150D01*
X86650Y95150D02*X87850Y93150D01*
X89050Y94650D02*X91050Y97150D01*
X89050Y94650D02*X91550D01*
X91050Y97150D02*Y93150D01*
X111500Y104500D02*X113500D01*
X114000Y104000D01*
Y103000D01*
X113500Y102500D02*X114000Y103000D01*
X112000Y102500D02*X113500D01*
X112000Y104500D02*Y100500D01*
X112800Y102500D02*X114000Y100500D01*
X116700Y104500D02*X117200Y104000D01*
X115700Y104500D02*X116700D01*
X115200Y104000D02*X115700Y104500D01*
X115200Y104000D02*Y101000D01*
X115700Y100500D01*
X116700Y102700D02*X117200Y102200D01*
X115200Y102700D02*X116700D01*
X115700Y100500D02*X116700D01*
X117200Y101000D01*
Y102200D02*Y101000D01*
X141000Y103500D02*Y102700D01*
Y103500D02*X144500D01*
X145000Y103000D02*X144500Y103500D01*
X145000Y103000D02*Y102500D01*
X144500Y102000D02*X145000Y102500D01*
X144000Y102000D02*X144500D01*
X141500Y104700D02*X141000Y105200D01*
Y106700D02*Y105200D01*
Y106700D02*X141500Y107200D01*
X142500D01*
X145000Y104700D02*X142500Y107200D01*
X145000D02*Y104700D01*
X17000Y146300D02*Y145500D01*
X13500D02*X17000D01*
X13000Y146000D02*X13500Y145500D01*
X13000Y146500D02*Y146000D01*
X13500Y147000D02*X13000Y146500D01*
X13500Y147000D02*X14000D01*
X16200Y144300D02*X17000Y143500D01*
X13000D02*X17000D01*
X13000Y144300D02*Y142800D01*
X17000Y106300D02*Y105500D01*
X13500D02*X17000D01*
X13000Y106000D02*X13500Y105500D01*
X13000Y106500D02*Y106000D01*
X13500Y107000D02*X13000Y106500D01*
X13500Y107000D02*X14000D01*
X16200Y104300D02*X17000Y103500D01*
X13000D02*X17000D01*
X13000Y104300D02*Y102800D01*
X17000Y66300D02*Y65500D01*
X13500D02*X17000D01*
X13000Y66000D02*X13500Y65500D01*
X13000Y66500D02*Y66000D01*
X13500Y67000D02*X13000Y66500D01*
X13500Y67000D02*X14000D01*
X16200Y64300D02*X17000Y63500D01*
X13000D02*X17000D01*
X13000Y64300D02*Y62800D01*
X17000Y26300D02*Y25500D01*
X13500D02*X17000D01*
X13000Y26000D02*X13500Y25500D01*
X13000Y26500D02*Y26000D01*
X13500Y27000D02*X13000Y26500D01*
X13500Y27000D02*X14000D01*
X16200Y24300D02*X17000Y23500D01*
X13000D02*X17000D01*
X13000Y24300D02*Y22800D01*
X44136Y147650D02*X45436D01*
X43436Y148350D02*X44136Y147650D01*
X43436Y150950D02*Y148350D01*
Y150950D02*X44136Y151650D01*
X45436D01*
X46636Y150850D02*X47436Y151650D01*
Y147650D01*
X46636D02*X48136D01*
X41436Y144650D02*X43436D01*
X43936Y144150D01*
Y143150D01*
X43436Y142650D02*X43936Y143150D01*
X41936Y142650D02*X43436D01*
X41936Y144650D02*Y140650D01*
X42736Y142650D02*X43936Y140650D01*
X45136Y143850D02*X45936Y144650D01*
Y140650D01*
X45136D02*X46636D01*
X44136Y107650D02*X45436D01*
X43436Y108350D02*X44136Y107650D01*
X43436Y110950D02*Y108350D01*
Y110950D02*X44136Y111650D01*
X45436D01*
X46636Y110850D02*X47436Y111650D01*
Y107650D01*
X46636D02*X48136D01*
X41436Y104650D02*X43436D01*
X43936Y104150D01*
Y103150D01*
X43436Y102650D02*X43936Y103150D01*
X41936Y102650D02*X43436D01*
X41936Y104650D02*Y100650D01*
X42736Y102650D02*X43936Y100650D01*
X45136Y103850D02*X45936Y104650D01*
Y100650D01*
X45136D02*X46636D01*
X44136Y67650D02*X45436D01*
X43436Y68350D02*X44136Y67650D01*
X43436Y70950D02*Y68350D01*
Y70950D02*X44136Y71650D01*
X45436D01*
X46636Y70850D02*X47436Y71650D01*
Y67650D01*
X46636D02*X48136D01*
X41436Y64650D02*X43436D01*
X43936Y64150D01*
Y63150D01*
X43436Y62650D02*X43936Y63150D01*
X41936Y62650D02*X43436D01*
X41936Y64650D02*Y60650D01*
X42736Y62650D02*X43936Y60650D01*
X45136Y63850D02*X45936Y64650D01*
Y60650D01*
X45136D02*X46636D01*
X44136Y27650D02*X45436D01*
X43436Y28350D02*X44136Y27650D01*
X43436Y30950D02*Y28350D01*
Y30950D02*X44136Y31650D01*
X45436D01*
X46636Y30850D02*X47436Y31650D01*
Y27650D01*
X46636D02*X48136D01*
X41436Y24650D02*X43436D01*
X43936Y24150D01*
Y23150D01*
X43436Y22650D02*X43936Y23150D01*
X41936Y22650D02*X43436D01*
X41936Y24650D02*Y20650D01*
X42736Y22650D02*X43936Y20650D01*
X45136Y23850D02*X45936Y24650D01*
Y20650D01*
X45136D02*X46636D01*
X85350Y77150D02*X87350D01*
X87850Y76650D01*
Y75650D01*
X87350Y75150D02*X87850Y75650D01*
X85850Y75150D02*X87350D01*
X85850Y77150D02*Y73150D01*
X86650Y75150D02*X87850Y73150D01*
X89050Y77150D02*X91050D01*
X89050D02*Y75150D01*
X89550Y75650D01*
X90550D01*
X91050Y75150D01*
Y73650D01*
X90550Y73150D02*X91050Y73650D01*
X89550Y73150D02*X90550D01*
X89050Y73650D02*X89550Y73150D01*
X78500Y63730D02*Y61035D01*
X78885Y60650D01*
X79655D01*
X80040Y61035D01*
Y63730D02*Y61035D01*
X80964Y63114D02*X81580Y63730D01*
Y60650D01*
X80964D02*X82119D01*
X70436Y58650D02*X72436D01*
X72936Y58150D01*
Y57150D01*
X72436Y56650D02*X72936Y57150D01*
X70936Y56650D02*X72436D01*
X70936Y58650D02*Y54650D01*
X71736Y56650D02*X72936Y54650D01*
X74136Y58150D02*X74636Y58650D01*
X76136D01*
X76636Y58150D01*
Y57150D01*
X74136Y54650D02*X76636Y57150D01*
X74136Y54650D02*X76636D01*
X85350Y66150D02*X87350D01*
X87850Y65650D01*
Y64650D01*
X87350Y64150D02*X87850Y64650D01*
X85850Y64150D02*X87350D01*
X85850Y66150D02*Y62150D01*
X86650Y64150D02*X87850Y62150D01*
X89050Y65650D02*X89550Y66150D01*
X90550D01*
X91050Y65650D01*
X90550Y62150D02*X91050Y62650D01*
X89550Y62150D02*X90550D01*
X89050Y62650D02*X89550Y62150D01*
Y64350D02*X90550D01*
X91050Y65650D02*Y64850D01*
Y63850D02*Y62650D01*
Y63850D02*X90550Y64350D01*
X91050Y64850D02*X90550Y64350D01*
X85350Y57150D02*X87350D01*
X87850Y56650D01*
Y55650D01*
X87350Y55150D02*X87850Y55650D01*
X85850Y55150D02*X87350D01*
X85850Y57150D02*Y53150D01*
X86650Y55150D02*X87850Y53150D01*
X89050Y54650D02*X91050Y57150D01*
X89050Y54650D02*X91550D01*
X91050Y57150D02*Y53150D01*
X111500Y64500D02*X113500D01*
X114000Y64000D01*
Y63000D01*
X113500Y62500D02*X114000Y63000D01*
X112000Y62500D02*X113500D01*
X112000Y64500D02*Y60500D01*
X112800Y62500D02*X114000Y60500D01*
X116700Y64500D02*X117200Y64000D01*
X115700Y64500D02*X116700D01*
X115200Y64000D02*X115700Y64500D01*
X115200Y64000D02*Y61000D01*
X115700Y60500D01*
X116700Y62700D02*X117200Y62200D01*
X115200Y62700D02*X116700D01*
X115700Y60500D02*X116700D01*
X117200Y61000D01*
Y62200D02*Y61000D01*
X141000Y63500D02*Y62700D01*
Y63500D02*X144500D01*
X145000Y63000D02*X144500Y63500D01*
X145000Y63000D02*Y62500D01*
X144500Y62000D02*X145000Y62500D01*
X144000Y62000D02*X144500D01*
X141500Y64700D02*X141000Y65200D01*
Y66700D02*Y65200D01*
Y66700D02*X141500Y67200D01*
X142500D01*
X145000Y64700D02*X142500Y67200D01*
X145000D02*Y64700D01*
X85350Y37150D02*X87350D01*
X87850Y36650D01*
Y35650D01*
X87350Y35150D02*X87850Y35650D01*
X85850Y35150D02*X87350D01*
X85850Y37150D02*Y33150D01*
X86650Y35150D02*X87850Y33150D01*
X89050Y37150D02*X91050D01*
X89050D02*Y35150D01*
X89550Y35650D01*
X90550D01*
X91050Y35150D01*
Y33650D01*
X90550Y33150D02*X91050Y33650D01*
X89550Y33150D02*X90550D01*
X89050Y33650D02*X89550Y33150D01*
X78500Y23730D02*Y21035D01*
X78885Y20650D01*
X79655D01*
X80040Y21035D01*
Y23730D02*Y21035D01*
X80964Y23114D02*X81580Y23730D01*
Y20650D01*
X80964D02*X82119D01*
X70436Y18650D02*X72436D01*
X72936Y18150D01*
Y17150D01*
X72436Y16650D02*X72936Y17150D01*
X70936Y16650D02*X72436D01*
X70936Y18650D02*Y14650D01*
X71736Y16650D02*X72936Y14650D01*
X74136Y18150D02*X74636Y18650D01*
X76136D01*
X76636Y18150D01*
Y17150D01*
X74136Y14650D02*X76636Y17150D01*
X74136Y14650D02*X76636D01*
X85350Y26150D02*X87350D01*
X87850Y25650D01*
Y24650D01*
X87350Y24150D02*X87850Y24650D01*
X85850Y24150D02*X87350D01*
X85850Y26150D02*Y22150D01*
X86650Y24150D02*X87850Y22150D01*
X89050Y25650D02*X89550Y26150D01*
X90550D01*
X91050Y25650D01*
X90550Y22150D02*X91050Y22650D01*
X89550Y22150D02*X90550D01*
X89050Y22650D02*X89550Y22150D01*
Y24350D02*X90550D01*
X91050Y25650D02*Y24850D01*
Y23850D02*Y22650D01*
Y23850D02*X90550Y24350D01*
X91050Y24850D02*X90550Y24350D01*
X85350Y17150D02*X87350D01*
X87850Y16650D01*
Y15650D01*
X87350Y15150D02*X87850Y15650D01*
X85850Y15150D02*X87350D01*
X85850Y17150D02*Y13150D01*
X86650Y15150D02*X87850Y13150D01*
X89050Y14650D02*X91050Y17150D01*
X89050Y14650D02*X91550D01*
X91050Y17150D02*Y13150D01*
X111500Y24500D02*X113500D01*
X114000Y24000D01*
Y23000D01*
X113500Y22500D02*X114000Y23000D01*
X112000Y22500D02*X113500D01*
X112000Y24500D02*Y20500D01*
X112800Y22500D02*X114000Y20500D01*
X116700Y24500D02*X117200Y24000D01*
X115700Y24500D02*X116700D01*
X115200Y24000D02*X115700Y24500D01*
X115200Y24000D02*Y21000D01*
X115700Y20500D01*
X116700Y22700D02*X117200Y22200D01*
X115200Y22700D02*X116700D01*
X115700Y20500D02*X116700D01*
X117200Y21000D01*
Y22200D02*Y21000D01*
X141000Y23500D02*Y22700D01*
Y23500D02*X144500D01*
X145000Y23000D02*X144500Y23500D01*
X145000Y23000D02*Y22500D01*
X144500Y22000D02*X145000Y22500D01*
X144000Y22000D02*X144500D01*
X141500Y24700D02*X141000Y25200D01*
Y26700D02*Y25200D01*
Y26700D02*X141500Y27200D01*
X142500D01*
X145000Y24700D02*X142500Y27200D01*
X145000D02*Y24700D01*
M02*
