G04 start of page 8 for group -4062 idx -4062 *
G04 Title: (unknown), soldermask *
G04 Creator: pcb 20140316 *
G04 CreationDate: Tue 26 Feb 2019 03:12:25 PM GMT UTC *
G04 For: railfan *
G04 Format: Gerber/RS-274X *
G04 PCB-Dimensions (mil): 1580.00 4900.00 *
G04 PCB-Coordinate-Origin: lower left *
%MOIN*%
%FSLAX25Y25*%
%LNBOTTOMMASK*%
%ADD41R,0.0300X0.0300*%
%ADD40C,0.0600*%
G54D40*X57557Y376500D03*
G54D41*X59057Y378000D02*Y375000D01*
G54D40*X64357Y376500D03*
G54D41*X62857Y378000D02*Y375000D01*
G54D40*X57557Y336500D03*
G54D41*X59057Y338000D02*Y335000D01*
G54D40*X64357Y336500D03*
G54D41*X62857Y338000D02*Y335000D01*
G54D40*X102400Y384000D03*
G54D41*X100900Y385500D02*Y382500D01*
G54D40*X102400Y375000D03*
G54D41*X100900Y376500D02*Y373500D01*
G54D40*X95600Y384000D03*
G54D41*X97100Y385500D02*Y382500D01*
G54D40*X95600Y375000D03*
G54D41*X97100Y376500D02*Y373500D01*
G54D40*X95600Y344000D03*
G54D41*X97100Y345500D02*Y342500D01*
G54D40*X95600Y335000D03*
G54D41*X97100Y336500D02*Y333500D01*
G54D40*X102400Y344000D03*
G54D41*X100900Y345500D02*Y342500D01*
G54D40*X102400Y335000D03*
G54D41*X100900Y336500D02*Y333500D01*
G54D40*X102400Y464000D03*
G54D41*X100900Y465500D02*Y462500D01*
G54D40*X95600Y464000D03*
G54D41*X97100Y465500D02*Y462500D01*
G54D40*X57557Y456500D03*
G54D41*X59057Y458000D02*Y455000D01*
G54D40*X64357Y456500D03*
G54D41*X62857Y458000D02*Y455000D01*
G54D40*X95600Y424000D03*
G54D41*X97100Y425500D02*Y422500D01*
G54D40*X102400Y424000D03*
G54D41*X100900Y425500D02*Y422500D01*
G54D40*X102400Y415000D03*
G54D41*X100900Y416500D02*Y413500D01*
G54D40*X95600Y415000D03*
G54D41*X97100Y416500D02*Y413500D01*
G54D40*X57557Y416500D03*
G54D41*X59057Y418000D02*Y415000D01*
G54D40*X102400Y455000D03*
G54D41*X100900Y456500D02*Y453500D01*
G54D40*X95600Y455000D03*
G54D41*X97100Y456500D02*Y453500D01*
G54D40*X64357Y416500D03*
G54D41*X62857Y418000D02*Y415000D01*
G54D40*X57557Y296500D03*
G54D41*X59057Y298000D02*Y295000D01*
G54D40*X64357Y296500D03*
G54D41*X62857Y298000D02*Y295000D01*
G54D40*X95600Y304000D03*
G54D41*X97100Y305500D02*Y302500D01*
G54D40*X95600Y295000D03*
G54D41*X97100Y296500D02*Y293500D01*
G54D40*X102400Y304000D03*
G54D41*X100900Y305500D02*Y302500D01*
G54D40*X102400Y295000D03*
G54D41*X100900Y296500D02*Y293500D01*
G54D40*X95600Y264000D03*
G54D41*X97100Y265500D02*Y262500D01*
G54D40*X95600Y255000D03*
G54D41*X97100Y256500D02*Y253500D01*
G54D40*X102400Y264000D03*
G54D41*X100900Y265500D02*Y262500D01*
G54D40*X102400Y255000D03*
G54D41*X100900Y256500D02*Y253500D01*
G54D40*X57557Y256500D03*
G54D41*X59057Y258000D02*Y255000D01*
G54D40*X64357Y256500D03*
G54D41*X62857Y258000D02*Y255000D01*
G54D40*X57557Y216500D03*
G54D41*X59057Y218000D02*Y215000D01*
G54D40*X64357Y216500D03*
G54D41*X62857Y218000D02*Y215000D01*
G54D40*X95600Y224000D03*
G54D41*X97100Y225500D02*Y222500D01*
G54D40*X95600Y215000D03*
G54D41*X97100Y216500D02*Y213500D01*
G54D40*X102400Y224000D03*
G54D41*X100900Y225500D02*Y222500D01*
G54D40*X102400Y215000D03*
G54D41*X100900Y216500D02*Y213500D01*
G54D40*X95600Y184000D03*
G54D41*X97100Y185500D02*Y182500D01*
G54D40*X95600Y175000D03*
G54D41*X97100Y176500D02*Y173500D01*
G54D40*X102400Y184000D03*
G54D41*X100900Y185500D02*Y182500D01*
G54D40*X102400Y175000D03*
G54D41*X100900Y176500D02*Y173500D01*
G54D40*X57557Y176500D03*
G54D41*X59057Y178000D02*Y175000D01*
G54D40*X64357Y176500D03*
G54D41*X62857Y178000D02*Y175000D01*
G54D40*X57557Y136500D03*
G54D41*X59057Y138000D02*Y135000D01*
G54D40*X64357Y136500D03*
G54D41*X62857Y138000D02*Y135000D01*
G54D40*X57557Y96500D03*
G54D41*X59057Y98000D02*Y95000D01*
G54D40*X64357Y96500D03*
G54D41*X62857Y98000D02*Y95000D01*
G54D40*X95600Y144000D03*
G54D41*X97100Y145500D02*Y142500D01*
G54D40*X95600Y135000D03*
G54D41*X97100Y136500D02*Y133500D01*
G54D40*X102400Y144000D03*
G54D41*X100900Y145500D02*Y142500D01*
G54D40*X102400Y135000D03*
G54D41*X100900Y136500D02*Y133500D01*
G54D40*X95600Y104000D03*
G54D41*X97100Y105500D02*Y102500D01*
G54D40*X95600Y95000D03*
G54D41*X97100Y96500D02*Y93500D01*
G54D40*X102400Y104000D03*
G54D41*X100900Y105500D02*Y102500D01*
G54D40*X102400Y95000D03*
G54D41*X100900Y96500D02*Y93500D01*
G54D40*X95600Y64000D03*
G54D41*X97100Y65500D02*Y62500D01*
G54D40*X95600Y55000D03*
G54D41*X97100Y56500D02*Y53500D01*
G54D40*X102400Y64000D03*
G54D41*X100900Y65500D02*Y62500D01*
G54D40*X102400Y55000D03*
G54D41*X100900Y56500D02*Y53500D01*
G54D40*X95600Y24000D03*
G54D41*X97100Y25500D02*Y22500D01*
G54D40*X95600Y15000D03*
G54D41*X97100Y16500D02*Y13500D01*
G54D40*X102400Y24000D03*
G54D41*X100900Y25500D02*Y22500D01*
G54D40*X102400Y15000D03*
G54D41*X100900Y16500D02*Y13500D01*
G54D40*X64357Y56500D03*
G54D41*X62857Y58000D02*Y55000D01*
G54D40*X57557Y56500D03*
G54D41*X59057Y58000D02*Y55000D01*
G54D40*X64357Y16500D03*
G54D41*X62857Y18000D02*Y15000D01*
G54D40*X57557Y16500D03*
G54D41*X59057Y18000D02*Y15000D01*
M02*
