G04 start of page 13 for group -3984 idx -3984 *
G04 Title: (unknown), fab *
G04 Creator: pcb 20140316 *
G04 CreationDate: Tue 26 Feb 2019 03:12:25 PM GMT UTC *
G04 For: railfan *
G04 Format: Gerber/RS-274X *
G04 PCB-Dimensions (mil): 1580.00 4900.00 *
G04 PCB-Coordinate-Origin: lower left *
%MOIN*%
%FSLAX25Y25*%
%LNFAB*%
%ADD55C,0.0100*%
%ADD54C,0.0075*%
%ADD53C,0.0060*%
%ADD52R,0.0080X0.0080*%
G54D52*X78000Y450600D02*Y447400D01*
X76400Y449000D02*X79600D01*
X73000Y450600D02*Y447400D01*
X71400Y449000D02*X74600D01*
X83000Y450600D02*Y447400D01*
X81400Y449000D02*X84600D01*
X78000Y442600D02*Y439400D01*
X76400Y441000D02*X79600D01*
X73000Y442600D02*Y439400D01*
X71400Y441000D02*X74600D01*
X83000Y442600D02*Y439400D01*
X81400Y441000D02*X84600D01*
X78000Y410600D02*Y407400D01*
X76400Y409000D02*X79600D01*
X73000Y410600D02*Y407400D01*
X71400Y409000D02*X74600D01*
X83000Y410600D02*Y407400D01*
X81400Y409000D02*X84600D01*
X78000Y402600D02*Y399400D01*
X76400Y401000D02*X79600D01*
X73000Y402600D02*Y399400D01*
X71400Y401000D02*X74600D01*
X83000Y402600D02*Y399400D01*
X81400Y401000D02*X84600D01*
X78000Y370600D02*Y367400D01*
X76400Y369000D02*X79600D01*
X73000Y370600D02*Y367400D01*
X71400Y369000D02*X74600D01*
X83000Y370600D02*Y367400D01*
X81400Y369000D02*X84600D01*
X78000Y362600D02*Y359400D01*
X76400Y361000D02*X79600D01*
X73000Y362600D02*Y359400D01*
X71400Y361000D02*X74600D01*
X83000Y362600D02*Y359400D01*
X81400Y361000D02*X84600D01*
X78000Y330600D02*Y327400D01*
X76400Y329000D02*X79600D01*
X73000Y330600D02*Y327400D01*
X71400Y329000D02*X74600D01*
X83000Y330600D02*Y327400D01*
X81400Y329000D02*X84600D01*
X78000Y322600D02*Y319400D01*
X76400Y321000D02*X79600D01*
X73000Y322600D02*Y319400D01*
X71400Y321000D02*X74600D01*
X83000Y322600D02*Y319400D01*
X81400Y321000D02*X84600D01*
X78000Y290600D02*Y287400D01*
X76400Y289000D02*X79600D01*
X73000Y290600D02*Y287400D01*
X71400Y289000D02*X74600D01*
X83000Y290600D02*Y287400D01*
X81400Y289000D02*X84600D01*
X78000Y282600D02*Y279400D01*
X76400Y281000D02*X79600D01*
X73000Y282600D02*Y279400D01*
X71400Y281000D02*X74600D01*
X83000Y282600D02*Y279400D01*
X81400Y281000D02*X84600D01*
X78000Y250600D02*Y247400D01*
X76400Y249000D02*X79600D01*
X73000Y250600D02*Y247400D01*
X71400Y249000D02*X74600D01*
X83000Y250600D02*Y247400D01*
X81400Y249000D02*X84600D01*
X78000Y242600D02*Y239400D01*
X76400Y241000D02*X79600D01*
X73000Y242600D02*Y239400D01*
X71400Y241000D02*X74600D01*
X83000Y242600D02*Y239400D01*
X81400Y241000D02*X84600D01*
X78000Y210600D02*Y207400D01*
X76400Y209000D02*X79600D01*
X73000Y210600D02*Y207400D01*
X71400Y209000D02*X74600D01*
X83000Y210600D02*Y207400D01*
X81400Y209000D02*X84600D01*
X78000Y202600D02*Y199400D01*
X76400Y201000D02*X79600D01*
X73000Y202600D02*Y199400D01*
X71400Y201000D02*X74600D01*
X83000Y202600D02*Y199400D01*
X81400Y201000D02*X84600D01*
X78000Y170600D02*Y167400D01*
X76400Y169000D02*X79600D01*
X73000Y170600D02*Y167400D01*
X71400Y169000D02*X74600D01*
X83000Y170600D02*Y167400D01*
X81400Y169000D02*X84600D01*
X78000Y162600D02*Y159400D01*
X76400Y161000D02*X79600D01*
X73000Y162600D02*Y159400D01*
X71400Y161000D02*X74600D01*
X83000Y162600D02*Y159400D01*
X81400Y161000D02*X84600D01*
X78000Y130600D02*Y127400D01*
X76400Y129000D02*X79600D01*
X73000Y130600D02*Y127400D01*
X71400Y129000D02*X74600D01*
X83000Y130600D02*Y127400D01*
X81400Y129000D02*X84600D01*
X78000Y122600D02*Y119400D01*
X76400Y121000D02*X79600D01*
X73000Y122600D02*Y119400D01*
X71400Y121000D02*X74600D01*
X83000Y122600D02*Y119400D01*
X81400Y121000D02*X84600D01*
X78000Y90600D02*Y87400D01*
X76400Y89000D02*X79600D01*
X73000Y90600D02*Y87400D01*
X71400Y89000D02*X74600D01*
X83000Y90600D02*Y87400D01*
X81400Y89000D02*X84600D01*
X78000Y82600D02*Y79400D01*
X76400Y81000D02*X79600D01*
X73000Y82600D02*Y79400D01*
X71400Y81000D02*X74600D01*
X83000Y82600D02*Y79400D01*
X81400Y81000D02*X84600D01*
X78000Y50600D02*Y47400D01*
X76400Y49000D02*X79600D01*
X73000Y50600D02*Y47400D01*
X71400Y49000D02*X74600D01*
X83000Y50600D02*Y47400D01*
X81400Y49000D02*X84600D01*
X78000Y42600D02*Y39400D01*
X76400Y41000D02*X79600D01*
X73000Y42600D02*Y39400D01*
X71400Y41000D02*X74600D01*
X83000Y42600D02*Y39400D01*
X81400Y41000D02*X84600D01*
X15000Y532850D02*Y529650D01*
X13400Y531250D02*X16600D01*
G54D53*X140000Y533500D02*Y527500D01*
Y533500D02*X143750Y527500D01*
Y533500D02*Y527500D01*
X145550Y532750D02*Y528250D01*
Y532750D02*X146300Y533500D01*
X147800D01*
X148550Y532750D01*
Y528250D01*
X147800Y527500D02*X148550Y528250D01*
X146300Y527500D02*X147800D01*
X145550Y528250D02*X146300Y527500D01*
X100250Y533500D02*X101000Y532750D01*
X98750Y533500D02*X100250D01*
X98000Y532750D02*X98750Y533500D01*
X98000Y532750D02*Y528250D01*
X98750Y527500D01*
X100250Y530800D02*X101000Y530050D01*
X98000Y530800D02*X100250D01*
X98750Y527500D02*X100250D01*
X101000Y528250D01*
Y530050D02*Y528250D01*
X105050Y533500D02*X105800Y532750D01*
X103550Y533500D02*X105050D01*
X102800Y532750D02*X103550Y533500D01*
X102800Y532750D02*Y528250D01*
X103550Y527500D01*
X105050Y530800D02*X105800Y530050D01*
X102800Y530800D02*X105050D01*
X103550Y527500D02*X105050D01*
X105800Y528250D01*
Y530050D02*Y528250D01*
X45000D02*X45750Y527500D01*
X45000Y532750D02*Y528250D01*
Y532750D02*X45750Y533500D01*
X47250D01*
X48000Y532750D01*
Y528250D01*
X47250Y527500D02*X48000Y528250D01*
X45750Y527500D02*X47250D01*
X45000Y529000D02*X48000Y532000D01*
X49800Y527500D02*X50550D01*
X52350Y528250D02*X53100Y527500D01*
X52350Y532750D02*Y528250D01*
Y532750D02*X53100Y533500D01*
X54600D01*
X55350Y532750D01*
Y528250D01*
X54600Y527500D02*X55350Y528250D01*
X53100Y527500D02*X54600D01*
X52350Y529000D02*X55350Y532000D01*
X57150Y532750D02*X57900Y533500D01*
X59400D01*
X60150Y532750D01*
X59400Y527500D02*X60150Y528250D01*
X57900Y527500D02*X59400D01*
X57150Y528250D02*X57900Y527500D01*
Y530800D02*X59400D01*
X60150Y532750D02*Y531550D01*
Y530050D02*Y528250D01*
Y530050D02*X59400Y530800D01*
X60150Y531550D02*X59400Y530800D01*
X61950Y532300D02*X63150Y533500D01*
Y527500D01*
X61950D02*X64200D01*
X53000Y456500D02*Y454900D01*
Y456500D02*X54387Y457300D01*
X53000Y456500D02*X51613Y457300D01*
X36063Y459094D02*Y457494D01*
Y459094D02*X37450Y459894D01*
X36063Y459094D02*X34676Y459894D01*
X36063Y463031D02*Y461431D01*
Y463031D02*X37450Y463831D01*
X36063Y463031D02*X34676Y463831D01*
X69000Y456500D02*Y454900D01*
Y456500D02*X70387Y457300D01*
X69000Y456500D02*X67613Y457300D01*
X107500Y464000D02*Y462400D01*
Y464000D02*X108887Y464800D01*
X107500Y464000D02*X106113Y464800D01*
X107500Y455000D02*Y453400D01*
Y455000D02*X108887Y455800D01*
X107500Y455000D02*X106113Y455800D01*
X91000Y459500D02*Y457900D01*
Y459500D02*X92387Y460300D01*
X91000Y459500D02*X89613Y460300D01*
X35500Y473500D02*Y471900D01*
Y473500D02*X36887Y474300D01*
X35500Y473500D02*X34113Y474300D01*
X39500Y473500D02*Y471900D01*
Y473500D02*X40887Y474300D01*
X39500Y473500D02*X38113Y474300D01*
X43500Y473500D02*Y471900D01*
Y473500D02*X44887Y474300D01*
X43500Y473500D02*X42113Y474300D01*
X47500Y473500D02*Y471900D01*
Y473500D02*X48887Y474300D01*
X47500Y473500D02*X46113Y474300D01*
X120500Y463031D02*Y461431D01*
Y463031D02*X121887Y463831D01*
X120500Y463031D02*X119113Y463831D01*
X23000Y466969D02*Y465369D01*
Y466969D02*X24387Y467769D01*
X23000Y466969D02*X21613Y467769D01*
X107500Y473500D02*Y471900D01*
Y473500D02*X108887Y474300D01*
X107500Y473500D02*X106113Y474300D01*
X71500Y462500D02*Y460900D01*
Y462500D02*X72887Y463300D01*
X71500Y462500D02*X70113Y463300D01*
X75000Y464000D02*Y462400D01*
Y464000D02*X76387Y464800D01*
X75000Y464000D02*X73613Y464800D01*
X126000Y455000D02*Y453400D01*
Y455000D02*X127387Y455800D01*
X126000Y455000D02*X124613Y455800D01*
X130000Y455000D02*Y453400D01*
Y455000D02*X131387Y455800D01*
X130000Y455000D02*X128613Y455800D01*
X116500Y474500D02*Y472900D01*
Y474500D02*X117887Y475300D01*
X116500Y474500D02*X115113Y475300D01*
X53000Y416500D02*Y414900D01*
Y416500D02*X54387Y417300D01*
X53000Y416500D02*X51613Y417300D01*
X36063Y419094D02*Y417494D01*
Y419094D02*X37450Y419894D01*
X36063Y419094D02*X34676Y419894D01*
X36063Y423031D02*Y421431D01*
Y423031D02*X37450Y423831D01*
X36063Y423031D02*X34676Y423831D01*
X69000Y416500D02*Y414900D01*
Y416500D02*X70387Y417300D01*
X69000Y416500D02*X67613Y417300D01*
X107500Y424000D02*Y422400D01*
Y424000D02*X108887Y424800D01*
X107500Y424000D02*X106113Y424800D01*
X107500Y415000D02*Y413400D01*
Y415000D02*X108887Y415800D01*
X107500Y415000D02*X106113Y415800D01*
X91000Y419500D02*Y417900D01*
Y419500D02*X92387Y420300D01*
X91000Y419500D02*X89613Y420300D01*
X35500Y433500D02*Y431900D01*
Y433500D02*X36887Y434300D01*
X35500Y433500D02*X34113Y434300D01*
X39500Y433500D02*Y431900D01*
Y433500D02*X40887Y434300D01*
X39500Y433500D02*X38113Y434300D01*
X43500Y433500D02*Y431900D01*
Y433500D02*X44887Y434300D01*
X43500Y433500D02*X42113Y434300D01*
X47500Y433500D02*Y431900D01*
Y433500D02*X48887Y434300D01*
X47500Y433500D02*X46113Y434300D01*
X120500Y423031D02*Y421431D01*
Y423031D02*X121887Y423831D01*
X120500Y423031D02*X119113Y423831D01*
X23000Y426969D02*Y425369D01*
Y426969D02*X24387Y427769D01*
X23000Y426969D02*X21613Y427769D01*
X107500Y433500D02*Y431900D01*
Y433500D02*X108887Y434300D01*
X107500Y433500D02*X106113Y434300D01*
X71500Y422500D02*Y420900D01*
Y422500D02*X72887Y423300D01*
X71500Y422500D02*X70113Y423300D01*
X75000Y424000D02*Y422400D01*
Y424000D02*X76387Y424800D01*
X75000Y424000D02*X73613Y424800D01*
X126000Y415000D02*Y413400D01*
Y415000D02*X127387Y415800D01*
X126000Y415000D02*X124613Y415800D01*
X130000Y415000D02*Y413400D01*
Y415000D02*X131387Y415800D01*
X130000Y415000D02*X128613Y415800D01*
X116500Y434500D02*Y432900D01*
Y434500D02*X117887Y435300D01*
X116500Y434500D02*X115113Y435300D01*
X53000Y376500D02*Y374900D01*
Y376500D02*X54387Y377300D01*
X53000Y376500D02*X51613Y377300D01*
X36063Y379094D02*Y377494D01*
Y379094D02*X37450Y379894D01*
X36063Y379094D02*X34676Y379894D01*
X36063Y383031D02*Y381431D01*
Y383031D02*X37450Y383831D01*
X36063Y383031D02*X34676Y383831D01*
X69000Y376500D02*Y374900D01*
Y376500D02*X70387Y377300D01*
X69000Y376500D02*X67613Y377300D01*
X107500Y384000D02*Y382400D01*
Y384000D02*X108887Y384800D01*
X107500Y384000D02*X106113Y384800D01*
X107500Y375000D02*Y373400D01*
Y375000D02*X108887Y375800D01*
X107500Y375000D02*X106113Y375800D01*
X91000Y379500D02*Y377900D01*
Y379500D02*X92387Y380300D01*
X91000Y379500D02*X89613Y380300D01*
X35500Y393500D02*Y391900D01*
Y393500D02*X36887Y394300D01*
X35500Y393500D02*X34113Y394300D01*
X39500Y393500D02*Y391900D01*
Y393500D02*X40887Y394300D01*
X39500Y393500D02*X38113Y394300D01*
X43500Y393500D02*Y391900D01*
Y393500D02*X44887Y394300D01*
X43500Y393500D02*X42113Y394300D01*
X47500Y393500D02*Y391900D01*
Y393500D02*X48887Y394300D01*
X47500Y393500D02*X46113Y394300D01*
X120500Y383031D02*Y381431D01*
Y383031D02*X121887Y383831D01*
X120500Y383031D02*X119113Y383831D01*
X23000Y386969D02*Y385369D01*
Y386969D02*X24387Y387769D01*
X23000Y386969D02*X21613Y387769D01*
X107500Y393500D02*Y391900D01*
Y393500D02*X108887Y394300D01*
X107500Y393500D02*X106113Y394300D01*
X71500Y382500D02*Y380900D01*
Y382500D02*X72887Y383300D01*
X71500Y382500D02*X70113Y383300D01*
X75000Y384000D02*Y382400D01*
Y384000D02*X76387Y384800D01*
X75000Y384000D02*X73613Y384800D01*
X126000Y375000D02*Y373400D01*
Y375000D02*X127387Y375800D01*
X126000Y375000D02*X124613Y375800D01*
X130000Y375000D02*Y373400D01*
Y375000D02*X131387Y375800D01*
X130000Y375000D02*X128613Y375800D01*
X116500Y394500D02*Y392900D01*
Y394500D02*X117887Y395300D01*
X116500Y394500D02*X115113Y395300D01*
X53000Y336500D02*Y334900D01*
Y336500D02*X54387Y337300D01*
X53000Y336500D02*X51613Y337300D01*
X36063Y339094D02*Y337494D01*
Y339094D02*X37450Y339894D01*
X36063Y339094D02*X34676Y339894D01*
X36063Y343031D02*Y341431D01*
Y343031D02*X37450Y343831D01*
X36063Y343031D02*X34676Y343831D01*
X69000Y336500D02*Y334900D01*
Y336500D02*X70387Y337300D01*
X69000Y336500D02*X67613Y337300D01*
X107500Y344000D02*Y342400D01*
Y344000D02*X108887Y344800D01*
X107500Y344000D02*X106113Y344800D01*
X107500Y335000D02*Y333400D01*
Y335000D02*X108887Y335800D01*
X107500Y335000D02*X106113Y335800D01*
X91000Y339500D02*Y337900D01*
Y339500D02*X92387Y340300D01*
X91000Y339500D02*X89613Y340300D01*
X35500Y353500D02*Y351900D01*
Y353500D02*X36887Y354300D01*
X35500Y353500D02*X34113Y354300D01*
X39500Y353500D02*Y351900D01*
Y353500D02*X40887Y354300D01*
X39500Y353500D02*X38113Y354300D01*
X43500Y353500D02*Y351900D01*
Y353500D02*X44887Y354300D01*
X43500Y353500D02*X42113Y354300D01*
X47500Y353500D02*Y351900D01*
Y353500D02*X48887Y354300D01*
X47500Y353500D02*X46113Y354300D01*
X120500Y343031D02*Y341431D01*
Y343031D02*X121887Y343831D01*
X120500Y343031D02*X119113Y343831D01*
X23000Y346969D02*Y345369D01*
Y346969D02*X24387Y347769D01*
X23000Y346969D02*X21613Y347769D01*
X107500Y353500D02*Y351900D01*
Y353500D02*X108887Y354300D01*
X107500Y353500D02*X106113Y354300D01*
X71500Y342500D02*Y340900D01*
Y342500D02*X72887Y343300D01*
X71500Y342500D02*X70113Y343300D01*
X75000Y344000D02*Y342400D01*
Y344000D02*X76387Y344800D01*
X75000Y344000D02*X73613Y344800D01*
X126000Y335000D02*Y333400D01*
Y335000D02*X127387Y335800D01*
X126000Y335000D02*X124613Y335800D01*
X130000Y335000D02*Y333400D01*
Y335000D02*X131387Y335800D01*
X130000Y335000D02*X128613Y335800D01*
X116500Y354500D02*Y352900D01*
Y354500D02*X117887Y355300D01*
X116500Y354500D02*X115113Y355300D01*
X53000Y296500D02*Y294900D01*
Y296500D02*X54387Y297300D01*
X53000Y296500D02*X51613Y297300D01*
X36063Y299094D02*Y297494D01*
Y299094D02*X37450Y299894D01*
X36063Y299094D02*X34676Y299894D01*
X36063Y303031D02*Y301431D01*
Y303031D02*X37450Y303831D01*
X36063Y303031D02*X34676Y303831D01*
X69000Y296500D02*Y294900D01*
Y296500D02*X70387Y297300D01*
X69000Y296500D02*X67613Y297300D01*
X107500Y304000D02*Y302400D01*
Y304000D02*X108887Y304800D01*
X107500Y304000D02*X106113Y304800D01*
X107500Y295000D02*Y293400D01*
Y295000D02*X108887Y295800D01*
X107500Y295000D02*X106113Y295800D01*
X91000Y299500D02*Y297900D01*
Y299500D02*X92387Y300300D01*
X91000Y299500D02*X89613Y300300D01*
X35500Y313500D02*Y311900D01*
Y313500D02*X36887Y314300D01*
X35500Y313500D02*X34113Y314300D01*
X39500Y313500D02*Y311900D01*
Y313500D02*X40887Y314300D01*
X39500Y313500D02*X38113Y314300D01*
X43500Y313500D02*Y311900D01*
Y313500D02*X44887Y314300D01*
X43500Y313500D02*X42113Y314300D01*
X47500Y313500D02*Y311900D01*
Y313500D02*X48887Y314300D01*
X47500Y313500D02*X46113Y314300D01*
X120500Y303031D02*Y301431D01*
Y303031D02*X121887Y303831D01*
X120500Y303031D02*X119113Y303831D01*
X23000Y306969D02*Y305369D01*
Y306969D02*X24387Y307769D01*
X23000Y306969D02*X21613Y307769D01*
X107500Y313500D02*Y311900D01*
Y313500D02*X108887Y314300D01*
X107500Y313500D02*X106113Y314300D01*
X71500Y302500D02*Y300900D01*
Y302500D02*X72887Y303300D01*
X71500Y302500D02*X70113Y303300D01*
X75000Y304000D02*Y302400D01*
Y304000D02*X76387Y304800D01*
X75000Y304000D02*X73613Y304800D01*
X126000Y295000D02*Y293400D01*
Y295000D02*X127387Y295800D01*
X126000Y295000D02*X124613Y295800D01*
X130000Y295000D02*Y293400D01*
Y295000D02*X131387Y295800D01*
X130000Y295000D02*X128613Y295800D01*
X116500Y314500D02*Y312900D01*
Y314500D02*X117887Y315300D01*
X116500Y314500D02*X115113Y315300D01*
X53000Y256500D02*Y254900D01*
Y256500D02*X54387Y257300D01*
X53000Y256500D02*X51613Y257300D01*
X36063Y259094D02*Y257494D01*
Y259094D02*X37450Y259894D01*
X36063Y259094D02*X34676Y259894D01*
X36063Y263031D02*Y261431D01*
Y263031D02*X37450Y263831D01*
X36063Y263031D02*X34676Y263831D01*
X69000Y256500D02*Y254900D01*
Y256500D02*X70387Y257300D01*
X69000Y256500D02*X67613Y257300D01*
X107500Y264000D02*Y262400D01*
Y264000D02*X108887Y264800D01*
X107500Y264000D02*X106113Y264800D01*
X107500Y255000D02*Y253400D01*
Y255000D02*X108887Y255800D01*
X107500Y255000D02*X106113Y255800D01*
X91000Y259500D02*Y257900D01*
Y259500D02*X92387Y260300D01*
X91000Y259500D02*X89613Y260300D01*
X35500Y273500D02*Y271900D01*
Y273500D02*X36887Y274300D01*
X35500Y273500D02*X34113Y274300D01*
X39500Y273500D02*Y271900D01*
Y273500D02*X40887Y274300D01*
X39500Y273500D02*X38113Y274300D01*
X43500Y273500D02*Y271900D01*
Y273500D02*X44887Y274300D01*
X43500Y273500D02*X42113Y274300D01*
X47500Y273500D02*Y271900D01*
Y273500D02*X48887Y274300D01*
X47500Y273500D02*X46113Y274300D01*
X120500Y263031D02*Y261431D01*
Y263031D02*X121887Y263831D01*
X120500Y263031D02*X119113Y263831D01*
X23000Y266969D02*Y265369D01*
Y266969D02*X24387Y267769D01*
X23000Y266969D02*X21613Y267769D01*
X107500Y273500D02*Y271900D01*
Y273500D02*X108887Y274300D01*
X107500Y273500D02*X106113Y274300D01*
X71500Y262500D02*Y260900D01*
Y262500D02*X72887Y263300D01*
X71500Y262500D02*X70113Y263300D01*
X75000Y264000D02*Y262400D01*
Y264000D02*X76387Y264800D01*
X75000Y264000D02*X73613Y264800D01*
X126000Y255000D02*Y253400D01*
Y255000D02*X127387Y255800D01*
X126000Y255000D02*X124613Y255800D01*
X130000Y255000D02*Y253400D01*
Y255000D02*X131387Y255800D01*
X130000Y255000D02*X128613Y255800D01*
X116500Y274500D02*Y272900D01*
Y274500D02*X117887Y275300D01*
X116500Y274500D02*X115113Y275300D01*
X53000Y216500D02*Y214900D01*
Y216500D02*X54387Y217300D01*
X53000Y216500D02*X51613Y217300D01*
X36063Y219094D02*Y217494D01*
Y219094D02*X37450Y219894D01*
X36063Y219094D02*X34676Y219894D01*
X36063Y223031D02*Y221431D01*
Y223031D02*X37450Y223831D01*
X36063Y223031D02*X34676Y223831D01*
X69000Y216500D02*Y214900D01*
Y216500D02*X70387Y217300D01*
X69000Y216500D02*X67613Y217300D01*
X107500Y224000D02*Y222400D01*
Y224000D02*X108887Y224800D01*
X107500Y224000D02*X106113Y224800D01*
X107500Y215000D02*Y213400D01*
Y215000D02*X108887Y215800D01*
X107500Y215000D02*X106113Y215800D01*
X91000Y219500D02*Y217900D01*
Y219500D02*X92387Y220300D01*
X91000Y219500D02*X89613Y220300D01*
X35500Y233500D02*Y231900D01*
Y233500D02*X36887Y234300D01*
X35500Y233500D02*X34113Y234300D01*
X39500Y233500D02*Y231900D01*
Y233500D02*X40887Y234300D01*
X39500Y233500D02*X38113Y234300D01*
X43500Y233500D02*Y231900D01*
Y233500D02*X44887Y234300D01*
X43500Y233500D02*X42113Y234300D01*
X47500Y233500D02*Y231900D01*
Y233500D02*X48887Y234300D01*
X47500Y233500D02*X46113Y234300D01*
X120500Y223031D02*Y221431D01*
Y223031D02*X121887Y223831D01*
X120500Y223031D02*X119113Y223831D01*
X23000Y226969D02*Y225369D01*
Y226969D02*X24387Y227769D01*
X23000Y226969D02*X21613Y227769D01*
X107500Y233500D02*Y231900D01*
Y233500D02*X108887Y234300D01*
X107500Y233500D02*X106113Y234300D01*
X71500Y222500D02*Y220900D01*
Y222500D02*X72887Y223300D01*
X71500Y222500D02*X70113Y223300D01*
X75000Y224000D02*Y222400D01*
Y224000D02*X76387Y224800D01*
X75000Y224000D02*X73613Y224800D01*
X126000Y215000D02*Y213400D01*
Y215000D02*X127387Y215800D01*
X126000Y215000D02*X124613Y215800D01*
X130000Y215000D02*Y213400D01*
Y215000D02*X131387Y215800D01*
X130000Y215000D02*X128613Y215800D01*
X116500Y234500D02*Y232900D01*
Y234500D02*X117887Y235300D01*
X116500Y234500D02*X115113Y235300D01*
X53000Y176500D02*Y174900D01*
Y176500D02*X54387Y177300D01*
X53000Y176500D02*X51613Y177300D01*
X36063Y179094D02*Y177494D01*
Y179094D02*X37450Y179894D01*
X36063Y179094D02*X34676Y179894D01*
X36063Y183031D02*Y181431D01*
Y183031D02*X37450Y183831D01*
X36063Y183031D02*X34676Y183831D01*
X69000Y176500D02*Y174900D01*
Y176500D02*X70387Y177300D01*
X69000Y176500D02*X67613Y177300D01*
X107500Y184000D02*Y182400D01*
Y184000D02*X108887Y184800D01*
X107500Y184000D02*X106113Y184800D01*
X107500Y175000D02*Y173400D01*
Y175000D02*X108887Y175800D01*
X107500Y175000D02*X106113Y175800D01*
X91000Y179500D02*Y177900D01*
Y179500D02*X92387Y180300D01*
X91000Y179500D02*X89613Y180300D01*
X35500Y193500D02*Y191900D01*
Y193500D02*X36887Y194300D01*
X35500Y193500D02*X34113Y194300D01*
X39500Y193500D02*Y191900D01*
Y193500D02*X40887Y194300D01*
X39500Y193500D02*X38113Y194300D01*
X43500Y193500D02*Y191900D01*
Y193500D02*X44887Y194300D01*
X43500Y193500D02*X42113Y194300D01*
X47500Y193500D02*Y191900D01*
Y193500D02*X48887Y194300D01*
X47500Y193500D02*X46113Y194300D01*
X120500Y183031D02*Y181431D01*
Y183031D02*X121887Y183831D01*
X120500Y183031D02*X119113Y183831D01*
X23000Y186969D02*Y185369D01*
Y186969D02*X24387Y187769D01*
X23000Y186969D02*X21613Y187769D01*
X107500Y193500D02*Y191900D01*
Y193500D02*X108887Y194300D01*
X107500Y193500D02*X106113Y194300D01*
X71500Y182500D02*Y180900D01*
Y182500D02*X72887Y183300D01*
X71500Y182500D02*X70113Y183300D01*
X75000Y184000D02*Y182400D01*
Y184000D02*X76387Y184800D01*
X75000Y184000D02*X73613Y184800D01*
X126000Y175000D02*Y173400D01*
Y175000D02*X127387Y175800D01*
X126000Y175000D02*X124613Y175800D01*
X130000Y175000D02*Y173400D01*
Y175000D02*X131387Y175800D01*
X130000Y175000D02*X128613Y175800D01*
X116500Y194500D02*Y192900D01*
Y194500D02*X117887Y195300D01*
X116500Y194500D02*X115113Y195300D01*
X53000Y136500D02*Y134900D01*
Y136500D02*X54387Y137300D01*
X53000Y136500D02*X51613Y137300D01*
X36063Y139094D02*Y137494D01*
Y139094D02*X37450Y139894D01*
X36063Y139094D02*X34676Y139894D01*
X36063Y143031D02*Y141431D01*
Y143031D02*X37450Y143831D01*
X36063Y143031D02*X34676Y143831D01*
X69000Y136500D02*Y134900D01*
Y136500D02*X70387Y137300D01*
X69000Y136500D02*X67613Y137300D01*
X107500Y144000D02*Y142400D01*
Y144000D02*X108887Y144800D01*
X107500Y144000D02*X106113Y144800D01*
X107500Y135000D02*Y133400D01*
Y135000D02*X108887Y135800D01*
X107500Y135000D02*X106113Y135800D01*
X91000Y139500D02*Y137900D01*
Y139500D02*X92387Y140300D01*
X91000Y139500D02*X89613Y140300D01*
X35500Y153500D02*Y151900D01*
Y153500D02*X36887Y154300D01*
X35500Y153500D02*X34113Y154300D01*
X39500Y153500D02*Y151900D01*
Y153500D02*X40887Y154300D01*
X39500Y153500D02*X38113Y154300D01*
X43500Y153500D02*Y151900D01*
Y153500D02*X44887Y154300D01*
X43500Y153500D02*X42113Y154300D01*
X47500Y153500D02*Y151900D01*
Y153500D02*X48887Y154300D01*
X47500Y153500D02*X46113Y154300D01*
X120500Y143031D02*Y141431D01*
Y143031D02*X121887Y143831D01*
X120500Y143031D02*X119113Y143831D01*
X23000Y146969D02*Y145369D01*
Y146969D02*X24387Y147769D01*
X23000Y146969D02*X21613Y147769D01*
X107500Y153500D02*Y151900D01*
Y153500D02*X108887Y154300D01*
X107500Y153500D02*X106113Y154300D01*
X71500Y142500D02*Y140900D01*
Y142500D02*X72887Y143300D01*
X71500Y142500D02*X70113Y143300D01*
X75000Y144000D02*Y142400D01*
Y144000D02*X76387Y144800D01*
X75000Y144000D02*X73613Y144800D01*
X126000Y135000D02*Y133400D01*
Y135000D02*X127387Y135800D01*
X126000Y135000D02*X124613Y135800D01*
X130000Y135000D02*Y133400D01*
Y135000D02*X131387Y135800D01*
X130000Y135000D02*X128613Y135800D01*
X116500Y154500D02*Y152900D01*
Y154500D02*X117887Y155300D01*
X116500Y154500D02*X115113Y155300D01*
X53000Y96500D02*Y94900D01*
Y96500D02*X54387Y97300D01*
X53000Y96500D02*X51613Y97300D01*
X36063Y99094D02*Y97494D01*
Y99094D02*X37450Y99894D01*
X36063Y99094D02*X34676Y99894D01*
X36063Y103031D02*Y101431D01*
Y103031D02*X37450Y103831D01*
X36063Y103031D02*X34676Y103831D01*
X69000Y96500D02*Y94900D01*
Y96500D02*X70387Y97300D01*
X69000Y96500D02*X67613Y97300D01*
X107500Y104000D02*Y102400D01*
Y104000D02*X108887Y104800D01*
X107500Y104000D02*X106113Y104800D01*
X107500Y95000D02*Y93400D01*
Y95000D02*X108887Y95800D01*
X107500Y95000D02*X106113Y95800D01*
X91000Y99500D02*Y97900D01*
Y99500D02*X92387Y100300D01*
X91000Y99500D02*X89613Y100300D01*
X35500Y113500D02*Y111900D01*
Y113500D02*X36887Y114300D01*
X35500Y113500D02*X34113Y114300D01*
X39500Y113500D02*Y111900D01*
Y113500D02*X40887Y114300D01*
X39500Y113500D02*X38113Y114300D01*
X43500Y113500D02*Y111900D01*
Y113500D02*X44887Y114300D01*
X43500Y113500D02*X42113Y114300D01*
X47500Y113500D02*Y111900D01*
Y113500D02*X48887Y114300D01*
X47500Y113500D02*X46113Y114300D01*
X120500Y103031D02*Y101431D01*
Y103031D02*X121887Y103831D01*
X120500Y103031D02*X119113Y103831D01*
X23000Y106969D02*Y105369D01*
Y106969D02*X24387Y107769D01*
X23000Y106969D02*X21613Y107769D01*
X107500Y113500D02*Y111900D01*
Y113500D02*X108887Y114300D01*
X107500Y113500D02*X106113Y114300D01*
X71500Y102500D02*Y100900D01*
Y102500D02*X72887Y103300D01*
X71500Y102500D02*X70113Y103300D01*
X75000Y104000D02*Y102400D01*
Y104000D02*X76387Y104800D01*
X75000Y104000D02*X73613Y104800D01*
X126000Y95000D02*Y93400D01*
Y95000D02*X127387Y95800D01*
X126000Y95000D02*X124613Y95800D01*
X130000Y95000D02*Y93400D01*
Y95000D02*X131387Y95800D01*
X130000Y95000D02*X128613Y95800D01*
X116500Y114500D02*Y112900D01*
Y114500D02*X117887Y115300D01*
X116500Y114500D02*X115113Y115300D01*
X53000Y56500D02*Y54900D01*
Y56500D02*X54387Y57300D01*
X53000Y56500D02*X51613Y57300D01*
X36063Y59094D02*Y57494D01*
Y59094D02*X37450Y59894D01*
X36063Y59094D02*X34676Y59894D01*
X36063Y63031D02*Y61431D01*
Y63031D02*X37450Y63831D01*
X36063Y63031D02*X34676Y63831D01*
X69000Y56500D02*Y54900D01*
Y56500D02*X70387Y57300D01*
X69000Y56500D02*X67613Y57300D01*
X107500Y64000D02*Y62400D01*
Y64000D02*X108887Y64800D01*
X107500Y64000D02*X106113Y64800D01*
X107500Y55000D02*Y53400D01*
Y55000D02*X108887Y55800D01*
X107500Y55000D02*X106113Y55800D01*
X91000Y59500D02*Y57900D01*
Y59500D02*X92387Y60300D01*
X91000Y59500D02*X89613Y60300D01*
X35500Y73500D02*Y71900D01*
Y73500D02*X36887Y74300D01*
X35500Y73500D02*X34113Y74300D01*
X39500Y73500D02*Y71900D01*
Y73500D02*X40887Y74300D01*
X39500Y73500D02*X38113Y74300D01*
X43500Y73500D02*Y71900D01*
Y73500D02*X44887Y74300D01*
X43500Y73500D02*X42113Y74300D01*
X47500Y73500D02*Y71900D01*
Y73500D02*X48887Y74300D01*
X47500Y73500D02*X46113Y74300D01*
X120500Y63031D02*Y61431D01*
Y63031D02*X121887Y63831D01*
X120500Y63031D02*X119113Y63831D01*
X23000Y66969D02*Y65369D01*
Y66969D02*X24387Y67769D01*
X23000Y66969D02*X21613Y67769D01*
X107500Y73500D02*Y71900D01*
Y73500D02*X108887Y74300D01*
X107500Y73500D02*X106113Y74300D01*
X71500Y62500D02*Y60900D01*
Y62500D02*X72887Y63300D01*
X71500Y62500D02*X70113Y63300D01*
X75000Y64000D02*Y62400D01*
Y64000D02*X76387Y64800D01*
X75000Y64000D02*X73613Y64800D01*
X126000Y55000D02*Y53400D01*
Y55000D02*X127387Y55800D01*
X126000Y55000D02*X124613Y55800D01*
X130000Y55000D02*Y53400D01*
Y55000D02*X131387Y55800D01*
X130000Y55000D02*X128613Y55800D01*
X116500Y74500D02*Y72900D01*
Y74500D02*X117887Y75300D01*
X116500Y74500D02*X115113Y75300D01*
X53000Y16500D02*Y14900D01*
Y16500D02*X54387Y17300D01*
X53000Y16500D02*X51613Y17300D01*
X36063Y19094D02*Y17494D01*
Y19094D02*X37450Y19894D01*
X36063Y19094D02*X34676Y19894D01*
X36063Y23031D02*Y21431D01*
Y23031D02*X37450Y23831D01*
X36063Y23031D02*X34676Y23831D01*
X69000Y16500D02*Y14900D01*
Y16500D02*X70387Y17300D01*
X69000Y16500D02*X67613Y17300D01*
X107500Y24000D02*Y22400D01*
Y24000D02*X108887Y24800D01*
X107500Y24000D02*X106113Y24800D01*
X107500Y15000D02*Y13400D01*
Y15000D02*X108887Y15800D01*
X107500Y15000D02*X106113Y15800D01*
X91000Y19500D02*Y17900D01*
Y19500D02*X92387Y20300D01*
X91000Y19500D02*X89613Y20300D01*
X35500Y33500D02*Y31900D01*
Y33500D02*X36887Y34300D01*
X35500Y33500D02*X34113Y34300D01*
X39500Y33500D02*Y31900D01*
Y33500D02*X40887Y34300D01*
X39500Y33500D02*X38113Y34300D01*
X43500Y33500D02*Y31900D01*
Y33500D02*X44887Y34300D01*
X43500Y33500D02*X42113Y34300D01*
X47500Y33500D02*Y31900D01*
Y33500D02*X48887Y34300D01*
X47500Y33500D02*X46113Y34300D01*
X120500Y23031D02*Y21431D01*
Y23031D02*X121887Y23831D01*
X120500Y23031D02*X119113Y23831D01*
X23000Y26969D02*Y25369D01*
Y26969D02*X24387Y27769D01*
X23000Y26969D02*X21613Y27769D01*
X107500Y33500D02*Y31900D01*
Y33500D02*X108887Y34300D01*
X107500Y33500D02*X106113Y34300D01*
X71500Y22500D02*Y20900D01*
Y22500D02*X72887Y23300D01*
X71500Y22500D02*X70113Y23300D01*
X75000Y24000D02*Y22400D01*
Y24000D02*X76387Y24800D01*
X75000Y24000D02*X73613Y24800D01*
X126000Y15000D02*Y13400D01*
Y15000D02*X127387Y15800D01*
X126000Y15000D02*X124613Y15800D01*
X130000Y15000D02*Y13400D01*
Y15000D02*X131387Y15800D01*
X130000Y15000D02*X128613Y15800D01*
X116500Y34500D02*Y32900D01*
Y34500D02*X117887Y35300D01*
X116500Y34500D02*X115113Y35300D01*
X15000Y546250D02*Y544650D01*
Y546250D02*X16387Y547050D01*
X15000Y546250D02*X13613Y547050D01*
X135000Y548500D02*X136500Y545500D01*
X138000Y548500D01*
X136500Y545500D02*Y542500D01*
X139800Y545800D02*X142050D01*
X139800Y542500D02*X142800D01*
X139800Y548500D02*Y542500D01*
Y548500D02*X142800D01*
X147600D02*X148350Y547750D01*
X145350Y548500D02*X147600D01*
X144600Y547750D02*X145350Y548500D01*
X144600Y547750D02*Y546250D01*
X145350Y545500D01*
X147600D01*
X148350Y544750D01*
Y543250D01*
X147600Y542500D02*X148350Y543250D01*
X145350Y542500D02*X147600D01*
X144600Y543250D02*X145350Y542500D01*
X98000Y547750D02*X98750Y548500D01*
X101000D01*
X101750Y547750D01*
Y546250D01*
X98000Y542500D02*X101750Y546250D01*
X98000Y542500D02*X101750D01*
X103550Y547750D02*X104300Y548500D01*
X106550D01*
X107300Y547750D01*
Y546250D01*
X103550Y542500D02*X107300Y546250D01*
X103550Y542500D02*X107300D01*
X109100Y543250D02*X109850Y542500D01*
X109100Y544450D02*Y543250D01*
Y544450D02*X110150Y545500D01*
X111050D01*
X112100Y544450D01*
Y543250D01*
X111350Y542500D02*X112100Y543250D01*
X109850Y542500D02*X111350D01*
X109100Y546550D02*X110150Y545500D01*
X109100Y547750D02*Y546550D01*
Y547750D02*X109850Y548500D01*
X111350D01*
X112100Y547750D01*
Y546550D01*
X111050Y545500D02*X112100Y546550D01*
X45000Y543250D02*X45750Y542500D01*
X45000Y547750D02*Y543250D01*
Y547750D02*X45750Y548500D01*
X47250D01*
X48000Y547750D01*
Y543250D01*
X47250Y542500D02*X48000Y543250D01*
X45750Y542500D02*X47250D01*
X45000Y544000D02*X48000Y547000D01*
X49800Y542500D02*X50550D01*
X52350Y543250D02*X53100Y542500D01*
X52350Y547750D02*Y543250D01*
Y547750D02*X53100Y548500D01*
X54600D01*
X55350Y547750D01*
Y543250D01*
X54600Y542500D02*X55350Y543250D01*
X53100Y542500D02*X54600D01*
X52350Y544000D02*X55350Y547000D01*
X57150Y547300D02*X58350Y548500D01*
Y542500D01*
X57150D02*X59400D01*
X61200Y547750D02*X61950Y548500D01*
X63450D01*
X64200Y547750D01*
X63450Y542500D02*X64200Y543250D01*
X61950Y542500D02*X63450D01*
X61200Y543250D02*X61950Y542500D01*
Y545800D02*X63450D01*
X64200Y547750D02*Y546550D01*
Y545050D02*Y543250D01*
Y545050D02*X63450Y545800D01*
X64200Y546550D02*X63450Y545800D01*
X3000Y563500D02*X3750Y562750D01*
X750Y563500D02*X3000D01*
X0Y562750D02*X750Y563500D01*
X0Y562750D02*Y561250D01*
X750Y560500D01*
X3000D01*
X3750Y559750D01*
Y558250D01*
X3000Y557500D02*X3750Y558250D01*
X750Y557500D02*X3000D01*
X0Y558250D02*X750Y557500D01*
X5550Y560500D02*Y558250D01*
X6300Y557500D01*
X8550Y560500D02*Y556000D01*
X7800Y555250D02*X8550Y556000D01*
X6300Y555250D02*X7800D01*
X5550Y556000D02*X6300Y555250D01*
Y557500D02*X7800D01*
X8550Y558250D01*
X11100Y559750D02*Y557500D01*
Y559750D02*X11850Y560500D01*
X12600D01*
X13350Y559750D01*
Y557500D01*
Y559750D02*X14100Y560500D01*
X14850D01*
X15600Y559750D01*
Y557500D01*
X10350Y560500D02*X11100Y559750D01*
X17400Y563500D02*Y557500D01*
Y558250D02*X18150Y557500D01*
X19650D01*
X20400Y558250D01*
Y559750D02*Y558250D01*
X19650Y560500D02*X20400Y559750D01*
X18150Y560500D02*X19650D01*
X17400Y559750D02*X18150Y560500D01*
X22200Y559750D02*Y558250D01*
Y559750D02*X22950Y560500D01*
X24450D01*
X25200Y559750D01*
Y558250D01*
X24450Y557500D02*X25200Y558250D01*
X22950Y557500D02*X24450D01*
X22200Y558250D02*X22950Y557500D01*
X27000Y563500D02*Y558250D01*
X27750Y557500D01*
X0Y554250D02*X29250D01*
X41750Y563500D02*Y557500D01*
X43700Y563500D02*X44750Y562450D01*
Y558550D01*
X43700Y557500D02*X44750Y558550D01*
X41000Y557500D02*X43700D01*
X41000Y563500D02*X43700D01*
G54D54*X46550Y562000D02*Y561850D01*
G54D53*Y559750D02*Y557500D01*
X50300Y560500D02*X51050Y559750D01*
X48800Y560500D02*X50300D01*
X48050Y559750D02*X48800Y560500D01*
X48050Y559750D02*Y558250D01*
X48800Y557500D01*
X51050Y560500D02*Y558250D01*
X51800Y557500D01*
X48800D02*X50300D01*
X51050Y558250D01*
X54350Y559750D02*Y557500D01*
Y559750D02*X55100Y560500D01*
X55850D01*
X56600Y559750D01*
Y557500D01*
Y559750D02*X57350Y560500D01*
X58100D01*
X58850Y559750D01*
Y557500D01*
X53600Y560500D02*X54350Y559750D01*
X60650Y557500D02*X61400D01*
X65900Y558250D02*X66650Y557500D01*
X65900Y562750D02*X66650Y563500D01*
X65900Y562750D02*Y558250D01*
X68450Y563500D02*X69950D01*
X69200D02*Y557500D01*
X68450D02*X69950D01*
X72500Y559750D02*Y557500D01*
Y559750D02*X73250Y560500D01*
X74000D01*
X74750Y559750D01*
Y557500D01*
X71750Y560500D02*X72500Y559750D01*
X77300Y560500D02*X79550D01*
X76550Y559750D02*X77300Y560500D01*
X76550Y559750D02*Y558250D01*
X77300Y557500D01*
X79550D01*
X81350Y563500D02*Y557500D01*
Y559750D02*X82100Y560500D01*
X83600D01*
X84350Y559750D01*
Y557500D01*
X86150Y563500D02*X86900Y562750D01*
Y558250D01*
X86150Y557500D02*X86900Y558250D01*
X41000Y554250D02*X88700D01*
X96050Y557500D02*X98000D01*
X95000Y558550D02*X96050Y557500D01*
X95000Y562450D02*Y558550D01*
Y562450D02*X96050Y563500D01*
X98000D01*
X99800Y559750D02*Y558250D01*
Y559750D02*X100550Y560500D01*
X102050D01*
X102800Y559750D01*
Y558250D01*
X102050Y557500D02*X102800Y558250D01*
X100550Y557500D02*X102050D01*
X99800Y558250D02*X100550Y557500D01*
X104600Y560500D02*Y558250D01*
X105350Y557500D01*
X106850D01*
X107600Y558250D01*
Y560500D02*Y558250D01*
X110150Y559750D02*Y557500D01*
Y559750D02*X110900Y560500D01*
X111650D01*
X112400Y559750D01*
Y557500D01*
X109400Y560500D02*X110150Y559750D01*
X114950Y563500D02*Y558250D01*
X115700Y557500D01*
X114200Y561250D02*X115700D01*
X95000Y554250D02*X117200D01*
X130750Y563500D02*Y557500D01*
X130000Y563500D02*X133000D01*
X133750Y562750D01*
Y561250D01*
X133000Y560500D02*X133750Y561250D01*
X130750Y560500D02*X133000D01*
X135550Y563500D02*Y558250D01*
X136300Y557500D01*
X140050Y560500D02*X140800Y559750D01*
X138550Y560500D02*X140050D01*
X137800Y559750D02*X138550Y560500D01*
X137800Y559750D02*Y558250D01*
X138550Y557500D01*
X140800Y560500D02*Y558250D01*
X141550Y557500D01*
X138550D02*X140050D01*
X140800Y558250D01*
X144100Y563500D02*Y558250D01*
X144850Y557500D01*
X143350Y561250D02*X144850D01*
X147100Y557500D02*X149350D01*
X146350Y558250D02*X147100Y557500D01*
X146350Y559750D02*Y558250D01*
Y559750D02*X147100Y560500D01*
X148600D01*
X149350Y559750D01*
X146350Y559000D02*X149350D01*
Y559750D02*Y559000D01*
X154150Y563500D02*Y557500D01*
X153400D02*X154150Y558250D01*
X151900Y557500D02*X153400D01*
X151150Y558250D02*X151900Y557500D01*
X151150Y559750D02*Y558250D01*
Y559750D02*X151900Y560500D01*
X153400D01*
X154150Y559750D01*
X157450Y560500D02*Y559750D01*
Y558250D02*Y557500D01*
X155950Y562750D02*Y562000D01*
Y562750D02*X156700Y563500D01*
X158200D01*
X158950Y562750D01*
Y562000D01*
X157450Y560500D02*X158950Y562000D01*
X130000Y554250D02*X160750D01*
X0Y578500D02*X3000D01*
X1500D02*Y572500D01*
X4800Y578500D02*Y572500D01*
Y574750D02*X5550Y575500D01*
X7050D01*
X7800Y574750D01*
Y572500D01*
X10350D02*X12600D01*
X9600Y573250D02*X10350Y572500D01*
X9600Y574750D02*Y573250D01*
Y574750D02*X10350Y575500D01*
X11850D01*
X12600Y574750D01*
X9600Y574000D02*X12600D01*
Y574750D02*Y574000D01*
X15150Y574750D02*Y572500D01*
Y574750D02*X15900Y575500D01*
X17400D01*
X14400D02*X15150Y574750D01*
X19950Y572500D02*X22200D01*
X19200Y573250D02*X19950Y572500D01*
X19200Y574750D02*Y573250D01*
Y574750D02*X19950Y575500D01*
X21450D01*
X22200Y574750D01*
X19200Y574000D02*X22200D01*
Y574750D02*Y574000D01*
X28950Y575500D02*X29700Y574750D01*
X27450Y575500D02*X28950D01*
X26700Y574750D02*X27450Y575500D01*
X26700Y574750D02*Y573250D01*
X27450Y572500D01*
X29700Y575500D02*Y573250D01*
X30450Y572500D01*
X27450D02*X28950D01*
X29700Y573250D01*
X33000Y574750D02*Y572500D01*
Y574750D02*X33750Y575500D01*
X35250D01*
X32250D02*X33000Y574750D01*
X37800Y572500D02*X40050D01*
X37050Y573250D02*X37800Y572500D01*
X37050Y574750D02*Y573250D01*
Y574750D02*X37800Y575500D01*
X39300D01*
X40050Y574750D01*
X37050Y574000D02*X40050D01*
Y574750D02*Y574000D01*
X44550Y577750D02*X45300Y578500D01*
X47550D01*
X48300Y577750D01*
Y576250D01*
X44550Y572500D02*X48300Y576250D01*
X44550Y572500D02*X48300D01*
X55800Y578500D02*Y572500D01*
X55050D02*X55800Y573250D01*
X53550Y572500D02*X55050D01*
X52800Y573250D02*X53550Y572500D01*
X52800Y574750D02*Y573250D01*
Y574750D02*X53550Y575500D01*
X55050D01*
X55800Y574750D01*
G54D54*X57600Y577000D02*Y576850D01*
G54D53*Y574750D02*Y572500D01*
X59850Y577750D02*Y572500D01*
Y577750D02*X60600Y578500D01*
X61350D01*
X59100Y575500D02*X60600D01*
X63600Y577750D02*Y572500D01*
Y577750D02*X64350Y578500D01*
X65100D01*
X62850Y575500D02*X64350D01*
X67350Y572500D02*X69600D01*
X66600Y573250D02*X67350Y572500D01*
X66600Y574750D02*Y573250D01*
Y574750D02*X67350Y575500D01*
X68850D01*
X69600Y574750D01*
X66600Y574000D02*X69600D01*
Y574750D02*Y574000D01*
X72150Y574750D02*Y572500D01*
Y574750D02*X72900Y575500D01*
X74400D01*
X71400D02*X72150Y574750D01*
X76950Y572500D02*X79200D01*
X76200Y573250D02*X76950Y572500D01*
X76200Y574750D02*Y573250D01*
Y574750D02*X76950Y575500D01*
X78450D01*
X79200Y574750D01*
X76200Y574000D02*X79200D01*
Y574750D02*Y574000D01*
X81750Y574750D02*Y572500D01*
Y574750D02*X82500Y575500D01*
X83250D01*
X84000Y574750D01*
Y572500D01*
X81000Y575500D02*X81750Y574750D01*
X86550Y578500D02*Y573250D01*
X87300Y572500D01*
X85800Y576250D02*X87300D01*
X94500Y578500D02*Y572500D01*
X93750D02*X94500Y573250D01*
X92250Y572500D02*X93750D01*
X91500Y573250D02*X92250Y572500D01*
X91500Y574750D02*Y573250D01*
Y574750D02*X92250Y575500D01*
X93750D01*
X94500Y574750D01*
X97050D02*Y572500D01*
Y574750D02*X97800Y575500D01*
X99300D01*
X96300D02*X97050Y574750D01*
G54D54*X101100Y577000D02*Y576850D01*
G54D53*Y574750D02*Y572500D01*
X102600Y578500D02*Y573250D01*
X103350Y572500D01*
X104850Y578500D02*Y573250D01*
X105600Y572500D01*
X110550D02*X112800D01*
X113550Y573250D01*
X112800Y574000D02*X113550Y573250D01*
X110550Y574000D02*X112800D01*
X109800Y574750D02*X110550Y574000D01*
X109800Y574750D02*X110550Y575500D01*
X112800D01*
X113550Y574750D01*
X109800Y573250D02*X110550Y572500D01*
G54D54*X115350Y577000D02*Y576850D01*
G54D53*Y574750D02*Y572500D01*
X116850Y575500D02*X119850D01*
X116850Y572500D02*X119850Y575500D01*
X116850Y572500D02*X119850D01*
X122400D02*X124650D01*
X121650Y573250D02*X122400Y572500D01*
X121650Y574750D02*Y573250D01*
Y574750D02*X122400Y575500D01*
X123900D01*
X124650Y574750D01*
X121650Y574000D02*X124650D01*
Y574750D02*Y574000D01*
X127200Y572500D02*X129450D01*
X130200Y573250D01*
X129450Y574000D02*X130200Y573250D01*
X127200Y574000D02*X129450D01*
X126450Y574750D02*X127200Y574000D01*
X126450Y574750D02*X127200Y575500D01*
X129450D01*
X130200Y574750D01*
X126450Y573250D02*X127200Y572500D01*
X134700Y575500D02*Y573250D01*
X135450Y572500D01*
X136950D01*
X137700Y573250D01*
Y575500D02*Y573250D01*
X140250Y572500D02*X142500D01*
X143250Y573250D01*
X142500Y574000D02*X143250Y573250D01*
X140250Y574000D02*X142500D01*
X139500Y574750D02*X140250Y574000D01*
X139500Y574750D02*X140250Y575500D01*
X142500D01*
X143250Y574750D01*
X139500Y573250D02*X140250Y572500D01*
X145800D02*X148050D01*
X145050Y573250D02*X145800Y572500D01*
X145050Y574750D02*Y573250D01*
Y574750D02*X145800Y575500D01*
X147300D01*
X148050Y574750D01*
X145050Y574000D02*X148050D01*
Y574750D02*Y574000D01*
X152850Y578500D02*Y572500D01*
X152100D02*X152850Y573250D01*
X150600Y572500D02*X152100D01*
X149850Y573250D02*X150600Y572500D01*
X149850Y574750D02*Y573250D01*
Y574750D02*X150600Y575500D01*
X152100D01*
X152850Y574750D01*
G54D54*X157350Y577000D02*Y576850D01*
G54D53*Y574750D02*Y572500D01*
X159600Y574750D02*Y572500D01*
Y574750D02*X160350Y575500D01*
X161100D01*
X161850Y574750D01*
Y572500D01*
X158850Y575500D02*X159600Y574750D01*
X167100Y578500D02*Y573250D01*
X167850Y572500D01*
X166350Y576250D02*X167850D01*
X169350Y578500D02*Y572500D01*
Y574750D02*X170100Y575500D01*
X171600D01*
X172350Y574750D01*
Y572500D01*
G54D54*X174150Y577000D02*Y576850D01*
G54D53*Y574750D02*Y572500D01*
X176400D02*X178650D01*
X179400Y573250D01*
X178650Y574000D02*X179400Y573250D01*
X176400Y574000D02*X178650D01*
X175650Y574750D02*X176400Y574000D01*
X175650Y574750D02*X176400Y575500D01*
X178650D01*
X179400Y574750D01*
X175650Y573250D02*X176400Y572500D01*
X183900Y578500D02*Y573250D01*
X184650Y572500D01*
X188400Y575500D02*X189150Y574750D01*
X186900Y575500D02*X188400D01*
X186150Y574750D02*X186900Y575500D01*
X186150Y574750D02*Y573250D01*
X186900Y572500D01*
X189150Y575500D02*Y573250D01*
X189900Y572500D01*
X186900D02*X188400D01*
X189150Y573250D01*
X191700Y575500D02*Y573250D01*
X192450Y572500D01*
X194700Y575500D02*Y571000D01*
X193950Y570250D02*X194700Y571000D01*
X192450Y570250D02*X193950D01*
X191700Y571000D02*X192450Y570250D01*
Y572500D02*X193950D01*
X194700Y573250D01*
X196500Y574750D02*Y573250D01*
Y574750D02*X197250Y575500D01*
X198750D01*
X199500Y574750D01*
Y573250D01*
X198750Y572500D02*X199500Y573250D01*
X197250Y572500D02*X198750D01*
X196500Y573250D02*X197250Y572500D01*
X201300Y575500D02*Y573250D01*
X202050Y572500D01*
X203550D01*
X204300Y573250D01*
Y575500D02*Y573250D01*
X206850Y578500D02*Y573250D01*
X207600Y572500D01*
X206100Y576250D02*X207600D01*
X209100Y571000D02*X210600Y572500D01*
X215100Y577750D02*X215850Y578500D01*
X218100D01*
X218850Y577750D01*
Y576250D01*
X215100Y572500D02*X218850Y576250D01*
X215100Y572500D02*X218850D01*
X221400D02*X223650Y575500D01*
Y577750D02*Y575500D01*
X222900Y578500D02*X223650Y577750D01*
X221400Y578500D02*X222900D01*
X220650Y577750D02*X221400Y578500D01*
X220650Y577750D02*Y576250D01*
X221400Y575500D01*
X223650D01*
X225450Y574750D02*X228450Y578500D01*
X225450Y574750D02*X229200D01*
X228450Y578500D02*Y572500D01*
X233700Y578500D02*Y572500D01*
Y574750D02*X234450Y575500D01*
X235950D01*
X236700Y574750D01*
Y572500D01*
X238500Y574750D02*Y573250D01*
Y574750D02*X239250Y575500D01*
X240750D01*
X241500Y574750D01*
Y573250D01*
X240750Y572500D02*X241500Y573250D01*
X239250Y572500D02*X240750D01*
X238500Y573250D02*X239250Y572500D01*
X243300Y578500D02*Y573250D01*
X244050Y572500D01*
X246300D02*X248550D01*
X245550Y573250D02*X246300Y572500D01*
X245550Y574750D02*Y573250D01*
Y574750D02*X246300Y575500D01*
X247800D01*
X248550Y574750D01*
X245550Y574000D02*X248550D01*
Y574750D02*Y574000D01*
X251100Y572500D02*X253350D01*
X254100Y573250D01*
X253350Y574000D02*X254100Y573250D01*
X251100Y574000D02*X253350D01*
X250350Y574750D02*X251100Y574000D01*
X250350Y574750D02*X251100Y575500D01*
X253350D01*
X254100Y574750D01*
X250350Y573250D02*X251100Y572500D01*
X259350Y578500D02*Y573250D01*
X260100Y572500D01*
X258600Y576250D02*X260100D01*
X261600Y574750D02*Y573250D01*
Y574750D02*X262350Y575500D01*
X263850D01*
X264600Y574750D01*
Y573250D01*
X263850Y572500D02*X264600Y573250D01*
X262350Y572500D02*X263850D01*
X261600Y573250D02*X262350Y572500D01*
X267150Y578500D02*Y573250D01*
X267900Y572500D01*
X266400Y576250D02*X267900D01*
X271650Y575500D02*X272400Y574750D01*
X270150Y575500D02*X271650D01*
X269400Y574750D02*X270150Y575500D01*
X269400Y574750D02*Y573250D01*
X270150Y572500D01*
X272400Y575500D02*Y573250D01*
X273150Y572500D01*
X270150D02*X271650D01*
X272400Y573250D01*
X274950Y578500D02*Y573250D01*
X275700Y572500D01*
G54D55*X10000Y450000D02*Y480000D01*
X148000D02*Y450000D01*
X10000Y480000D02*X148000D01*
X10000Y450000D02*X68000D01*
X148000D02*X88000D01*
X10000Y410000D02*Y440000D01*
X148000D02*Y410000D01*
X10000D02*X68000D01*
X148000D02*X88000D01*
X10000Y440000D02*X68000D01*
X148000D02*X88000D01*
X10000Y370000D02*Y400000D01*
X148000D02*Y370000D01*
X10000D02*X68000D01*
X148000D02*X88000D01*
X10000Y400000D02*X68000D01*
X148000D02*X88000D01*
X10000Y330000D02*Y360000D01*
X148000D02*Y330000D01*
X10000D02*X68000D01*
X148000D02*X88000D01*
X10000Y360000D02*X68000D01*
X148000D02*X88000D01*
X10000Y290000D02*Y320000D01*
X148000D02*Y290000D01*
X10000D02*X68000D01*
X148000D02*X88000D01*
X10000Y320000D02*X68000D01*
X148000D02*X88000D01*
X10000Y250000D02*Y280000D01*
X148000D02*Y250000D01*
X10000D02*X68000D01*
X148000D02*X88000D01*
X10000Y280000D02*X68000D01*
X148000D02*X88000D01*
X10000Y210000D02*Y240000D01*
X148000D02*Y210000D01*
X10000D02*X68000D01*
X148000D02*X88000D01*
X10000Y240000D02*X68000D01*
X148000D02*X88000D01*
X10000Y170000D02*Y200000D01*
X148000D02*Y170000D01*
X10000D02*X68000D01*
X148000D02*X88000D01*
X10000Y200000D02*X68000D01*
X148000D02*X88000D01*
X10000Y130000D02*Y160000D01*
X148000D02*Y130000D01*
X10000D02*X68000D01*
X148000D02*X88000D01*
X10000Y160000D02*X68000D01*
X148000D02*X88000D01*
X10000Y90000D02*Y120000D01*
X148000D02*Y90000D01*
X10000D02*X68000D01*
X148000D02*X88000D01*
X10000Y120000D02*X68000D01*
X148000D02*X88000D01*
X10000Y50000D02*Y80000D01*
X148000D02*Y50000D01*
X10000D02*X68000D01*
X148000D02*X88000D01*
X10000Y80000D02*X68000D01*
X148000D02*X88000D01*
X10000Y10000D02*Y40000D01*
X148000D02*Y10000D01*
X10000Y40000D02*X68000D01*
X148000D02*X88000D01*
X10000Y10000D02*X148000D01*
X83000Y445000D02*G75*G03X88000Y440000I5000J0D01*G01*
X83000Y445000D02*G75*G02X88000Y450000I5000J0D01*G01*
X73000Y445000D02*G75*G02X68000Y440000I-5000J0D01*G01*
X73000Y445000D02*G75*G03X68000Y450000I-5000J0D01*G01*
X83000Y405000D02*G75*G03X88000Y400000I5000J0D01*G01*
X83000Y405000D02*G75*G02X88000Y410000I5000J0D01*G01*
X73000Y405000D02*G75*G02X68000Y400000I-5000J0D01*G01*
X73000Y405000D02*G75*G03X68000Y410000I-5000J0D01*G01*
X83000Y365000D02*G75*G03X88000Y360000I5000J0D01*G01*
X83000Y365000D02*G75*G02X88000Y370000I5000J0D01*G01*
X73000Y365000D02*G75*G02X68000Y360000I-5000J0D01*G01*
X73000Y365000D02*G75*G03X68000Y370000I-5000J0D01*G01*
X83000Y325000D02*G75*G03X88000Y320000I5000J0D01*G01*
X83000Y325000D02*G75*G02X88000Y330000I5000J0D01*G01*
X73000Y325000D02*G75*G02X68000Y320000I-5000J0D01*G01*
X73000Y325000D02*G75*G03X68000Y330000I-5000J0D01*G01*
X83000Y285000D02*G75*G03X88000Y280000I5000J0D01*G01*
X83000Y285000D02*G75*G02X88000Y290000I5000J0D01*G01*
X73000Y285000D02*G75*G02X68000Y280000I-5000J0D01*G01*
X73000Y285000D02*G75*G03X68000Y290000I-5000J0D01*G01*
X83000Y245000D02*G75*G03X88000Y240000I5000J0D01*G01*
X83000Y245000D02*G75*G02X88000Y250000I5000J0D01*G01*
X73000Y245000D02*G75*G02X68000Y240000I-5000J0D01*G01*
X73000Y245000D02*G75*G03X68000Y250000I-5000J0D01*G01*
X83000Y205000D02*G75*G03X88000Y200000I5000J0D01*G01*
X83000Y205000D02*G75*G02X88000Y210000I5000J0D01*G01*
X73000Y205000D02*G75*G02X68000Y200000I-5000J0D01*G01*
X73000Y205000D02*G75*G03X68000Y210000I-5000J0D01*G01*
X83000Y165000D02*G75*G03X88000Y160000I5000J0D01*G01*
X83000Y165000D02*G75*G02X88000Y170000I5000J0D01*G01*
X73000Y165000D02*G75*G02X68000Y160000I-5000J0D01*G01*
X73000Y165000D02*G75*G03X68000Y170000I-5000J0D01*G01*
X83000Y125000D02*G75*G03X88000Y120000I5000J0D01*G01*
X83000Y125000D02*G75*G02X88000Y130000I5000J0D01*G01*
X73000Y125000D02*G75*G02X68000Y120000I-5000J0D01*G01*
X73000Y125000D02*G75*G03X68000Y130000I-5000J0D01*G01*
X83000Y85000D02*G75*G03X88000Y80000I5000J0D01*G01*
X83000Y85000D02*G75*G02X88000Y90000I5000J0D01*G01*
X73000Y85000D02*G75*G02X68000Y80000I-5000J0D01*G01*
X73000Y85000D02*G75*G03X68000Y90000I-5000J0D01*G01*
X83000Y45000D02*G75*G03X88000Y40000I5000J0D01*G01*
X83000Y45000D02*G75*G02X88000Y50000I5000J0D01*G01*
X73000Y45000D02*G75*G02X68000Y40000I-5000J0D01*G01*
X73000Y45000D02*G75*G03X68000Y50000I-5000J0D01*G01*
G54D53*X0Y-9500D02*X3000D01*
X3750Y-8750D01*
Y-6950D02*Y-8750D01*
X3000Y-6200D02*X3750Y-6950D01*
X750Y-6200D02*X3000D01*
X750Y-3500D02*Y-9500D01*
X0Y-3500D02*X3000D01*
X3750Y-4250D01*
Y-5450D01*
X3000Y-6200D02*X3750Y-5450D01*
X5550Y-7250D02*Y-8750D01*
Y-7250D02*X6300Y-6500D01*
X7800D01*
X8550Y-7250D01*
Y-8750D01*
X7800Y-9500D02*X8550Y-8750D01*
X6300Y-9500D02*X7800D01*
X5550Y-8750D02*X6300Y-9500D01*
X12600Y-6500D02*X13350Y-7250D01*
X11100Y-6500D02*X12600D01*
X10350Y-7250D02*X11100Y-6500D01*
X10350Y-7250D02*Y-8750D01*
X11100Y-9500D01*
X13350Y-6500D02*Y-8750D01*
X14100Y-9500D01*
X11100D02*X12600D01*
X13350Y-8750D01*
X16650Y-7250D02*Y-9500D01*
Y-7250D02*X17400Y-6500D01*
X18900D01*
X15900D02*X16650Y-7250D01*
X23700Y-3500D02*Y-9500D01*
X22950D02*X23700Y-8750D01*
X21450Y-9500D02*X22950D01*
X20700Y-8750D02*X21450Y-9500D01*
X20700Y-7250D02*Y-8750D01*
Y-7250D02*X21450Y-6500D01*
X22950D01*
X23700Y-7250D01*
X28200D02*Y-8750D01*
Y-7250D02*X28950Y-6500D01*
X30450D01*
X31200Y-7250D01*
Y-8750D01*
X30450Y-9500D02*X31200Y-8750D01*
X28950Y-9500D02*X30450D01*
X28200Y-8750D02*X28950Y-9500D01*
X33000Y-6500D02*Y-8750D01*
X33750Y-9500D01*
X35250D01*
X36000Y-8750D01*
Y-6500D02*Y-8750D01*
X38550Y-3500D02*Y-8750D01*
X39300Y-9500D01*
X37800Y-5750D02*X39300D01*
X40800Y-3500D02*Y-8750D01*
X41550Y-9500D01*
G54D54*X43050Y-5000D02*Y-5150D01*
G54D53*Y-7250D02*Y-9500D01*
X45300Y-7250D02*Y-9500D01*
Y-7250D02*X46050Y-6500D01*
X46800D01*
X47550Y-7250D01*
Y-9500D01*
X44550Y-6500D02*X45300Y-7250D01*
X50100Y-9500D02*X52350D01*
X49350Y-8750D02*X50100Y-9500D01*
X49350Y-7250D02*Y-8750D01*
Y-7250D02*X50100Y-6500D01*
X51600D01*
X52350Y-7250D01*
X49350Y-8000D02*X52350D01*
Y-7250D02*Y-8000D01*
G54D54*X56850Y-5000D02*Y-5150D01*
G54D53*Y-7250D02*Y-9500D01*
X59100D02*X61350D01*
X62100Y-8750D01*
X61350Y-8000D02*X62100Y-8750D01*
X59100Y-8000D02*X61350D01*
X58350Y-7250D02*X59100Y-8000D01*
X58350Y-7250D02*X59100Y-6500D01*
X61350D01*
X62100Y-7250D01*
X58350Y-8750D02*X59100Y-9500D01*
X67350Y-3500D02*Y-8750D01*
X68100Y-9500D01*
X66600Y-5750D02*X68100D01*
X69600Y-3500D02*Y-9500D01*
Y-7250D02*X70350Y-6500D01*
X71850D01*
X72600Y-7250D01*
Y-9500D01*
X75150D02*X77400D01*
X74400Y-8750D02*X75150Y-9500D01*
X74400Y-7250D02*Y-8750D01*
Y-7250D02*X75150Y-6500D01*
X76650D01*
X77400Y-7250D01*
X74400Y-8000D02*X77400D01*
Y-7250D02*Y-8000D01*
X82650Y-6500D02*X84900D01*
X81900Y-7250D02*X82650Y-6500D01*
X81900Y-7250D02*Y-8750D01*
X82650Y-9500D01*
X84900D01*
X87450D02*X89700D01*
X86700Y-8750D02*X87450Y-9500D01*
X86700Y-7250D02*Y-8750D01*
Y-7250D02*X87450Y-6500D01*
X88950D01*
X89700Y-7250D01*
X86700Y-8000D02*X89700D01*
Y-7250D02*Y-8000D01*
X92250Y-7250D02*Y-9500D01*
Y-7250D02*X93000Y-6500D01*
X93750D01*
X94500Y-7250D01*
Y-9500D01*
X91500Y-6500D02*X92250Y-7250D01*
X97050Y-3500D02*Y-8750D01*
X97800Y-9500D01*
X96300Y-5750D02*X97800D01*
X100050Y-9500D02*X102300D01*
X99300Y-8750D02*X100050Y-9500D01*
X99300Y-7250D02*Y-8750D01*
Y-7250D02*X100050Y-6500D01*
X101550D01*
X102300Y-7250D01*
X99300Y-8000D02*X102300D01*
Y-7250D02*Y-8000D01*
X104850Y-7250D02*Y-9500D01*
Y-7250D02*X105600Y-6500D01*
X107100D01*
X104100D02*X104850Y-7250D01*
X108900Y-3500D02*Y-8750D01*
X109650Y-9500D01*
G54D54*X111150Y-5000D02*Y-5150D01*
G54D53*Y-7250D02*Y-9500D01*
X113400Y-7250D02*Y-9500D01*
Y-7250D02*X114150Y-6500D01*
X114900D01*
X115650Y-7250D01*
Y-9500D01*
X112650Y-6500D02*X113400Y-7250D01*
X118200Y-9500D02*X120450D01*
X117450Y-8750D02*X118200Y-9500D01*
X117450Y-7250D02*Y-8750D01*
Y-7250D02*X118200Y-6500D01*
X119700D01*
X120450Y-7250D01*
X117450Y-8000D02*X120450D01*
Y-7250D02*Y-8000D01*
X124950Y-7250D02*Y-8750D01*
Y-7250D02*X125700Y-6500D01*
X127200D01*
X127950Y-7250D01*
Y-8750D01*
X127200Y-9500D02*X127950Y-8750D01*
X125700Y-9500D02*X127200D01*
X124950Y-8750D02*X125700Y-9500D01*
X130500Y-4250D02*Y-9500D01*
Y-4250D02*X131250Y-3500D01*
X132000D01*
X129750Y-6500D02*X131250D01*
X136950Y-3500D02*Y-8750D01*
X137700Y-9500D01*
X136200Y-5750D02*X137700D01*
X139200Y-3500D02*Y-9500D01*
Y-7250D02*X139950Y-6500D01*
X141450D01*
X142200Y-7250D01*
Y-9500D01*
G54D54*X144000Y-5000D02*Y-5150D01*
G54D53*Y-7250D02*Y-9500D01*
X146250D02*X148500D01*
X149250Y-8750D01*
X148500Y-8000D02*X149250Y-8750D01*
X146250Y-8000D02*X148500D01*
X145500Y-7250D02*X146250Y-8000D01*
X145500Y-7250D02*X146250Y-6500D01*
X148500D01*
X149250Y-7250D01*
X145500Y-8750D02*X146250Y-9500D01*
X154500Y-7250D02*Y-11750D01*
X153750Y-6500D02*X154500Y-7250D01*
X155250Y-6500D01*
X156750D01*
X157500Y-7250D01*
Y-8750D01*
X156750Y-9500D02*X157500Y-8750D01*
X155250Y-9500D02*X156750D01*
X154500Y-8750D02*X155250Y-9500D01*
X161550Y-6500D02*X162300Y-7250D01*
X160050Y-6500D02*X161550D01*
X159300Y-7250D02*X160050Y-6500D01*
X159300Y-7250D02*Y-8750D01*
X160050Y-9500D01*
X162300Y-6500D02*Y-8750D01*
X163050Y-9500D01*
X160050D02*X161550D01*
X162300Y-8750D01*
X165600Y-3500D02*Y-8750D01*
X166350Y-9500D01*
X164850Y-5750D02*X166350D01*
X167850Y-3500D02*Y-9500D01*
Y-7250D02*X168600Y-6500D01*
X170100D01*
X170850Y-7250D01*
Y-9500D01*
X200750Y518500D02*Y512500D01*
X202700Y518500D02*X203750Y517450D01*
Y513550D01*
X202700Y512500D02*X203750Y513550D01*
X200000Y512500D02*X202700D01*
X200000Y518500D02*X202700D01*
X207800Y515500D02*X208550Y514750D01*
X206300Y515500D02*X207800D01*
X205550Y514750D02*X206300Y515500D01*
X205550Y514750D02*Y513250D01*
X206300Y512500D01*
X208550Y515500D02*Y513250D01*
X209300Y512500D01*
X206300D02*X207800D01*
X208550Y513250D01*
X211850Y518500D02*Y513250D01*
X212600Y512500D01*
X211100Y516250D02*X212600D01*
X214850Y512500D02*X217100D01*
X214100Y513250D02*X214850Y512500D01*
X214100Y514750D02*Y513250D01*
Y514750D02*X214850Y515500D01*
X216350D01*
X217100Y514750D01*
X214100Y514000D02*X217100D01*
Y514750D02*Y514000D01*
X218900Y516250D02*X219650D01*
X218900Y514750D02*X219650D01*
X224150Y518500D02*X227150D01*
X225650D02*Y512500D01*
X228950Y515500D02*Y513250D01*
X229700Y512500D01*
X231200D01*
X231950Y513250D01*
Y515500D02*Y513250D01*
X234500Y512500D02*X236750D01*
X233750Y513250D02*X234500Y512500D01*
X233750Y514750D02*Y513250D01*
Y514750D02*X234500Y515500D01*
X236000D01*
X236750Y514750D01*
X233750Y514000D02*X236750D01*
Y514750D02*Y514000D01*
X241250Y517750D02*X242000Y518500D01*
X244250D01*
X245000Y517750D01*
Y516250D01*
X241250Y512500D02*X245000Y516250D01*
X241250Y512500D02*X245000D01*
X249050Y518500D02*X249800Y517750D01*
X247550Y518500D02*X249050D01*
X246800Y517750D02*X247550Y518500D01*
X246800Y517750D02*Y513250D01*
X247550Y512500D01*
X249050Y515800D02*X249800Y515050D01*
X246800Y515800D02*X249050D01*
X247550Y512500D02*X249050D01*
X249800Y513250D01*
Y515050D02*Y513250D01*
X254300Y518500D02*Y512500D01*
Y518500D02*X257300D01*
X254300Y515800D02*X256550D01*
X259850Y512500D02*X262100D01*
X259100Y513250D02*X259850Y512500D01*
X259100Y514750D02*Y513250D01*
Y514750D02*X259850Y515500D01*
X261350D01*
X262100Y514750D01*
X259100Y514000D02*X262100D01*
Y514750D02*Y514000D01*
X263900Y518500D02*Y512500D01*
Y513250D02*X264650Y512500D01*
X266150D01*
X266900Y513250D01*
Y514750D02*Y513250D01*
X266150Y515500D02*X266900Y514750D01*
X264650Y515500D02*X266150D01*
X263900Y514750D02*X264650Y515500D01*
X271400Y517750D02*X272150Y518500D01*
X274400D01*
X275150Y517750D01*
Y516250D01*
X271400Y512500D02*X275150Y516250D01*
X271400Y512500D02*X275150D01*
X276950Y513250D02*X277700Y512500D01*
X276950Y517750D02*Y513250D01*
Y517750D02*X277700Y518500D01*
X279200D01*
X279950Y517750D01*
Y513250D01*
X279200Y512500D02*X279950Y513250D01*
X277700Y512500D02*X279200D01*
X276950Y514000D02*X279950Y517000D01*
X281750Y517300D02*X282950Y518500D01*
Y512500D01*
X281750D02*X284000D01*
X286550D02*X288800Y515500D01*
Y517750D02*Y515500D01*
X288050Y518500D02*X288800Y517750D01*
X286550Y518500D02*X288050D01*
X285800Y517750D02*X286550Y518500D01*
X285800Y517750D02*Y516250D01*
X286550Y515500D01*
X288800D01*
X293300Y513250D02*X294050Y512500D01*
X293300Y517750D02*Y513250D01*
Y517750D02*X294050Y518500D01*
X295550D01*
X296300Y517750D01*
Y513250D01*
X295550Y512500D02*X296300Y513250D01*
X294050Y512500D02*X295550D01*
X293300Y514000D02*X296300Y517000D01*
X298100Y517750D02*X298850Y518500D01*
X300350D01*
X301100Y517750D01*
X300350Y512500D02*X301100Y513250D01*
X298850Y512500D02*X300350D01*
X298100Y513250D02*X298850Y512500D01*
Y515800D02*X300350D01*
X301100Y517750D02*Y516550D01*
Y515050D02*Y513250D01*
Y515050D02*X300350Y515800D01*
X301100Y516550D02*X300350Y515800D01*
X302900Y516250D02*X303650D01*
X302900Y514750D02*X303650D01*
X305450Y517300D02*X306650Y518500D01*
Y512500D01*
X305450D02*X307700D01*
X309500Y517750D02*X310250Y518500D01*
X312500D01*
X313250Y517750D01*
Y516250D01*
X309500Y512500D02*X313250Y516250D01*
X309500Y512500D02*X313250D01*
X315050Y516250D02*X315800D01*
X315050Y514750D02*X315800D01*
X317600Y517750D02*X318350Y518500D01*
X320600D01*
X321350Y517750D01*
Y516250D01*
X317600Y512500D02*X321350Y516250D01*
X317600Y512500D02*X321350D01*
X323150Y518500D02*X326150D01*
X323150D02*Y515500D01*
X323900Y516250D01*
X325400D01*
X326150Y515500D01*
Y513250D01*
X325400Y512500D02*X326150Y513250D01*
X323900Y512500D02*X325400D01*
X323150Y513250D02*X323900Y512500D01*
X331400Y518500D02*Y512500D01*
X330650Y518500D02*X333650D01*
X334400Y517750D01*
Y516250D01*
X333650Y515500D02*X334400Y516250D01*
X331400Y515500D02*X333650D01*
X336200Y518500D02*Y512500D01*
Y518500D02*X338450Y515500D01*
X340700Y518500D01*
Y512500D01*
X348200Y518500D02*X348950Y517750D01*
X345950Y518500D02*X348200D01*
X345200Y517750D02*X345950Y518500D01*
X345200Y517750D02*Y513250D01*
X345950Y512500D01*
X348200D01*
X348950Y513250D01*
Y514750D02*Y513250D01*
X348200Y515500D02*X348950Y514750D01*
X346700Y515500D02*X348200D01*
X350750Y518500D02*Y512500D01*
Y518500D02*X353000Y515500D01*
X355250Y518500D01*
Y512500D01*
X357050Y518500D02*X360050D01*
X358550D02*Y512500D01*
X364550Y518500D02*Y513250D01*
X365300Y512500D01*
X366800D01*
X367550Y513250D01*
Y518500D02*Y513250D01*
X369350Y518500D02*X372350D01*
X370850D02*Y512500D01*
X375200D02*X377150D01*
X374150Y513550D02*X375200Y512500D01*
X374150Y517450D02*Y513550D01*
Y517450D02*X375200Y518500D01*
X377150D01*
X200000Y532000D02*Y527500D01*
Y532000D02*X201050Y533500D01*
X202700D01*
X203750Y532000D01*
Y527500D01*
X200000Y530500D02*X203750D01*
X205550D02*Y528250D01*
X206300Y527500D01*
X207800D01*
X208550Y528250D01*
Y530500D02*Y528250D01*
X211100Y533500D02*Y528250D01*
X211850Y527500D01*
X210350Y531250D02*X211850D01*
X213350Y533500D02*Y527500D01*
Y529750D02*X214100Y530500D01*
X215600D01*
X216350Y529750D01*
Y527500D01*
X218150Y529750D02*Y528250D01*
Y529750D02*X218900Y530500D01*
X220400D01*
X221150Y529750D01*
Y528250D01*
X220400Y527500D02*X221150Y528250D01*
X218900Y527500D02*X220400D01*
X218150Y528250D02*X218900Y527500D01*
X223700Y529750D02*Y527500D01*
Y529750D02*X224450Y530500D01*
X225950D01*
X222950D02*X223700Y529750D01*
X227750Y531250D02*X228500D01*
X227750Y529750D02*X228500D01*
X233000Y533500D02*Y527500D01*
Y533500D02*X235250Y530500D01*
X237500Y533500D01*
Y527500D01*
G54D54*X239300Y532000D02*Y531850D01*
G54D53*Y529750D02*Y527500D01*
X241550Y530500D02*X243800D01*
X240800Y529750D02*X241550Y530500D01*
X240800Y529750D02*Y528250D01*
X241550Y527500D01*
X243800D01*
X245600Y533500D02*Y527500D01*
Y529750D02*X246350Y530500D01*
X247850D01*
X248600Y529750D01*
Y527500D01*
X252650Y530500D02*X253400Y529750D01*
X251150Y530500D02*X252650D01*
X250400Y529750D02*X251150Y530500D01*
X250400Y529750D02*Y528250D01*
X251150Y527500D01*
X253400Y530500D02*Y528250D01*
X254150Y527500D01*
X251150D02*X252650D01*
X253400Y528250D01*
X256700Y527500D02*X258950D01*
X255950Y528250D02*X256700Y527500D01*
X255950Y529750D02*Y528250D01*
Y529750D02*X256700Y530500D01*
X258200D01*
X258950Y529750D01*
X255950Y529000D02*X258950D01*
Y529750D02*Y529000D01*
X260750Y533500D02*Y528250D01*
X261500Y527500D01*
X266450Y533500D02*Y527500D01*
X265700Y533500D02*X268700D01*
X269450Y532750D01*
Y531250D01*
X268700Y530500D02*X269450Y531250D01*
X266450Y530500D02*X268700D01*
X272000Y527500D02*X274250D01*
X271250Y528250D02*X272000Y527500D01*
X271250Y529750D02*Y528250D01*
Y529750D02*X272000Y530500D01*
X273500D01*
X274250Y529750D01*
X271250Y529000D02*X274250D01*
Y529750D02*Y529000D01*
X276800Y533500D02*Y528250D01*
X277550Y527500D01*
X276050Y531250D02*X277550D01*
X279800Y527500D02*X282050D01*
X279050Y528250D02*X279800Y527500D01*
X279050Y529750D02*Y528250D01*
Y529750D02*X279800Y530500D01*
X281300D01*
X282050Y529750D01*
X279050Y529000D02*X282050D01*
Y529750D02*Y529000D01*
X284600Y529750D02*Y527500D01*
Y529750D02*X285350Y530500D01*
X286850D01*
X283850D02*X284600Y529750D01*
X289400Y527500D02*X291650D01*
X292400Y528250D01*
X291650Y529000D02*X292400Y528250D01*
X289400Y529000D02*X291650D01*
X288650Y529750D02*X289400Y529000D01*
X288650Y529750D02*X289400Y530500D01*
X291650D01*
X292400Y529750D01*
X288650Y528250D02*X289400Y527500D01*
X294950D02*X297200D01*
X294200Y528250D02*X294950Y527500D01*
X294200Y529750D02*Y528250D01*
Y529750D02*X294950Y530500D01*
X296450D01*
X297200Y529750D01*
X294200Y529000D02*X297200D01*
Y529750D02*Y529000D01*
X299750Y529750D02*Y527500D01*
Y529750D02*X300500Y530500D01*
X301250D01*
X302000Y529750D01*
Y527500D01*
X299000Y530500D02*X299750Y529750D01*
X200000Y548500D02*X203000D01*
X201500D02*Y542500D01*
G54D54*X204800Y547000D02*Y546850D01*
G54D53*Y544750D02*Y542500D01*
X207050Y548500D02*Y543250D01*
X207800Y542500D01*
X206300Y546250D02*X207800D01*
X209300Y548500D02*Y543250D01*
X210050Y542500D01*
X212300D02*X214550D01*
X211550Y543250D02*X212300Y542500D01*
X211550Y544750D02*Y543250D01*
Y544750D02*X212300Y545500D01*
X213800D01*
X214550Y544750D01*
X211550Y544000D02*X214550D01*
Y544750D02*Y544000D01*
X216350Y546250D02*X217100D01*
X216350Y544750D02*X217100D01*
X221600Y543250D02*X222350Y542500D01*
X221600Y547750D02*X222350Y548500D01*
X221600Y547750D02*Y543250D01*
X224150Y545500D02*Y543250D01*
X224900Y542500D01*
X226400D01*
X227150Y543250D01*
Y545500D02*Y543250D01*
X229700Y544750D02*Y542500D01*
Y544750D02*X230450Y545500D01*
X231200D01*
X231950Y544750D01*
Y542500D01*
X228950Y545500D02*X229700Y544750D01*
X233750Y548500D02*Y542500D01*
Y544750D02*X236000Y542500D01*
X233750Y544750D02*X235250Y546250D01*
X238550Y544750D02*Y542500D01*
Y544750D02*X239300Y545500D01*
X240050D01*
X240800Y544750D01*
Y542500D01*
X237800Y545500D02*X238550Y544750D01*
X242600D02*Y543250D01*
Y544750D02*X243350Y545500D01*
X244850D01*
X245600Y544750D01*
Y543250D01*
X244850Y542500D02*X245600Y543250D01*
X243350Y542500D02*X244850D01*
X242600Y543250D02*X243350Y542500D01*
X247400Y545500D02*Y543250D01*
X248150Y542500D01*
X248900D01*
X249650Y543250D01*
Y545500D02*Y543250D01*
X250400Y542500D01*
X251150D01*
X251900Y543250D01*
Y545500D02*Y543250D01*
X254450Y544750D02*Y542500D01*
Y544750D02*X255200Y545500D01*
X255950D01*
X256700Y544750D01*
Y542500D01*
X253700Y545500D02*X254450Y544750D01*
X258500Y548500D02*X259250Y547750D01*
Y543250D01*
X258500Y542500D02*X259250Y543250D01*
X263750Y545500D02*X266750D01*
X271250Y548500D02*Y542500D01*
Y548500D02*X274250D01*
X271250Y545800D02*X273500D01*
X278300Y545500D02*X279050Y544750D01*
X276800Y545500D02*X278300D01*
X276050Y544750D02*X276800Y545500D01*
X276050Y544750D02*Y543250D01*
X276800Y542500D01*
X279050Y545500D02*Y543250D01*
X279800Y542500D01*
X276800D02*X278300D01*
X279050Y543250D01*
X281600Y548500D02*Y542500D01*
Y543250D02*X282350Y542500D01*
X283850D01*
X284600Y543250D01*
Y544750D02*Y543250D01*
X283850Y545500D02*X284600Y544750D01*
X282350Y545500D02*X283850D01*
X281600Y544750D02*X282350Y545500D01*
X287150Y544750D02*Y542500D01*
Y544750D02*X287900Y545500D01*
X289400D01*
X286400D02*X287150Y544750D01*
G54D54*X291200Y547000D02*Y546850D01*
G54D53*Y544750D02*Y542500D01*
X293450Y545500D02*X295700D01*
X292700Y544750D02*X293450Y545500D01*
X292700Y544750D02*Y543250D01*
X293450Y542500D01*
X295700D01*
X299750Y545500D02*X300500Y544750D01*
X298250Y545500D02*X299750D01*
X297500Y544750D02*X298250Y545500D01*
X297500Y544750D02*Y543250D01*
X298250Y542500D01*
X300500Y545500D02*Y543250D01*
X301250Y542500D01*
X298250D02*X299750D01*
X300500Y543250D01*
X303800Y548500D02*Y543250D01*
X304550Y542500D01*
X303050Y546250D02*X304550D01*
G54D54*X306050Y547000D02*Y546850D01*
G54D53*Y544750D02*Y542500D01*
X307550Y544750D02*Y543250D01*
Y544750D02*X308300Y545500D01*
X309800D01*
X310550Y544750D01*
Y543250D01*
X309800Y542500D02*X310550Y543250D01*
X308300Y542500D02*X309800D01*
X307550Y543250D02*X308300Y542500D01*
X313100Y544750D02*Y542500D01*
Y544750D02*X313850Y545500D01*
X314600D01*
X315350Y544750D01*
Y542500D01*
X312350Y545500D02*X313100Y544750D01*
X320600Y548500D02*Y542500D01*
X322550Y548500D02*X323600Y547450D01*
Y543550D01*
X322550Y542500D02*X323600Y543550D01*
X319850Y542500D02*X322550D01*
X319850Y548500D02*X322550D01*
X326150Y544750D02*Y542500D01*
Y544750D02*X326900Y545500D01*
X328400D01*
X325400D02*X326150Y544750D01*
X332450Y545500D02*X333200Y544750D01*
X330950Y545500D02*X332450D01*
X330200Y544750D02*X330950Y545500D01*
X330200Y544750D02*Y543250D01*
X330950Y542500D01*
X333200Y545500D02*Y543250D01*
X333950Y542500D01*
X330950D02*X332450D01*
X333200Y543250D01*
X335750Y545500D02*Y543250D01*
X336500Y542500D01*
X337250D01*
X338000Y543250D01*
Y545500D02*Y543250D01*
X338750Y542500D01*
X339500D01*
X340250Y543250D01*
Y545500D02*Y543250D01*
G54D54*X342050Y547000D02*Y546850D01*
G54D53*Y544750D02*Y542500D01*
X344300Y544750D02*Y542500D01*
Y544750D02*X345050Y545500D01*
X345800D01*
X346550Y544750D01*
Y542500D01*
X343550Y545500D02*X344300Y544750D01*
X350600Y545500D02*X351350Y544750D01*
X349100Y545500D02*X350600D01*
X348350Y544750D02*X349100Y545500D01*
X348350Y544750D02*Y543250D01*
X349100Y542500D01*
X350600D01*
X351350Y543250D01*
X348350Y541000D02*X349100Y540250D01*
X350600D01*
X351350Y541000D01*
Y545500D02*Y541000D01*
M02*
