G04 start of page 7 for group -4063 idx -4063 *
G04 Title: (unknown), componentmask *
G04 Creator: pcb 20140316 *
G04 CreationDate: Tue 26 Feb 2019 03:12:25 PM GMT UTC *
G04 For: railfan *
G04 Format: Gerber/RS-274X *
G04 PCB-Dimensions (mil): 1580.00 4900.00 *
G04 PCB-Coordinate-Origin: lower left *
%MOIN*%
%FSLAX25Y25*%
%LNTOPMASK*%
%ADD39R,0.0532X0.0532*%
%ADD38R,0.0296X0.0296*%
%ADD37R,0.0227X0.0227*%
%ADD36R,0.0572X0.0572*%
%ADD35R,0.0180X0.0180*%
G54D35*X61803Y391000D02*X64102D01*
X62500D02*X63500D01*
X61803Y389031D02*X64102D01*
X61803Y387063D02*X64102D01*
X62500Y389031D02*X63500D01*
X62500Y387063D02*X63500D01*
G54D36*X52107Y394543D02*X52893D01*
X52107Y387457D02*X52893D01*
X57457Y376893D02*Y376107D01*
X64543Y376893D02*Y376107D01*
X48543Y376893D02*Y376107D01*
G54D35*X61803Y354937D02*X64102D01*
X61803Y352969D02*X64102D01*
X62500Y354937D02*X63500D01*
X62500Y352969D02*X63500D01*
X61803Y351000D02*X64102D01*
X61803Y349031D02*X64102D01*
X61803Y347063D02*X64102D01*
X62500Y351000D02*X63500D01*
X62500Y349031D02*X63500D01*
X62500Y347063D02*X63500D01*
G54D36*X52107Y347457D02*X52893D01*
X52107Y354543D02*X52893D01*
X57457Y336893D02*Y336107D01*
X48543Y336893D02*Y336107D01*
X64543Y336893D02*Y336107D01*
X95457Y395393D02*Y394607D01*
X102543Y395393D02*Y394607D01*
G54D37*X112217Y391575D02*X114087D01*
G54D36*X102543Y384393D02*Y383607D01*
Y375393D02*Y374607D01*
X95457Y384393D02*Y383607D01*
Y375393D02*Y374607D01*
G54D37*X112217Y388425D02*X114087D01*
X118913D02*X120783D01*
X118913Y391575D02*X120783D01*
G54D38*X126130Y379094D02*X129870D01*
X126130Y383031D02*X129870D01*
X126130Y386969D02*X129870D01*
X126130Y390906D02*X129870D01*
G54D39*X142075Y373976D02*X144437D01*
X142075Y396024D02*X144437D01*
G54D36*X95457Y355393D02*Y354607D01*
X102543Y355393D02*Y354607D01*
X95457Y344393D02*Y343607D01*
Y335393D02*Y334607D01*
X102543Y344393D02*Y343607D01*
Y335393D02*Y334607D01*
G54D37*X112217Y351575D02*X114087D01*
X118913D02*X120783D01*
G54D38*X126130Y350906D02*X129870D01*
G54D39*X142075Y356024D02*X144437D01*
G54D37*X112217Y348425D02*X114087D01*
X118913D02*X120783D01*
G54D38*X126130Y339094D02*X129870D01*
X126130Y343031D02*X129870D01*
X126130Y346969D02*X129870D01*
G54D39*X142075Y333976D02*X144437D01*
G54D38*X28130Y343031D02*X31870D01*
G54D39*X13563Y356024D02*X15925D01*
G54D38*X28130Y339094D02*X31870D01*
G54D39*X13563Y333976D02*X15925D01*
G54D36*X41457Y336893D02*Y336107D01*
G54D38*X28130Y350906D02*X31870D01*
X28130Y346969D02*X31870D01*
X28130Y310906D02*X31870D01*
X28130Y306969D02*X31870D01*
G54D36*X95457Y475393D02*Y474607D01*
X102543Y475393D02*Y474607D01*
G54D37*X112217Y471575D02*X114087D01*
X112217Y468425D02*X114087D01*
X118913D02*X120783D01*
X118913Y471575D02*X120783D01*
G54D38*X126130Y470906D02*X129870D01*
G54D36*X102543Y464393D02*Y463607D01*
X95457Y464393D02*Y463607D01*
G54D35*X78898Y467063D02*X81197D01*
X78898Y469031D02*X81197D01*
X79500Y467063D02*X80500D01*
X79500Y469031D02*X80500D01*
X78898Y471000D02*X81197D01*
X78898Y472969D02*X81197D01*
X78898Y474937D02*X81197D01*
X79500Y471000D02*X80500D01*
X79500Y472969D02*X80500D01*
X79500Y474937D02*X80500D01*
G54D36*X57457Y456893D02*Y456107D01*
X64543Y456893D02*Y456107D01*
X48543Y456893D02*Y456107D01*
G54D38*X126130Y459094D02*X129870D01*
X126130Y463031D02*X129870D01*
X126130Y466969D02*X129870D01*
G54D39*X142075Y453976D02*X144437D01*
X142075Y476024D02*X144437D01*
G54D36*X95457Y435393D02*Y434607D01*
Y424393D02*Y423607D01*
X102543Y435393D02*Y434607D01*
Y424393D02*Y423607D01*
Y415393D02*Y414607D01*
G54D39*X142075Y413976D02*X144437D01*
G54D36*X95457Y415393D02*Y414607D01*
G54D37*X112217Y431575D02*X114087D01*
X112217Y428425D02*X114087D01*
X118913D02*X120783D01*
X118913Y431575D02*X120783D01*
G54D39*X142075Y436024D02*X144437D01*
G54D38*X126130Y419094D02*X129870D01*
X126130Y423031D02*X129870D01*
X126130Y426969D02*X129870D01*
X126130Y430906D02*X129870D01*
X28130Y470906D02*X31870D01*
X28130Y466969D02*X31870D01*
X28130Y463031D02*X31870D01*
X28130Y459094D02*X31870D01*
G54D39*X13563Y476024D02*X15925D01*
X13563Y453976D02*X15925D01*
G54D36*X41457Y456893D02*Y456107D01*
G54D38*X28130Y430906D02*X31870D01*
G54D39*X13563Y436024D02*X15925D01*
G54D35*X61803Y474937D02*X64102D01*
X62500D02*X63500D01*
X61803Y472969D02*X64102D01*
X62500D02*X63500D01*
X61803Y471000D02*X64102D01*
X61803Y469031D02*X64102D01*
X61803Y467063D02*X64102D01*
X62500Y471000D02*X63500D01*
X62500Y469031D02*X63500D01*
X62500Y467063D02*X63500D01*
G54D36*X52107Y467457D02*X52893D01*
X52107Y474543D02*X52893D01*
G54D35*X61803Y434937D02*X64102D01*
X62500D02*X63500D01*
G54D36*X52107Y434543D02*X52893D01*
G54D35*X61803Y432969D02*X64102D01*
X61803Y431000D02*X64102D01*
X62500Y432969D02*X63500D01*
X62500Y431000D02*X63500D01*
X61803Y429031D02*X64102D01*
X61803Y427063D02*X64102D01*
X62500Y429031D02*X63500D01*
X62500Y427063D02*X63500D01*
G54D36*X52107Y427457D02*X52893D01*
G54D38*X28130Y426969D02*X31870D01*
X28130Y423031D02*X31870D01*
X28130Y390906D02*X31870D01*
X28130Y419094D02*X31870D01*
G54D39*X13563Y413976D02*X15925D01*
G54D36*X41457Y416893D02*Y416107D01*
G54D39*X13563Y396024D02*X15925D01*
X13563Y373976D02*X15925D01*
G54D36*X41457Y376893D02*Y376107D01*
G54D38*X28130Y386969D02*X31870D01*
X28130Y383031D02*X31870D01*
X28130Y379094D02*X31870D01*
G54D35*X78898Y427063D02*X81197D01*
X79500D02*X80500D01*
X78898Y429031D02*X81197D01*
X79500D02*X80500D01*
X78898Y431000D02*X81197D01*
X78898Y432969D02*X81197D01*
X78898Y434937D02*X81197D01*
X79500Y431000D02*X80500D01*
X79500Y432969D02*X80500D01*
X79500Y434937D02*X80500D01*
X78898Y347063D02*X81197D01*
X79500D02*X80500D01*
X78898Y349031D02*X81197D01*
X79500D02*X80500D01*
X78898Y351000D02*X81197D01*
X78898Y352969D02*X81197D01*
X78898Y354937D02*X81197D01*
X79500Y351000D02*X80500D01*
X79500Y352969D02*X80500D01*
X79500Y354937D02*X80500D01*
G54D36*X102543Y455393D02*Y454607D01*
X95457Y455393D02*Y454607D01*
X57457Y416893D02*Y416107D01*
X64543Y416893D02*Y416107D01*
G54D35*X61803Y394937D02*X64102D01*
X61803Y392969D02*X64102D01*
X62500Y394937D02*X63500D01*
X62500Y392969D02*X63500D01*
G54D36*X48543Y416893D02*Y416107D01*
G54D35*X78898Y387063D02*X81197D01*
X78898Y389031D02*X81197D01*
X79500Y387063D02*X80500D01*
X79500Y389031D02*X80500D01*
X78898Y391000D02*X81197D01*
X78898Y392969D02*X81197D01*
X78898Y394937D02*X81197D01*
X79500Y391000D02*X80500D01*
X79500Y392969D02*X80500D01*
X79500Y394937D02*X80500D01*
X61803Y314937D02*X64102D01*
X61803Y312969D02*X64102D01*
X62500Y314937D02*X63500D01*
X62500Y312969D02*X63500D01*
X61803Y311000D02*X64102D01*
X61803Y309031D02*X64102D01*
X62500Y311000D02*X63500D01*
X62500Y309031D02*X63500D01*
G54D36*X52107Y307457D02*X52893D01*
X52107Y314543D02*X52893D01*
G54D35*X61803Y307063D02*X64102D01*
X62500D02*X63500D01*
X78898D02*X81197D01*
X78898Y309031D02*X81197D01*
X79500Y307063D02*X80500D01*
X79500Y309031D02*X80500D01*
X78898Y311000D02*X81197D01*
X78898Y312969D02*X81197D01*
X78898Y314937D02*X81197D01*
X79500Y311000D02*X80500D01*
X79500Y312969D02*X80500D01*
X79500Y314937D02*X80500D01*
G54D36*X57457Y296893D02*Y296107D01*
X64543Y296893D02*Y296107D01*
X48543Y296893D02*Y296107D01*
X95457Y315393D02*Y314607D01*
X102543Y315393D02*Y314607D01*
X95457Y304393D02*Y303607D01*
Y295393D02*Y294607D01*
X102543Y304393D02*Y303607D01*
Y295393D02*Y294607D01*
G54D37*X112217Y311575D02*X114087D01*
X118913D02*X120783D01*
G54D38*X126130Y310906D02*X129870D01*
G54D39*X142075Y316024D02*X144437D01*
G54D37*X112217Y308425D02*X114087D01*
X118913D02*X120783D01*
G54D38*X126130Y299094D02*X129870D01*
X126130Y303031D02*X129870D01*
X126130Y306969D02*X129870D01*
G54D39*X142075Y293976D02*X144437D01*
G54D36*X95457Y275393D02*Y274607D01*
X102543Y275393D02*Y274607D01*
X95457Y264393D02*Y263607D01*
Y255393D02*Y254607D01*
X102543Y264393D02*Y263607D01*
Y255393D02*Y254607D01*
G54D37*X112217Y271575D02*X114087D01*
X118913D02*X120783D01*
G54D38*X126130Y270906D02*X129870D01*
G54D39*X142075Y276024D02*X144437D01*
G54D37*X112217Y268425D02*X114087D01*
X118913D02*X120783D01*
G54D38*X126130Y259094D02*X129870D01*
X126130Y263031D02*X129870D01*
X126130Y266969D02*X129870D01*
G54D39*X142075Y253976D02*X144437D01*
G54D35*X78898Y267063D02*X81197D01*
X79500D02*X80500D01*
X78898Y269031D02*X81197D01*
X79500D02*X80500D01*
X78898Y271000D02*X81197D01*
X78898Y272969D02*X81197D01*
X78898Y274937D02*X81197D01*
X79500Y271000D02*X80500D01*
X79500Y272969D02*X80500D01*
X79500Y274937D02*X80500D01*
X78898Y231000D02*X81197D01*
X78898Y232969D02*X81197D01*
X78898Y234937D02*X81197D01*
X79500Y231000D02*X80500D01*
X79500Y232969D02*X80500D01*
X79500Y234937D02*X80500D01*
X61803Y274937D02*X64102D01*
X62500D02*X63500D01*
X61803Y272969D02*X64102D01*
X62500D02*X63500D01*
X61803Y271000D02*X64102D01*
X61803Y269031D02*X64102D01*
X61803Y267063D02*X64102D01*
X62500Y271000D02*X63500D01*
X62500Y269031D02*X63500D01*
X62500Y267063D02*X63500D01*
G54D36*X52107Y274543D02*X52893D01*
X52107Y194543D02*X52893D01*
X52107Y267457D02*X52893D01*
X57457Y256893D02*Y256107D01*
X64543Y256893D02*Y256107D01*
X48543Y256893D02*Y256107D01*
G54D35*X78898Y227063D02*X81197D01*
X79500D02*X80500D01*
X78898Y229031D02*X81197D01*
X79500D02*X80500D01*
X78898Y187063D02*X81197D01*
X78898Y189031D02*X81197D01*
X79500Y187063D02*X80500D01*
X79500Y189031D02*X80500D01*
X78898Y191000D02*X81197D01*
X78898Y192969D02*X81197D01*
X78898Y194937D02*X81197D01*
X79500Y191000D02*X80500D01*
X79500Y192969D02*X80500D01*
X79500Y194937D02*X80500D01*
G54D38*X28130Y303031D02*X31870D01*
X28130Y299094D02*X31870D01*
G54D36*X41457Y296893D02*Y296107D01*
G54D39*X13563Y316024D02*X15925D01*
X13563Y293976D02*X15925D01*
X13563Y276024D02*X15925D01*
G54D35*X61803Y234937D02*X64102D01*
X62500D02*X63500D01*
X61803Y232969D02*X64102D01*
X62500D02*X63500D01*
X61803Y231000D02*X64102D01*
X61803Y229031D02*X64102D01*
X61803Y227063D02*X64102D01*
X62500Y231000D02*X63500D01*
X62500Y229031D02*X63500D01*
X62500Y227063D02*X63500D01*
G54D36*X52107Y234543D02*X52893D01*
G54D38*X28130Y270906D02*X31870D01*
X28130Y266969D02*X31870D01*
X28130Y263031D02*X31870D01*
X28130Y259094D02*X31870D01*
G54D36*X41457Y256893D02*Y256107D01*
G54D38*X28130Y230906D02*X31870D01*
X28130Y223031D02*X31870D01*
X28130Y219094D02*X31870D01*
G54D36*X41457Y216893D02*Y216107D01*
G54D39*X13563Y253976D02*X15925D01*
X13563Y236024D02*X15925D01*
X13563Y213976D02*X15925D01*
X13563Y196024D02*X15925D01*
G54D36*X52107Y227457D02*X52893D01*
X57457Y216893D02*Y216107D01*
X64543Y216893D02*Y216107D01*
X48543Y216893D02*Y216107D01*
G54D35*X61803Y194937D02*X64102D01*
X62500D02*X63500D01*
X61803Y192969D02*X64102D01*
X62500D02*X63500D01*
X61803Y191000D02*X64102D01*
X61803Y189031D02*X64102D01*
X61803Y187063D02*X64102D01*
X62500Y191000D02*X63500D01*
X62500Y189031D02*X63500D01*
X62500Y187063D02*X63500D01*
G54D36*X52107Y187457D02*X52893D01*
X95457Y235393D02*Y234607D01*
X102543Y235393D02*Y234607D01*
X95457Y224393D02*Y223607D01*
Y215393D02*Y214607D01*
X102543Y224393D02*Y223607D01*
Y215393D02*Y214607D01*
G54D37*X112217Y231575D02*X114087D01*
X118913D02*X120783D01*
G54D38*X126130Y230906D02*X129870D01*
G54D39*X142075Y236024D02*X144437D01*
G54D37*X112217Y228425D02*X114087D01*
X118913D02*X120783D01*
G54D38*X126130Y219094D02*X129870D01*
X126130Y223031D02*X129870D01*
X126130Y226969D02*X129870D01*
G54D39*X142075Y213976D02*X144437D01*
G54D36*X95457Y195393D02*Y194607D01*
X102543Y195393D02*Y194607D01*
X95457Y184393D02*Y183607D01*
Y175393D02*Y174607D01*
X102543Y184393D02*Y183607D01*
Y175393D02*Y174607D01*
G54D37*X112217Y191575D02*X114087D01*
X118913D02*X120783D01*
G54D38*X126130Y190906D02*X129870D01*
G54D39*X142075Y196024D02*X144437D01*
G54D37*X112217Y188425D02*X114087D01*
X118913D02*X120783D01*
G54D38*X126130Y179094D02*X129870D01*
X126130Y183031D02*X129870D01*
X126130Y186969D02*X129870D01*
G54D39*X142075Y173976D02*X144437D01*
G54D38*X28130Y226969D02*X31870D01*
X28130Y190906D02*X31870D01*
X28130Y186969D02*X31870D01*
X28130Y183031D02*X31870D01*
X28130Y179094D02*X31870D01*
X28130Y150906D02*X31870D01*
X28130Y146969D02*X31870D01*
G54D36*X57457Y176893D02*Y176107D01*
X48543Y176893D02*Y176107D01*
X64543Y176893D02*Y176107D01*
G54D39*X13563Y173976D02*X15925D01*
X13563Y156024D02*X15925D01*
X13563Y133976D02*X15925D01*
G54D36*X41457Y176893D02*Y176107D01*
Y96893D02*Y96107D01*
G54D38*X28130Y143031D02*X31870D01*
X28130Y110906D02*X31870D01*
X28130Y139094D02*X31870D01*
G54D36*X41457Y136893D02*Y136107D01*
G54D35*X61803Y154937D02*X64102D01*
X61803Y152969D02*X64102D01*
X62500Y154937D02*X63500D01*
X62500Y152969D02*X63500D01*
X61803Y151000D02*X64102D01*
X61803Y149031D02*X64102D01*
X62500Y151000D02*X63500D01*
X62500Y149031D02*X63500D01*
G54D36*X52107Y147457D02*X52893D01*
X52107Y154543D02*X52893D01*
G54D35*X61803Y147063D02*X64102D01*
X62500D02*X63500D01*
X78898D02*X81197D01*
X78898Y149031D02*X81197D01*
X79500Y147063D02*X80500D01*
X79500Y149031D02*X80500D01*
X78898Y151000D02*X81197D01*
X78898Y152969D02*X81197D01*
X78898Y154937D02*X81197D01*
X79500Y151000D02*X80500D01*
X79500Y152969D02*X80500D01*
X79500Y154937D02*X80500D01*
G54D36*X57457Y136893D02*Y136107D01*
X64543Y136893D02*Y136107D01*
X48543Y136893D02*Y136107D01*
G54D35*X78898Y107063D02*X81197D01*
X79500D02*X80500D01*
X78898Y109031D02*X81197D01*
X79500D02*X80500D01*
X78898Y111000D02*X81197D01*
X78898Y112969D02*X81197D01*
X78898Y114937D02*X81197D01*
X79500Y111000D02*X80500D01*
X79500Y112969D02*X80500D01*
X79500Y114937D02*X80500D01*
X78898Y71000D02*X81197D01*
X78898Y72969D02*X81197D01*
X78898Y74937D02*X81197D01*
X79500Y71000D02*X80500D01*
X79500Y72969D02*X80500D01*
X79500Y74937D02*X80500D01*
X61803Y114937D02*X64102D01*
X62500D02*X63500D01*
X61803Y112969D02*X64102D01*
X62500D02*X63500D01*
X61803Y111000D02*X64102D01*
X61803Y109031D02*X64102D01*
X61803Y107063D02*X64102D01*
X62500Y111000D02*X63500D01*
X62500Y109031D02*X63500D01*
X62500Y107063D02*X63500D01*
G54D36*X52107Y114543D02*X52893D01*
X52107Y34543D02*X52893D01*
X52107Y107457D02*X52893D01*
X57457Y96893D02*Y96107D01*
X64543Y96893D02*Y96107D01*
X48543Y96893D02*Y96107D01*
G54D35*X78898Y67063D02*X81197D01*
X79500D02*X80500D01*
X78898Y69031D02*X81197D01*
X79500D02*X80500D01*
X78898Y27063D02*X81197D01*
X78898Y29031D02*X81197D01*
X79500Y27063D02*X80500D01*
X79500Y29031D02*X80500D01*
X78898Y31000D02*X81197D01*
X78898Y32969D02*X81197D01*
X78898Y34937D02*X81197D01*
X79500Y31000D02*X80500D01*
X79500Y32969D02*X80500D01*
X79500Y34937D02*X80500D01*
G54D36*X95457Y155393D02*Y154607D01*
X102543Y155393D02*Y154607D01*
X95457Y144393D02*Y143607D01*
Y135393D02*Y134607D01*
X102543Y144393D02*Y143607D01*
Y135393D02*Y134607D01*
G54D37*X112217Y151575D02*X114087D01*
X118913D02*X120783D01*
G54D38*X126130Y150906D02*X129870D01*
G54D39*X142075Y156024D02*X144437D01*
G54D37*X112217Y148425D02*X114087D01*
X118913D02*X120783D01*
G54D38*X126130Y139094D02*X129870D01*
X126130Y143031D02*X129870D01*
X126130Y146969D02*X129870D01*
G54D39*X142075Y133976D02*X144437D01*
G54D36*X95457Y115393D02*Y114607D01*
X102543Y115393D02*Y114607D01*
X95457Y104393D02*Y103607D01*
Y95393D02*Y94607D01*
X102543Y104393D02*Y103607D01*
Y95393D02*Y94607D01*
G54D37*X112217Y111575D02*X114087D01*
X118913D02*X120783D01*
G54D38*X126130Y110906D02*X129870D01*
G54D39*X142075Y116024D02*X144437D01*
G54D37*X112217Y108425D02*X114087D01*
X118913D02*X120783D01*
G54D38*X126130Y99094D02*X129870D01*
X126130Y103031D02*X129870D01*
X126130Y106969D02*X129870D01*
G54D39*X142075Y93976D02*X144437D01*
G54D36*X95457Y75393D02*Y74607D01*
X102543Y75393D02*Y74607D01*
X95457Y64393D02*Y63607D01*
Y55393D02*Y54607D01*
X102543Y64393D02*Y63607D01*
Y55393D02*Y54607D01*
G54D37*X112217Y71575D02*X114087D01*
X118913D02*X120783D01*
G54D38*X126130Y70906D02*X129870D01*
G54D39*X142075Y76024D02*X144437D01*
G54D37*X112217Y68425D02*X114087D01*
X118913D02*X120783D01*
G54D38*X126130Y59094D02*X129870D01*
X126130Y63031D02*X129870D01*
X126130Y66969D02*X129870D01*
G54D39*X142075Y53976D02*X144437D01*
G54D36*X95457Y35393D02*Y34607D01*
X102543Y35393D02*Y34607D01*
X95457Y24393D02*Y23607D01*
Y15393D02*Y14607D01*
X102543Y24393D02*Y23607D01*
Y15393D02*Y14607D01*
G54D37*X112217Y31575D02*X114087D01*
X118913D02*X120783D01*
G54D38*X126130Y30906D02*X129870D01*
G54D39*X142075Y36024D02*X144437D01*
G54D37*X112217Y28425D02*X114087D01*
X118913D02*X120783D01*
G54D38*X126130Y19094D02*X129870D01*
X126130Y23031D02*X129870D01*
X126130Y26969D02*X129870D01*
G54D39*X142075Y13976D02*X144437D01*
G54D38*X28130Y106969D02*X31870D01*
X28130Y103031D02*X31870D01*
X28130Y99094D02*X31870D01*
X28130Y70906D02*X31870D01*
X28130Y66969D02*X31870D01*
G54D39*X13563Y116024D02*X15925D01*
X13563Y93976D02*X15925D01*
X13563Y76024D02*X15925D01*
X13563Y53976D02*X15925D01*
X13563Y36024D02*X15925D01*
X13563Y13976D02*X15925D01*
G54D38*X28130Y30906D02*X31870D01*
X28130Y26969D02*X31870D01*
X28130Y23031D02*X31870D01*
X28130Y19094D02*X31870D01*
X28130Y63031D02*X31870D01*
X28130Y59094D02*X31870D01*
G54D36*X52107Y74543D02*X52893D01*
X41457Y56893D02*Y56107D01*
X48543Y56893D02*Y56107D01*
G54D35*X61803Y74937D02*X64102D01*
X62500D02*X63500D01*
X61803Y72969D02*X64102D01*
X62500D02*X63500D01*
X61803Y71000D02*X64102D01*
X61803Y69031D02*X64102D01*
X61803Y67063D02*X64102D01*
X62500Y71000D02*X63500D01*
X62500Y69031D02*X63500D01*
X62500Y67063D02*X63500D01*
G54D36*X52107Y67457D02*X52893D01*
X57457Y56893D02*Y56107D01*
X64543Y56893D02*Y56107D01*
G54D35*X61803Y34937D02*X64102D01*
X61803Y32969D02*X64102D01*
X62500Y34937D02*X63500D01*
X62500Y32969D02*X63500D01*
X61803Y27063D02*X64102D01*
X62500D02*X63500D01*
G54D36*X64543Y16893D02*Y16107D01*
G54D35*X61803Y31000D02*X64102D01*
X61803Y29031D02*X64102D01*
X62500Y31000D02*X63500D01*
X62500Y29031D02*X63500D01*
G54D36*X52107Y27457D02*X52893D01*
X57457Y16893D02*Y16107D01*
X41457Y16893D02*Y16107D01*
X48543Y16893D02*Y16107D01*
M02*
