M48
INCH
T34C0.031
%
T34
X007300Y044900
X007300Y044100
X007300Y040900
X007300Y040100
X007300Y036900
X007300Y036100
X007300Y032900
X007300Y032100
X007300Y028900
X007300Y028100
X007300Y024900
X007300Y024100
X007300Y020900
X007300Y020100
X007300Y016900
X007300Y016100
X007300Y012900
X007300Y012100
X007300Y008900
X007300Y008100
X007300Y004900
X007300Y004100
X007800Y044900
X007800Y044100
X007800Y040900
X007800Y040100
X007800Y036900
X007800Y036100
X007800Y032900
X007800Y032100
X007800Y028900
X007800Y028100
X007800Y024900
X007800Y024100
X007800Y020900
X007800Y020100
X007800Y016900
X007800Y016100
X007800Y012900
X007800Y012100
X007800Y008900
X007800Y008100
X007800Y004900
X007800Y004100
X008300Y044900
X008300Y044100
X008300Y040900
X008300Y040100
X008300Y036900
X008300Y036100
X008300Y032900
X008300Y032100
X008300Y028900
X008300Y028100
X008300Y024900
X008300Y024100
X008300Y020900
X008300Y020100
X008300Y016900
X008300Y016100
X008300Y012900
X008300Y012100
X008300Y008900
X008300Y008100
X008300Y004900
X008300Y004100
M30
